<?xml version="1.0" standalone="no"?>
<!DOCTYPE svg PUBLIC "-//W3C//DTD SVG 1.1//EN" "http://www.w3.org/Graphics/SVG/1.1/DTD/svg11.dtd" >
<svg xmlns="http://www.w3.org/2000/svg">
<metadata></metadata>
<defs>
<font id="gstymieregular" horiz-adv-x="1308" >
<font-face units-per-em="2048" ascent="1638" descent="-410" />
<missing-glyph horiz-adv-x="614" />
<glyph horiz-adv-x="2048" />
<glyph horiz-adv-x="2048" />
<glyph unicode="&#xd;" horiz-adv-x="2048" />
<glyph unicode=" "  horiz-adv-x="614" />
<glyph unicode="&#x09;" horiz-adv-x="614" />
<glyph unicode="&#xa0;" horiz-adv-x="614" />
<glyph unicode="!" horiz-adv-x="749" d="M166 1012v463h418v-463l-105 -482h-229zM188 0v412h371v-412h-371z" />
<glyph unicode="&#x22;" horiz-adv-x="757" d="M68 877v563h258v-563h-258zM430 877v563h260v-563h-260z" />
<glyph unicode="#" horiz-adv-x="1574" d="M-6 350l100 271h254l74 213h-258l98 270h258l129 366h289l-129 -366h227l129 366h289l-129 -366h256l-100 -270h-252l-76 -213h258l-100 -271h-254l-131 -366h-289l131 366h-227l-131 -366h-289l131 366h-258zM629 621h239l78 213h-239z" />
<glyph unicode="$" d="M57 340l275 139q53 -88 110 -133.5t131 -54.5v239q-237 29 -360 144.5t-123 306.5q0 201 129.5 329t353.5 140v129h148v-131q159 -8 278 -91.5t191 -238.5l-260 -123q-107 159 -209 179v-254q247 -32 372.5 -147.5t125.5 -307.5q0 -212 -130 -333t-368 -128v-162h-148 v162q-379 27 -516 336zM453 1065q0 -42 31.5 -73.5t88.5 -41.5v226q-54 -3 -87 -35.5t-33 -75.5zM721 287q127 24 127 114q0 46 -33 77t-94 38v-229z" />
<glyph unicode="%" horiz-adv-x="1918" d="M66 1098q0 156 112 268q113 113 271 113q157 0 270 -113q112 -112 112 -268q0 -159 -112 -271t-270 -112q-159 0 -271 112t-112 271zM295 1098q0 -66 44 -111t110 -45q65 0 110 45t45 111q0 63 -45.5 108t-109.5 45q-65 0 -109.5 -44.5t-44.5 -108.5zM451 -25l800 1504 h217l-800 -1504h-217zM1087 360q0 154 113 267q114 114 270 114q157 0 271 -114q112 -112 112 -267q0 -160 -112 -272q-113 -113 -271 -113q-157 0 -270 113t-113 272zM1317 358q0 -66 43.5 -110.5t109.5 -44.5q65 0 110.5 44.5t45.5 110.5q0 63 -46 108.5t-110 45.5 t-108.5 -44.5t-44.5 -109.5z" />
<glyph unicode="&#x26;" horiz-adv-x="1527" d="M33 369q0 276 334 426l-35 45q-61 78 -91 142.5t-30 139.5q0 170 133 277.5t356 107.5q200 0 320.5 -100.5t120.5 -253.5q0 -115 -63 -199t-195 -149l153 -201q68 88 107 201h317q-102 -283 -237 -443l278 -362h-526l-94 123q-154 -160 -406 -160q-200 0 -321 113.5 t-121 292.5zM442 446q0 -67 44 -112t108 -45q72 0 123 51l-201 260q-74 -71 -74 -154zM641 1161q0 -71 94 -172q99 102 99 176q0 41 -26.5 66.5t-68.5 25.5q-43 0 -70.5 -27.5t-27.5 -68.5z" />
<glyph unicode="'" horiz-adv-x="393" d="M68 877v563h258v-563h-258z" />
<glyph unicode="(" horiz-adv-x="708" d="M137 596q0 454 264 911h238q-229 -439 -229 -891q0 -435 223 -897h-230q-266 438 -266 877z" />
<glyph unicode=")" horiz-adv-x="708" d="M70 -281q229 439 229 891q0 435 -223 897h229q266 -438 266 -876q0 -455 -264 -912h-237z" />
<glyph unicode="*" horiz-adv-x="1024" d="M55 1085l78 240l260 -92v274h238v-274l260 90l78 -238l-273 -73l191 -240l-205 -143l-170 248l-172 -250l-205 147l191 236z" />
<glyph unicode="+" horiz-adv-x="1705" d="M254 475v273h459v473h280v-473h459v-273h-459v-475h-280v475h-459z" />
<glyph unicode="," horiz-adv-x="591" d="M25 -262l143 678h379l-273 -678h-249z" />
<glyph unicode="-" horiz-adv-x="860" d="M139 303v375h582v-375h-582z" />
<glyph unicode="." horiz-adv-x="591" d="M111 0v412h370v-412h-370z" />
<glyph unicode="/" horiz-adv-x="778" d="M-78 -190l750 1697h237l-745 -1697h-242z" />
<glyph unicode="0" d="M57 727q0 360 156.5 556t439.5 196t440.5 -196t157.5 -556t-157.5 -556t-440.5 -196t-439.5 196t-156.5 556zM508 727q0 -255 29.5 -364t115.5 -109q45 0 74 28t45.5 90t22.5 145t6 210q0 253 -30.5 362t-117.5 109q-86 0 -115.5 -108t-29.5 -363z" />
<glyph unicode="1" d="M317 0v281h142v903h-142v272h545v-1175h142v-281h-687z" />
<glyph unicode="2" d="M57 0v29q0 151 75 287t233 296q71 71 166.5 155.5t105.5 94.5q54 50 78 88t24 88q0 66 -39.5 107t-105.5 41q-168 0 -168 -254v-8l-336 18q15 258 164.5 397.5t407.5 139.5q235 0 372 -123t137 -332q0 -97 -37.5 -175.5t-100.5 -138.5t-173 -135q-26 -18 -110 -71 t-143.5 -98t-112.5 -99h407v199h270v-506h-1114z" />
<glyph unicode="3" d="M76 440l323 56q27 -222 213 -222q76 0 121 42t45 110q0 78 -63 122t-180 44q-34 0 -50 -2v291h33q118 0 179 41.5t61 121.5q0 62 -41 100t-107 38q-78 0 -128.5 -56t-69.5 -155l-312 67q61 212 206 324.5t356 112.5q231 0 369 -116t138 -298q0 -130 -68.5 -208.5 t-193.5 -92.5q145 -7 226 -100.5t81 -251.5q0 -197 -150 -316t-407 -119q-262 0 -409 118.5t-172 348.5z" />
<glyph unicode="4" d="M37 416v295l647 743h365v-743h225v-295h-225v-135h141v-281h-688v281h143v135h-608zM340 711h305v350z" />
<glyph unicode="5" d="M72 399l331 107q44 -215 191 -215q71 0 117.5 49t46.5 125q0 99 -70 164t-176 65q-103 0 -211 -82l-145 105l77 739h902v-389h-273v96h-368l-25 -241q120 67 270 67q211 0 347.5 -136t136.5 -349q0 -241 -160.5 -386t-433.5 -145q-458 0 -557 426z" />
<glyph unicode="6" d="M63 688q0 172 51 320.5t139.5 252t211.5 162t264 58.5q162 0 281 -80t172 -223l-299 -140q-67 138 -164 138q-92 0 -139.5 -83t-55.5 -253q123 114 285 114q190 0 313 -125.5t123 -322.5q0 -246 -152 -388.5t-417 -142.5q-270 0 -441.5 197.5t-171.5 515.5zM522 455 q0 -88 38.5 -136.5t107.5 -48.5q66 0 105.5 51t39.5 138q0 86 -39.5 136t-103.5 50q-68 0 -108 -51.5t-40 -138.5z" />
<glyph unicode="7" d="M129 891v565h1094v-295l-406 -880h141v-281h-673v281h141l405 880h-399v-270h-303z" />
<glyph unicode="8" d="M53 397q0 136 91.5 229t258.5 124q-141 35 -219 122t-78 207q0 184 143 291t398 107q272 0 418.5 -107.5t146.5 -300.5q0 -118 -77 -203t-222 -121q153 -20 244.5 -114t91.5 -223q0 -204 -158 -318.5t-452 -114.5q-276 0 -431 114.5t-155 307.5zM498 414 q0 -65 44.5 -110.5t108.5 -45.5t109 45.5t45 110.5q0 63 -45 108t-109 45t-108.5 -45t-44.5 -108zM522 1055q0 -57 39 -96t96 -39t96.5 39t39.5 96q0 56 -39.5 95.5t-96.5 39.5t-96 -39.5t-39 -95.5z" />
<glyph unicode="9" d="M70 971q0 221 154.5 364.5t398.5 143.5q268 0 436 -196t168 -513q0 -172 -50.5 -320.5t-139 -252t-211 -162t-263.5 -58.5q-167 0 -284.5 78t-169.5 224l297 139q67 -137 163 -137q92 0 139.5 83t55.5 252q-118 -84 -254 -84q-190 0 -315 124t-125 315zM489 1006 q0 -83 40 -131t106 -48q68 0 107.5 49.5t39.5 135.5q0 81 -38 129.5t-97 48.5q-74 0 -116 -49t-42 -135z" />
<glyph unicode=":" horiz-adv-x="591" d="M111 0v412h370v-412h-370zM111 573v412h370v-412h-370z" />
<glyph unicode=";" horiz-adv-x="591" d="M20 -262l144 678h379l-273 -678h-250zM164 573v412h371v-412h-371z" />
<glyph unicode="&#x3c;" horiz-adv-x="1705" d="M264 471v281l1178 487v-301l-801 -328l801 -327v-299z" />
<glyph unicode="=" horiz-adv-x="1705" d="M254 240v272h1198v-272h-1198zM254 711v272h1198v-272h-1198z" />
<glyph unicode="&#x3e;" horiz-adv-x="1705" d="M264 -16v299l801 327l-801 328v301l1178 -487v-281z" />
<glyph unicode="?" horiz-adv-x="1048" d="M61 1083q0 204 115 314t330 110q204 0 334.5 -128t130.5 -332q0 -191 -101.5 -303t-275.5 -115v-99h-262v275q121 28 175 97.5t54 193.5q0 151 -102 151q-62 0 -81.5 -50t-19.5 -179h-295q-2 23 -2 65zM274 0v412h371v-412h-371z" />
<glyph unicode="@" horiz-adv-x="2048" d="M70 520q0 357 219 617q150 177 361.5 271.5t461.5 94.5q256 0 454 -94.5t305 -262.5t107 -382q0 -172 -68 -315.5t-196 -241.5q-143 -113 -328 -113q-215 0 -233 154q-59 -79 -127.5 -115.5t-161.5 -36.5q-344 0 -344 350q0 163 66 295.5t180.5 206.5t253.5 74 q152 0 221 -111l49 82h242l-156 -626q-4 -20 -4 -31q0 -49 47 -49q60 0 120 37t107 99t77 151.5t30 185.5q0 234 -173.5 380t-463.5 146q-287 0 -491 -141q-154 -107 -238 -268.5t-84 -350.5q0 -294 198.5 -468.5t536.5 -174.5q321 0 586 187l115 -160q-321 -240 -723 -240 q-189 0 -355.5 54.5t-293.5 156.5q-297 238 -297 639zM801 440q0 -73 31 -112t86 -39q72 0 128.5 55t79.5 150l48 194q-7 69 -42.5 106t-91.5 37q-62 0 -117.5 -53.5t-88.5 -144t-33 -193.5z" />
<glyph unicode="A" horiz-adv-x="1521" d="M88 0v319h107l254 840h-113v316h878v-316h-112l223 -840h109v-319h-656v319h137l-30 130h-357l-36 -130h131v-319h-535zM618 750h203l-67 284q-12 51 -25 135q-10 -61 -31 -135z" />
<glyph unicode="B" horiz-adv-x="1380" d="M88 0v324h121v835h-121v316h719q230 0 359.5 -101.5t129.5 -269.5q0 -258 -295 -348q158 -19 242 -106.5t84 -235.5q0 -414 -549 -414h-690zM633 324h100q88 0 129 35t41 110q0 65 -45 102t-127 37h-98v-284zM633 901h86q88 0 131 32t43 99q0 127 -168 127h-92v-258z" />
<glyph unicode="C" horiz-adv-x="1280" d="M45 711q0 176 44 325.5t120.5 251.5t181 159.5t223.5 57.5q187 0 306 -125v95h254v-576h-273v8q0 131 -44 199t-128 68q-101 0 -143.5 -105t-42.5 -332q0 -214 43 -311.5t145 -97.5q73 0 120 56.5t60 164.5h297q-3 -282 -147 -433t-408 -151q-278 0 -443 203t-165 543z " />
<glyph unicode="D" horiz-adv-x="1433" d="M88 0v324h121v835h-121v316h643q319 0 488.5 -188.5t169.5 -545.5q0 -351 -176.5 -546t-481.5 -195h-643zM664 324h20q62 0 105 17t71 48t43 86.5t21 121.5t6 163q0 216 -55.5 307.5t-200.5 91.5h-10v-835z" />
<glyph unicode="E" horiz-adv-x="1333" d="M88 0v324h121v835h-121v316h1155v-564h-289v236h-295v-229h205v-353h-205v-237h295v260h289v-588h-1155z" />
<glyph unicode="F" horiz-adv-x="1312" d="M88 0v324h121v835h-121v316h1155v-566h-289v238h-295v-217h222v-369h-222v-233h123v-328h-694z" />
<glyph unicode="G" horiz-adv-x="1415" d="M45 711q0 176 45.5 325t124 251t186 159t230.5 57q195 0 315 -123v95h262v-576h-280v23q0 122 -48.5 185.5t-138.5 63.5q-43 0 -75 -14.5t-55 -46.5t-37.5 -75t-23 -109t-12 -139.5t-3.5 -174.5q0 -186 42 -270t144 -84q72 0 110.5 51.5t38.5 149.5h-131v297h627v-299 h-96v-457h-262v109q-144 -144 -351 -144q-273 0 -442.5 205.5t-169.5 540.5z" />
<glyph unicode="H" horiz-adv-x="1634" d="M88 0v324h121v835h-121v316h678v-316h-121v-248h344v248h-121v316h678v-316h-121v-835h121v-324h-678v324h121v262h-344v-262h121v-324h-678z" />
<glyph unicode="I" horiz-adv-x="854" d="M88 0v324h121v835h-121v316h678v-316h-121v-835h121v-324h-678z" />
<glyph unicode="J" horiz-adv-x="917" d="M37 14l29 322q62 -25 98 -25q57 0 77.5 37t20.5 117v694h-141v316h715v-316h-140v-749q0 -230 -95 -338.5t-314 -108.5q-123 0 -250 51z" />
<glyph unicode="K" horiz-adv-x="1638" d="M88 0v324h121v835h-121v316h682v-316h-125v-366h19l352 366h-152v316h678v-316h-106l-353 -358l398 -477h96v-324h-717v324h103l-297 407h-21v-407h125v-324h-682z" />
<glyph unicode="L" horiz-adv-x="1312" d="M88 0v324h121v835h-121v316h688v-316h-108v-835h229v258h330v-582h-1139z" />
<glyph unicode="M" horiz-adv-x="1728" d="M88 0v324h121v835h-121v316h629l135 -433q16 -50 31 -133q8 70 28 131l148 435h581v-316h-118v-837h118v-322h-632v324h120v471q0 168 11 249q-1 -3 -58 -196l-270 -762l-266 766q-19 57 -56 192q11 -105 11 -258v-462h121v-324h-533z" />
<glyph unicode="N" horiz-adv-x="1492" d="M88 0v324h121v835h-121v316h541l350 -676q34 -66 63 -162q-10 117 -10 219v303h-119v316h498v-316h-119v-1159h-368l-357 686q-49 94 -75 188q10 -130 10 -231v-319h119v-324h-533z" />
<glyph unicode="O" horiz-adv-x="1478" d="M45 721q0 358 188 572t498 214q323 0 513 -210t190 -570q0 -158 -48.5 -296.5t-138.5 -242.5q-99 -114 -225 -167.5t-289 -53.5q-157 0 -277 51t-220 160q-191 209 -191 543zM549 737q0 -247 39 -352.5t151 -105.5q47 0 80 18.5t54 52.5t33.5 92t17 127t4.5 168t-4.5 168 t-17 127t-33.5 92.5t-54 53t-80 18.5q-112 0 -151 -106t-39 -353z" />
<glyph unicode="P" horiz-adv-x="1363" d="M88 0v324h121v835h-121v316h741q245 0 373.5 -120t128.5 -345q0 -237 -139 -360.5t-408 -123.5h-120v-202h122v-324h-698zM664 834h26q99 0 150 44t51 130q0 78 -48 114.5t-147 36.5h-32v-325z" />
<glyph unicode="Q" horiz-adv-x="1478" d="M45 723q0 358 188 571t498 213q323 0 513 -209t190 -569q0 -303 -154 -500t-410 -225v-12q106 -19 174 -19q120 0 271 54l119 -312q-195 -77 -351 -77q-97 0 -257.5 45t-229.5 45q-106 0 -227 -56l-93 238q131 76 316 82v10q-262 52 -404.5 240t-142.5 481zM549 737 q0 -247 39 -352.5t151 -105.5q47 0 80 18.5t54 52.5t33.5 92t17 127t4.5 168t-4.5 168t-17 127t-33.5 92.5t-54 53t-80 18.5q-112 0 -151 -106t-39 -353z" />
<glyph unicode="R" horiz-adv-x="1501" d="M88 0v324h121v835h-121v316h682q306 0 453 -95t147 -303q0 -269 -266 -352q53 -10 90.5 -23t63 -33.5t40.5 -42.5t22.5 -58t10 -70.5t2.5 -89.5v-84h107v-324h-543v358q0 133 -42.5 183.5t-166.5 50.5q-6 0 -20 -1t-23 -1v-266h125v-324h-682zM645 870q18 -2 53 -2 q113 0 166.5 35t53.5 111q0 77 -57.5 111t-180.5 34h-35v-289z" />
<glyph unicode="S" horiz-adv-x="1155" d="M68 993q0 231 130.5 371.5t340.5 140.5q168 0 260 -98v68h221v-478h-201q-13 98 -73 149.5t-160 51.5q-56 0 -89.5 -25.5t-33.5 -64.5q0 -33 22 -50.5t74 -37.5l154 -55q208 -74 299.5 -181t91.5 -297q0 -242 -133 -383t-353 -141q-211 0 -327 129v-96h-215v512h194 q68 -250 256 -250q70 0 110 31t40 84q0 42 -26.5 69.5t-82.5 44.5l-131 41q-191 59 -279.5 169.5t-88.5 295.5z" />
<glyph unicode="T" horiz-adv-x="1382" d="M82 854v621h1218v-621h-262v305h-120v-835h137v-324h-736v324h142v835h-121v-305h-258z" />
<glyph unicode="U" horiz-adv-x="1421" d="M66 1159v316h663v-316h-98v-715q0 -80 40 -122.5t115 -42.5q72 0 111 42.5t39 120.5v717h-98v316h518v-316h-109v-715q0 -243 -125 -362t-381 -119q-286 0 -426.5 125.5t-140.5 380.5v690h-108z" />
<glyph unicode="V" horiz-adv-x="1284" d="M20 1161v314h609v-314h-80l133 -606q22 -96 29 -168q11 108 22 162l129 612h-80v314h482v-314h-80l-310 -1161h-468l-304 1161h-82z" />
<glyph unicode="W" horiz-adv-x="1775" d="M20 1161v314h605v-314h-88l61 -422q7 -54 14 -166q11 110 25 168l172 734h317l154 -711q13 -65 27 -174q1 34 22 178l64 393h-93v314h455v-314h-88l-260 -1161h-342l-154 684q-12 49 -22 170q-12 -108 -27 -162l-172 -692h-336l-245 1161h-89z" />
<glyph unicode="X" horiz-adv-x="1476" d="M53 0v324h97l354 387l-354 450h-97v314h707v-314h-98l147 -184l168 184h-107v314h553v-314h-96l-362 -395l362 -442h96v-324h-714v324h104l-147 186l-170 -186h108v-324h-551z" />
<glyph unicode="Y" horiz-adv-x="1368" d="M20 1161v314h693v-314h-101l166 -278l160 278h-96v314h506v-314h-91l-339 -553v-284h157v-324h-764v324h156v284l-356 553h-91z" />
<glyph unicode="Z" horiz-adv-x="1232" d="M51 0v324l594 837h-278v-227h-283v541h1087v-314l-596 -837h310v262h284v-586h-1118z" />
<glyph unicode="[" horiz-adv-x="591" d="M158 -250v1725h383v-175h-146v-1376h146v-174h-383z" />
<glyph unicode="\" horiz-adv-x="778" d="M-104 1507h237l750 -1697h-244z" />
<glyph unicode="]" horiz-adv-x="591" d="M53 -76h146v1376h-146v175h383v-1725h-383v174z" />
<glyph unicode="^" horiz-adv-x="2048" d="M412 897l442 565h338l442 -565h-303l-307 309l-309 -309h-303z" />
<glyph unicode="_" horiz-adv-x="1024" d="M0 -201h1024v-282h-1024v282z" />
<glyph unicode="`" horiz-adv-x="1024" d="M207 1475h287l192 -371h-154z" />
<glyph unicode="a" horiz-adv-x="1075" d="M18 309q0 164 98 257t269 93q128 0 221 -69q0 4 1 13t1 13q0 78 -46.5 115t-143.5 37q-131 0 -275 -66l-65 232q192 76 409 76q259 0 374.5 -102t115.5 -322v-332h78v-254h-453v80q-94 -107 -262 -107q-152 0 -237 89t-85 247zM403 332q0 -62 27.5 -94.5t79.5 -32.5 q106 0 106 129q0 62 -26.5 95.5t-75.5 33.5q-53 0 -82 -34t-29 -97z" />
<glyph unicode="b" horiz-adv-x="1155" d="M20 0v254h105v965h-105v245h510v-596q90 142 261 142q161 0 256.5 -119.5t95.5 -333.5q0 -290 -106.5 -438t-311.5 -148q-196 0 -303 146v-117h-402zM518 504q0 -141 26.5 -207t86.5 -66q58 0 85 63t27 193q0 140 -24.5 203.5t-85.5 63.5q-115 0 -115 -250z" />
<glyph unicode="c" horiz-adv-x="927" d="M12 483q0 242 121.5 384.5t319.5 142.5q157 0 243 -99v74h166v-410h-164v7q0 82 -35.5 126t-99.5 44q-76 0 -110.5 -62.5t-34.5 -191.5q0 -246 137 -246q51 0 83.5 31.5t41.5 89.5h219q-12 -195 -121 -298.5t-303 -103.5q-214 0 -338.5 137.5t-124.5 374.5z" />
<glyph unicode="d" horiz-adv-x="1130" d="M12 487q0 247 103.5 385t277.5 138q121 0 228 -84v293h-105v245h512v-1210h82v-254h-471v80q-103 -109 -256 -109q-172 0 -271.5 135.5t-99.5 380.5zM414 504q0 -141 26 -207t86 -66q113 0 113 256q0 139 -25 202t-86 63q-114 0 -114 -248z" />
<glyph unicode="e" horiz-adv-x="970" d="M12 492q0 242 128 380t349 138q222 0 345.5 -137t123.5 -388q0 -44 -2 -67h-563v-27q0 -182 119 -182q45 0 76 32.5t41 92.5h317q-15 -164 -137 -263.5t-311 -99.5q-228 0 -357 138t-129 383zM387 600h225v27q0 168 -106 168q-56 0 -87 -49.5t-32 -145.5z" />
<glyph unicode="f" horiz-adv-x="653" d="M20 0v254h91v485h-91v246h86v111q0 187 97.5 287t279.5 100q69 0 150 -19v-311h-8q-68 0 -94.5 -30.5t-26.5 -106.5v-31h98v-246h-88v-485h88v-254h-582z" />
<glyph unicode="g" horiz-adv-x="1138" d="M12 506q0 228 111 368t285 140q170 0 247 -144v115h463v-242h-84v-694q0 -205 -151 -323.5t-412 -118.5q-197 0 -291 51l39 272q91 -49 201 -49q101 0 159 55.5t58 153.5q0 23 -2 33q-95 -107 -240 -107q-172 0 -277.5 132t-105.5 358zM422 506q0 -126 27 -185t88 -59 q58 0 84 56.5t26 175.5q0 124 -25 180.5t-85 56.5q-115 0 -115 -225z" />
<glyph unicode="h" horiz-adv-x="1187" d="M20 0v254h91v965h-91v245h492v-612q129 156 301 156q133 0 205 -74.5t72 -214.5v-465h79v-254h-479v590q0 57 -23.5 88t-64.5 31t-66.5 -32t-25.5 -87v-336h86v-254h-576z" />
<glyph unicode="i" horiz-adv-x="638" d="M18 739v246h519v-731h86v-254h-586v254h98v485h-117zM139 1075v361h398v-361h-398z" />
<glyph unicode="j" horiz-adv-x="612" d="M12 -53h11q63 0 89.5 39.5t26.5 128.5v624h-108v246h506v-975q0 -196 -110.5 -299.5t-311.5 -103.5q-48 0 -103 8v332zM145 1075v361h398v-361h-398z" />
<glyph unicode="k" horiz-adv-x="1185" d="M20 0v254h91v965h-91v245h486v-889h10l182 164h-88v246h547v-246h-88l-184 -141l200 -344h89v-254h-396l-258 494h-14v-242h88v-252h-574z" />
<glyph unicode="l" horiz-adv-x="620" d="M20 0v254h91v965h-88v245h493v-1210h86v-254h-582z" />
<glyph unicode="m" horiz-adv-x="1746" d="M20 0v254h89v485h-89v246h486v-133q126 156 299 156q202 0 258 -174q128 174 311 174q133 0 204 -74.5t71 -214.5v-465h80v-254h-476v590q0 56 -24 87.5t-64 31.5t-65 -32t-25 -87v-336h86v-254h-479v590q0 57 -23.5 88t-64.5 31q-40 0 -64 -32t-24 -87v-336h84v-254 h-570z" />
<glyph unicode="n" horiz-adv-x="1187" d="M20 0v254h91v485h-91v246h490v-133q126 156 303 156q133 0 205 -74.5t72 -214.5v-465h79v-254h-479v590q0 56 -24 87.5t-66 31.5q-40 0 -65 -32t-25 -87v-336h86v-254h-576z" />
<glyph unicode="o" horiz-adv-x="1052" d="M12 492q0 234 141 376t373 142q234 0 374 -141t140 -377t-141 -378.5t-373 -142.5q-234 0 -374 142t-140 379zM416 506q0 -154 22 -218.5t88 -64.5q59 0 85 57.5t26 182.5q0 162 -21.5 229.5t-89.5 67.5q-62 0 -86 -60t-24 -194z" />
<glyph unicode="p" horiz-adv-x="1153" d="M20 -143h105v882h-105v246h494v-84q103 109 256 109q172 0 271.5 -135.5t99.5 -380.5q0 -248 -103 -385.5t-276 -137.5q-126 0 -230 84v-198h105v-250h-617v250zM514 504q0 -138 25 -201t86 -63q114 0 114 247q0 139 -26 204t-86 65q-58 0 -85.5 -62t-27.5 -190z" />
<glyph unicode="q" horiz-adv-x="1153" d="M12 494q0 246 98.5 381t270.5 135q157 0 258 -107v82h494v-246h-105v-882h105v-250h-617v250h102v198q-104 -84 -229 -84q-173 0 -275 138t-102 385zM412 487q0 -247 114 -247q61 0 86 63t25 201q0 129 -26.5 190.5t-84.5 61.5q-61 0 -87.5 -65t-26.5 -204z" />
<glyph unicode="r" horiz-adv-x="796" d="M20 0v254h91v485h-88v246h466v-199q56 224 250 224q18 0 54 -4v-379q-48 10 -80 10q-201 0 -201 -223v-160h92v-254h-584z" />
<glyph unicode="s" horiz-adv-x="808" d="M25 676q0 141 89.5 235.5t227.5 94.5q126 0 227 -76v55h158v-317h-158q-62 118 -170 118q-33 0 -53 -16.5t-20 -42.5q0 -53 86 -74q81 -21 131.5 -37.5t100.5 -43.5t76.5 -60t43 -82.5t16.5 -116.5q0 -161 -88 -251.5t-246 -90.5q-148 0 -251 86v-57h-158v324h158 q62 -136 172 -136q41 0 65.5 19t24.5 49q0 15 -6 26.5t-14.5 19.5t-26 16.5t-32.5 13.5t-43 15t-48 18q-144 56 -203 120.5t-59 190.5z" />
<glyph unicode="t" horiz-adv-x="618" d="M20 739v246h86v307h404v-307h88v-246h-88v-485h88v-254h-492v739h-86z" />
<glyph unicode="u" horiz-adv-x="1187" d="M20 739v246h480v-590q0 -56 24 -86t66 -30q41 0 65.5 31t24.5 85v344h-86v246h487v-731h88v-254h-489v135q-131 -158 -303 -158q-132 0 -203.5 75t-71.5 216v471h-82z" />
<glyph unicode="v" horiz-adv-x="1099" d="M0 739v248h557v-248h-76l99 -258q26 -72 34 -137q7 75 31 133l107 262h-72v248h420v-248h-72l-326 -739h-325l-305 739h-72z" />
<glyph unicode="w" horiz-adv-x="1456" d="M0 739v246h520v-246h-71l45 -182q18 -84 20 -129q9 67 27 123l153 434h193l135 -416q24 -80 29 -141q3 69 24 133l55 178h-69v246h395v-246h-72l-280 -739h-230l-116 326q-22 61 -27 114q-13 -83 -24 -110l-123 -330h-242l-272 739h-70z" />
<glyph unicode="x" horiz-adv-x="876" d="M20 739v246h381l95 -174l122 174h224v-246h-103l-125 -176l160 -311h84v-252h-362l-115 215l-150 -215h-206v252h84l149 215l-133 272h-105z" />
<glyph unicode="y" horiz-adv-x="1099" d="M0 739v246h565v-246h-82l101 -241q30 -72 41 -144q12 91 32 146l91 239h-76v246h428v-246h-76l-383 -882h186v-250h-628v250h186l49 131l-358 751h-76z" />
<glyph unicode="z" horiz-adv-x="931" d="M20 0v252l392 487h-183v-123h-192v369h833v-246l-393 -487h193v127h198v-379h-848z" />
<glyph unicode="{" horiz-adv-x="1024" d="M145 389v283q6 0 18 -1t17 -1q113 0 159 52.5t46 178.5v258q0 116 20.5 177.5t88.5 95.5q54 27 131 36t200 9h80v-285q-9 0 -23 1t-20 1q-91 0 -119 -32t-28 -126v-239q0 -129 -44.5 -186.5t-172.5 -80.5q129 -24 173 -80.5t44 -183.5v-241q0 -92 27.5 -124t117.5 -32 q7 0 22 1t23 1v-285h-80q-124 0 -201 9t-130 36q-68 34 -88.5 94.5t-20.5 176.5v258q0 126 -46 178.5t-159 52.5q-5 0 -17 -1t-18 -1z" />
<glyph unicode="|" horiz-adv-x="1024" d="M373 -483v2048h280v-2048h-280z" />
<glyph unicode="}" horiz-adv-x="1024" d="M121 -131h43q92 0 119.5 31.5t27.5 124.5v241q0 127 44 183.5t173 80.5q-128 23 -172.5 80.5t-44.5 184.5v241q0 94 -28 126t-119 32q-6 0 -20 -1t-23 -1v285h80q124 0 200 -9t129 -36q68 -34 89.5 -96t21.5 -177v-258q0 -126 46 -178.5t159 -52.5q5 0 17 1t18 1v-283 q-6 0 -18 1t-17 1q-113 0 -159 -52.5t-46 -178.5v-258q0 -115 -21.5 -177t-89.5 -96q-51 -26 -125 -34.5t-190 -8.5h-94v283z" />
<glyph unicode="~" horiz-adv-x="1705" d="M178 379v299q225 143 408 143q114 0 278 -53q19 -6 71.5 -24.5t78.5 -26.5t69 -16.5t80 -8.5q166 0 367 150v-299q-198 -133 -371 -133q-105 0 -266 57q-66 23 -106.5 35t-104 23.5t-121.5 11.5q-161 0 -383 -158z" />
<glyph unicode="&#xa1;" horiz-adv-x="749" d="M166 0v463l102 481h230l84 -481v-463h-416zM188 1063v412h371v-412h-371z" />
<glyph unicode="&#xa2;" d="M205 717q0 217 96 353t268 167v176h158v-180q95 -20 162 -90v71h166v-411h-164v12q0 78 -36.5 121t-98.5 43q-76 0 -111 -61.5t-35 -190.5q0 -246 138 -246q51 0 83 30.5t41 88.5h220q-27 -365 -363 -395v-174h-158v176q-174 29 -270 161.5t-96 348.5z" />
<glyph unicode="&#xa3;" d="M117 -25v314h6q182 0 182 182q0 33 -14 152h-174v182h127q-68 180 -68 289q0 169 135.5 277t354.5 108q196 0 325.5 -92.5t186.5 -274.5l-279 -108q-52 184 -168 184q-56 0 -88.5 -40t-32.5 -110q0 -91 64 -233h276v-182h-245q4 -25 4 -70q0 -138 -74 -268 q96 -41 149 -41q68 0 112 48t56 138l310 -49q-43 -217 -147.5 -311.5t-303.5 -94.5q-173 0 -350 103q-148 -103 -334 -103h-10z" />
<glyph unicode="&#xa4;" d="M2 545l37 129h125v22q0 59 2 88h-146l39 129h121q42 266 182.5 416t354.5 150q91 0 160.5 -30.5t130.5 -94.5v94h254v-492h-273q-6 120 -52.5 181t-121.5 61q-80 0 -129.5 -72.5t-62.5 -212.5h374l-39 -129h-344v-110h314l-39 -129h-268q19 -291 192 -291q90 0 132 56 t54 155h297q-8 -104 -41.5 -189.5t-96 -154.5t-164.5 -107.5t-236 -38.5q-245 0 -397.5 149.5t-186.5 420.5h-172z" />
<glyph unicode="&#xa5;" horiz-adv-x="1384" d="M61 1147v309h613v-309h-99l187 -299l178 299h-94v309h477v-309h-88l-86 -143h149v-166h-251l-62 -99h313v-166h-399v-251h156v-322h-709v322h156v251h-418v166h328l-64 99h-264v166h160l-94 143h-89z" />
<glyph unicode="&#xa6;" horiz-adv-x="1024" d="M373 -350v758h280v-758h-280zM373 674v758h280v-758h-280z" />
<glyph unicode="&#xa7;" horiz-adv-x="1138" d="M66 713q0 209 247 297q-55 75 -55 204q0 58 31 112t86 89q57 38 124.5 49t170.5 11h286v-381h-243v159h-51q-63 0 -92 -18t-29 -61q0 -8 2 -17t4 -16.5t7.5 -17t9.5 -16t13.5 -17.5t14.5 -17.5t17.5 -19.5t19 -19.5t21.5 -22t22 -22.5l250 -256q73 -76 111 -160t38 -165 q0 -100 -54.5 -165t-172.5 -108q74 -129 74 -227q0 -55 -26.5 -105.5t-74.5 -85.5q-39 -28 -90.5 -42t-93 -16.5t-115.5 -2.5h-323v379h239v-152h70q57 0 81.5 12t24.5 44t-28 73.5t-90 104.5l-238 245q-97 98 -142.5 178t-45.5 173zM346 711q0 -45 55 -103l162 -168 q47 -48 79 -70t65 -22q34 0 56.5 23.5t22.5 58.5q0 54 -77 131l-174 172q-32 32 -54.5 46t-50.5 14q-38 0 -61 -22t-23 -60z" />
<glyph unicode="&#xa8;" horiz-adv-x="1024" d="M205 1153v270h250v-270h-250zM567 1153v270h252v-270h-252z" />
<glyph unicode="&#xa9;" horiz-adv-x="1705" d="M102 741q0 150 57.5 288.5t166.5 248.5q103 104 238 159.5t288 55.5q154 0 292 -56t245 -163q104 -104 160.5 -242.5t56.5 -290.5q0 -315 -217 -526q-110 -108 -249.5 -166.5t-287.5 -58.5q-305 0 -528 223q-108 108 -165 243.5t-57 284.5zM256 743q0 -245 176 -421 q177 -177 422 -177q244 0 426 179q172 169 172 419q0 121 -45 229.5t-129 192.5q-176 176 -424 176q-251 0 -420 -172q-86 -88 -132 -197.5t-46 -228.5zM440 737q0 202 112.5 324.5t287.5 122.5q178 0 279.5 -80t109.5 -221h-242q-3 63 -38 99t-93 36q-72 0 -114 -71 t-42 -202q0 -262 164 -262q121 0 127 144h248q-6 -149 -109 -237.5t-272 -88.5q-195 0 -306.5 116t-111.5 320z" />
<glyph unicode="&#xaa;" horiz-adv-x="843" d="M41 1001q0 115 73.5 179.5t202.5 64.5q96 0 166 -47v19q0 54 -34.5 79t-106.5 25q-102 0 -207 -45l-49 162q138 53 307 53q195 0 281 -71t86 -226v-231h59v-179h-340v56q-71 -74 -196 -74q-114 0 -178 62.5t-64 172.5zM330 1016q0 -43 21 -65.5t59 -22.5q79 0 79 90 q0 43 -19.5 66.5t-55.5 23.5q-40 0 -62 -24t-22 -68z" />
<glyph unicode="&#xab;" horiz-adv-x="827" d="M82 487l205 435l174 -84l-156 -351l156 -346l-174 -84zM414 487l204 435l175 -84l-156 -351l156 -346l-175 -84z" />
<glyph unicode="&#xac;" horiz-adv-x="1705" d="M254 602v266h1198v-501h-272v235h-926z" />
<glyph unicode="&#xad;" horiz-adv-x="860" d="M139 303v375h582v-375h-582z" />
<glyph unicode="&#xae;" horiz-adv-x="1705" d="M102 741q0 150 57.5 288.5t166.5 248.5q103 104 238 159.5t288 55.5q154 0 292 -56t245 -163q104 -104 160.5 -242.5t56.5 -290.5q0 -315 -217 -526q-110 -108 -249.5 -166.5t-287.5 -58.5q-305 0 -528 223q-108 108 -165 243.5t-57 284.5zM256 743q0 -245 176 -421 q177 -177 422 -177q244 0 426 179q172 169 172 419q0 121 -45 229.5t-129 192.5q-176 176 -424 176q-251 0 -420 -172q-86 -88 -132 -197.5t-46 -228.5zM528 352v813h334q176 0 266.5 -61.5t90.5 -177.5q0 -77 -42.5 -134t-121.5 -85l178 -355h-279l-145 312h-25v-312h-256z M784 813h54q118 0 118 98q0 49 -32.5 72t-100.5 23h-39v-193z" />
<glyph unicode="&#xaf;" horiz-adv-x="1024" d="M205 1204v170h614v-170h-614z" />
<glyph unicode="&#xb0;" horiz-adv-x="673" d="M14 1149q0 134 95.5 229t228.5 95q134 0 227.5 -94.5t93.5 -229.5q0 -131 -94.5 -226.5t-228.5 -95.5t-228 93.5t-94 228.5zM186 1151q0 -64 44 -109t108 -45q62 0 106.5 46t44.5 108t-45 107t-108 45q-62 0 -106 -44.5t-44 -107.5z" />
<glyph unicode="&#xb1;" horiz-adv-x="1705" d="M254 -41v272h1198v-272h-1198zM254 680v272h459v310h280v-310h459v-272h-459v-309h-280v309h-459z" />
<glyph unicode="&#xb2;" horiz-adv-x="864" d="M37 582v16q0 91 49.5 172.5t153.5 177.5q47 44 110 95t70 57q36 29 51.5 51.5t15.5 52.5q0 40 -26 64t-70 24q-110 0 -110 -151v-4l-222 10q10 155 108 238t269 83q156 0 247 -73t91 -199q0 -84 -49 -143t-158 -125q-16 -10 -71.5 -42.5t-95 -60t-74.5 -59.5h268v119h180 v-303h-737z" />
<glyph unicode="&#xb3;" horiz-adv-x="864" d="M49 846l215 33q18 -134 139 -134q51 0 81 25.5t30 67.5q0 46 -42.5 72t-119.5 26h-33v174h23q158 0 158 98q0 37 -27 59.5t-70 22.5q-105 0 -131 -127l-206 41q41 127 136.5 194.5t233.5 67.5q153 0 244.5 -69.5t91.5 -177.5q0 -78 -45.5 -126t-128.5 -55q95 -4 149 -61 t54 -152q0 -118 -99 -189t-268 -71q-173 0 -270.5 71.5t-114.5 209.5z" />
<glyph unicode="&#xb4;" horiz-adv-x="1024" d="M338 1104l192 371h287l-325 -371h-154z" />
<glyph unicode="&#xb5;" horiz-adv-x="1372" d="M-29 -422l209 1509h422l-84 -614q-4 -36 -4 -53q0 -133 127 -133q79 0 124 52.5t60 160.5l84 587h418l-158 -1087h-368l18 131q-72 -135 -188 -135q-123 0 -176 125l-72 -543h-412z" />
<glyph unicode="&#xb6;" horiz-adv-x="1024" d="M10 1130q0 156 105.5 252.5t283.5 96.5h615v-142h-101v-1337h-202v1337h-140v-1337h-202v784q-164 7 -261.5 102.5t-97.5 243.5z" />
<glyph unicode="&#xb7;" horiz-adv-x="653" d="M121 729q0 86 60.5 146.5t146.5 60.5t145 -61t59 -146q0 -86 -59 -145.5t-145 -59.5t-146.5 59.5t-60.5 145.5z" />
<glyph unicode="&#xb8;" horiz-adv-x="1024" d="M248 -301q162 -45 270 -45q86 0 86 72q0 63 -119 63q-35 0 -55 -2v213h115v-84h18q112 0 172 -50t60 -142q0 -99 -67 -154t-189 -55q-117 0 -291 47v137z" />
<glyph unicode="&#xb9;" horiz-adv-x="864" d="M211 582v168h92v542h-92v164h358v-706h95v-168h-453z" />
<glyph unicode="&#xba;" horiz-adv-x="841" d="M35 1128q0 164 106 263.5t281 99.5t280 -98.5t105 -264.5q0 -165 -105.5 -264.5t-279.5 -99.5q-177 0 -282 99t-105 265zM338 1139q0 -108 17 -153.5t67 -45.5q44 0 63 40.5t19 127.5q0 114 -15.5 161.5t-66.5 47.5q-48 0 -66 -41.5t-18 -136.5z" />
<glyph unicode="&#xbb;" horiz-adv-x="827" d="M55 143l156 351l-156 344l174 84l205 -428l-205 -437zM387 143l156 351l-156 344l176 84l203 -428l-203 -437z" />
<glyph unicode="&#xbc;" horiz-adv-x="1990" d="M201 639v158h88v506h-88v151h344v-657h88v-158h-432zM483 -25l807 1504h217l-805 -1504h-219zM1190 233v164l407 418h232v-418h141v-164h-141v-75h88v-158h-434v158h90v75h-383zM1382 397h191v197z" />
<glyph unicode="&#xbd;" horiz-adv-x="1990" d="M201 639v158h88v506h-88v151h344v-657h88v-158h-432zM483 -25l807 1504h217l-805 -1504h-219zM1204 0v16q0 85 47 161.5t146 164.5q44 39 103.5 86t68.5 55q33 28 48 49.5t15 49.5q0 37 -24.5 59.5t-65.5 22.5q-106 0 -106 -142v-4l-211 10q9 144 102.5 221.5t255.5 77.5 q149 0 235.5 -68.5t86.5 -185.5q0 -79 -46 -133t-149 -118q-17 -10 -54.5 -31t-61.5 -35t-56.5 -37t-58.5 -47h256v111h170v-283h-701z" />
<glyph unicode="&#xbe;" horiz-adv-x="1990" d="M47 885l205 33q18 -125 133 -125q49 0 76.5 23t27.5 61q0 44 -39.5 69t-113.5 25q-21 0 -31 -2v164h21q151 0 151 92q0 34 -25.5 54.5t-66.5 20.5q-50 0 -82 -31t-43 -87l-197 39q38 118 129.5 180.5t223.5 62.5q147 0 234 -64.5t87 -166.5q0 -73 -43.5 -116.5 t-122.5 -51.5q91 -5 143 -57.5t52 -141.5q0 -110 -94.5 -175.5t-257.5 -65.5q-166 0 -259 65.5t-108 194.5zM483 -25l807 1504h217l-805 -1504h-219zM1190 233v164l407 418h232v-418h141v-164h-141v-75h88v-158h-434v158h90v75h-383zM1382 397h191v197z" />
<glyph unicode="&#xbf;" horiz-adv-x="1048" d="M78 428q0 191 101.5 303t275.5 115v98h262v-274q-121 -28 -175.5 -97.5t-54.5 -193.5q0 -152 103 -152q61 0 80.5 50.5t19.5 179.5h295q2 -23 2 -66q0 -204 -114.5 -314t-329.5 -110q-204 0 -334.5 128.5t-130.5 332.5zM403 1063v412h371v-412h-371z" />
<glyph unicode="&#xc0;" horiz-adv-x="1521" d="M88 0v319h107l254 840h-113v316h878v-316h-112l223 -840h109v-319h-656v319h137l-30 130h-357l-36 -130h131v-319h-535zM420 1972h287l192 -370h-154zM618 750h203l-67 284q-12 51 -25 135q-10 -61 -31 -135z" />
<glyph unicode="&#xc1;" horiz-adv-x="1521" d="M88 0v319h107l254 840h-113v316h878v-316h-112l223 -840h109v-319h-656v319h137l-30 130h-357l-36 -130h131v-319h-535zM551 1602l192 371h287l-325 -371h-154zM618 750h203l-67 284q-12 51 -25 135q-10 -61 -31 -135z" />
<glyph unicode="&#xc2;" horiz-adv-x="1521" d="M88 0v319h107l254 840h-113v316h878v-316h-112l223 -840h109v-319h-656v319h137l-30 130h-357l-36 -130h131v-319h-535zM403 1602l193 370h256l192 -370h-153l-166 198l-168 -198h-154zM618 750h203l-67 284q-12 51 -25 135q-10 -61 -31 -135z" />
<glyph unicode="&#xc3;" horiz-adv-x="1521" d="M88 0v319h107l254 840h-113v316h878v-316h-112l223 -840h109v-319h-656v319h137l-30 130h-357l-36 -130h131v-319h-535zM393 1647q28 125 80 185.5t135 60.5q34 0 90 -15l95 -28q27 -9 57 -9q67 0 88 87h119q-30 -131 -82 -192.5t-137 -61.5q-36 0 -76 12l-92 26 q-50 13 -68 13q-64 0 -90 -78h-119zM618 750h203l-67 284q-12 51 -25 135q-10 -61 -31 -135z" />
<glyph unicode="&#xc4;" horiz-adv-x="1521" d="M88 0v319h107l254 840h-113v316h878v-316h-112l223 -840h109v-319h-656v319h137l-30 130h-357l-36 -130h131v-319h-535zM418 1651v270h250v-270h-250zM618 750h203l-67 284q-12 51 -25 135q-10 -61 -31 -135zM780 1651v270h252v-270h-252z" />
<glyph unicode="&#xc5;" horiz-adv-x="1349" d="M2 0v319h107l253 828h-112v280h878v-280h-112l223 -828h109v-319h-656v319h137l-30 130h-357l-36 -130h131v-319h-535zM442 1735q0 100 69.5 168.5t170.5 68.5q103 0 172.5 -68t69.5 -169t-70.5 -172.5t-171.5 -71.5t-170.5 71t-69.5 173zM532 750h203l-67 284 q-12 51 -25 135q-10 -61 -31 -135zM588 1733q0 -39 28 -67t66 -28q40 0 68 27.5t28 67.5t-28 68t-68 28t-67 -28t-27 -68z" />
<glyph unicode="&#xc6;" horiz-adv-x="1882" d="M16 0v326h111l311 821h-104v328h1468v-564h-276v236h-258v-229h172v-353h-172v-237h258v260h276v-588h-1079v326h117v120h-346l-43 -120h122v-326h-557zM598 752h242v395h-109z" />
<glyph unicode="&#xc7;" horiz-adv-x="1280" d="M45 711q0 176 44 325.5t120.5 251.5t181 159.5t223.5 57.5q187 0 306 -125v95h254v-576h-273v8q0 131 -44 199t-128 68q-101 0 -143.5 -105t-42.5 -332q0 -214 43 -311.5t145 -97.5q73 0 120 56.5t60 164.5h297q-3 -282 -147 -433t-408 -151q-278 0 -443 203t-165 543z M373 -301q162 -45 270 -45q86 0 86 72q0 63 -119 63q-35 0 -55 -2v213h115v-84h18q112 0 172 -50t60 -142q0 -99 -67 -154t-189 -55q-117 0 -291 47v137z" />
<glyph unicode="&#xc8;" d="M78 0v324h121v835h-121v316h1155v-564h-289v236h-295v-229h205v-353h-205v-237h295v260h289v-588h-1155zM354 1972h287l193 -370h-154z" />
<glyph unicode="&#xc9;" d="M78 0v324h121v835h-121v316h1155v-564h-289v236h-295v-229h205v-353h-205v-237h295v260h289v-588h-1155zM485 1602l193 370h287l-326 -370h-154z" />
<glyph unicode="&#xca;" d="M78 0v324h121v835h-121v316h1155v-564h-289v236h-295v-229h205v-353h-205v-237h295v260h289v-588h-1155zM338 1602l192 370h256l193 -370h-154l-166 198l-167 -198h-154z" />
<glyph unicode="&#xcb;" d="M78 0v324h121v835h-121v316h1155v-564h-289v236h-295v-229h205v-353h-205v-237h295v260h289v-588h-1155zM352 1651v270h250v-270h-250zM715 1651v270h252v-270h-252z" />
<glyph unicode="&#xcc;" horiz-adv-x="825" d="M78 0v324h121v835h-121v316h678v-316h-121v-835h121v-324h-678zM109 1972h286l193 -370h-154z" />
<glyph unicode="&#xcd;" horiz-adv-x="825" d="M78 0v324h121v835h-121v316h678v-316h-121v-835h121v-324h-678zM240 1602l192 370h287l-326 -370h-153z" />
<glyph unicode="&#xce;" horiz-adv-x="825" d="M78 0v324h121v835h-121v316h678v-316h-121v-835h121v-324h-678zM92 1602l193 370h256l192 -370h-153l-166 198l-168 -198h-154z" />
<glyph unicode="&#xcf;" horiz-adv-x="825" d="M78 0v324h121v835h-121v316h678v-316h-121v-835h121v-324h-678zM106 1651v270h250v-270h-250zM469 1651v270h252v-270h-252z" />
<glyph unicode="&#xd0;" horiz-adv-x="1435" d="M16 606v285h183v268h-121v316h641q319 0 489 -188.5t170 -545.5q0 -351 -177 -546t-482 -195h-641v324h121v282h-183zM621 324q8 0 23 -1t22 -1q69 0 116.5 16.5t78 47.5t47.5 86.5t23.5 122t6.5 165.5q0 219 -61.5 309t-221.5 90h-34v-268h161v-285h-161v-282z" />
<glyph unicode="&#xd1;" horiz-adv-x="1417" d="M78 0v324h121v835h-121v316h540l351 -676q34 -66 63 -162q-10 117 -10 219v303h-119v316h498v-316h-119v-1159h-369l-356 686q-51 98 -76 188q11 -143 11 -231v-319h118v-324h-532zM377 1647q28 125 80 185t135 60q38 0 90 -14l94 -29q24 -8 58 -8q67 0 88 86h118 q-30 -131 -82 -192.5t-137 -61.5q-32 0 -76 13l-92 26q-47 12 -67 12q-64 0 -90 -77h-119z" />
<glyph unicode="&#xd2;" horiz-adv-x="1478" d="M45 721q0 358 188 572t498 214q323 0 513 -210t190 -570q0 -158 -48.5 -296.5t-138.5 -242.5q-99 -114 -225 -167.5t-289 -53.5q-157 0 -277 51t-220 160q-191 209 -191 543zM434 1972h287l192 -370h-153zM549 737q0 -247 39 -352.5t151 -105.5q47 0 80 18.5t54 52.5 t33.5 92t17 127t4.5 168t-4.5 168t-17 127t-33.5 92.5t-54 53t-80 18.5q-112 0 -151 -106t-39 -353z" />
<glyph unicode="&#xd3;" horiz-adv-x="1478" d="M45 721q0 358 188 572t498 214q323 0 513 -210t190 -570q0 -158 -48.5 -296.5t-138.5 -242.5q-99 -114 -225 -167.5t-289 -53.5q-157 0 -277 51t-220 160q-191 209 -191 543zM549 737q0 -247 39 -352.5t151 -105.5q47 0 80 18.5t54 52.5t33.5 92t17 127t4.5 168t-4.5 168 t-17 127t-33.5 92.5t-54 53t-80 18.5q-112 0 -151 -106t-39 -353zM565 1602l192 371h287l-325 -371h-154z" />
<glyph unicode="&#xd4;" horiz-adv-x="1478" d="M45 721q0 358 188 572t498 214q323 0 513 -210t190 -570q0 -158 -48.5 -296.5t-138.5 -242.5q-99 -114 -225 -167.5t-289 -53.5q-157 0 -277 51t-220 160q-191 209 -191 543zM418 1602l192 370h256l193 -370h-154l-166 198l-168 -198h-153zM549 737q0 -247 39 -352.5 t151 -105.5q47 0 80 18.5t54 52.5t33.5 92t17 127t4.5 168t-4.5 168t-17 127t-33.5 92.5t-54 53t-80 18.5q-112 0 -151 -106t-39 -353z" />
<glyph unicode="&#xd5;" horiz-adv-x="1478" d="M45 721q0 358 188 572t498 214q323 0 513 -210t190 -570q0 -158 -48.5 -296.5t-138.5 -242.5q-99 -114 -225 -167.5t-289 -53.5q-157 0 -277 51t-220 160q-191 209 -191 543zM407 1647q28 125 80 185.5t135 60.5q34 0 90 -15l95 -28q27 -9 57 -9q67 0 88 87h119 q-30 -131 -82 -192.5t-137 -61.5q-36 0 -76 12l-92 26q-50 13 -68 13q-64 0 -90 -78h-119zM549 737q0 -247 39 -352.5t151 -105.5q47 0 80 18.5t54 52.5t33.5 92t17 127t4.5 168t-4.5 168t-17 127t-33.5 92.5t-54 53t-80 18.5q-112 0 -151 -106t-39 -353z" />
<glyph unicode="&#xd6;" horiz-adv-x="1478" d="M45 721q0 358 188 572t498 214q323 0 513 -210t190 -570q0 -158 -48.5 -296.5t-138.5 -242.5q-99 -114 -225 -167.5t-289 -53.5q-157 0 -277 51t-220 160q-191 209 -191 543zM432 1651v270h250v-270h-250zM549 737q0 -247 39 -352.5t151 -105.5q47 0 80 18.5t54 52.5 t33.5 92t17 127t4.5 168t-4.5 168t-17 127t-33.5 92.5t-54 53t-80 18.5q-112 0 -151 -106t-39 -353zM794 1651v270h252v-270h-252z" />
<glyph unicode="&#xd7;" horiz-adv-x="1705" d="M254 184l426 426l-426 426l195 195l425 -426l426 426l195 -195l-426 -426l426 -426l-195 -194l-426 426l-425 -426z" />
<glyph unicode="&#xd8;" horiz-adv-x="1509" d="M61 731q0 350 191 564t498 214q169 0 346 -86l112 174h293l-215 -327q164 -205 164 -520q0 -361 -195.5 -574t-525.5 -213q-128 0 -256 49l-127 -198h-280l206 342q-211 205 -211 575zM565 737q0 -247 39.5 -352.5t151.5 -105.5q47 0 79.5 18.5t54 52.5t33.5 92t16.5 127 t4.5 168t-4.5 168t-16.5 127.5t-33.5 92.5t-54 52.5t-79.5 18.5q-112 0 -151.5 -106t-39.5 -353z" />
<glyph unicode="&#xd9;" horiz-adv-x="1421" d="M74 1159v316h663v-316h-98v-715q0 -79 40.5 -122t115.5 -43q72 0 110.5 42.5t38.5 120.5v717h-98v316h518v-316h-109v-715q0 -243 -124.5 -362t-380.5 -119q-286 0 -427 125.5t-141 380.5v690h-108zM416 1972h286l193 -370h-154z" />
<glyph unicode="&#xda;" horiz-adv-x="1421" d="M74 1159v316h663v-316h-98v-715q0 -79 40.5 -122t115.5 -43q72 0 110.5 42.5t38.5 120.5v717h-98v316h518v-316h-109v-715q0 -243 -124.5 -362t-380.5 -119q-286 0 -427 125.5t-141 380.5v690h-108zM547 1602l192 370h287l-326 -370h-153z" />
<glyph unicode="&#xdb;" horiz-adv-x="1421" d="M74 1159v316h663v-316h-98v-715q0 -79 40.5 -122t115.5 -43q72 0 110.5 42.5t38.5 120.5v717h-98v316h518v-316h-109v-715q0 -243 -124.5 -362t-380.5 -119q-286 0 -427 125.5t-141 380.5v690h-108zM399 1602l193 370h256l192 -370h-153l-166 198l-168 -198h-154z" />
<glyph unicode="&#xdc;" horiz-adv-x="1421" d="M74 1159v316h663v-316h-98v-715q0 -79 40.5 -122t115.5 -43q72 0 110.5 42.5t38.5 120.5v717h-98v316h518v-316h-109v-715q0 -243 -124.5 -362t-380.5 -119q-286 0 -427 125.5t-141 380.5v690h-108zM414 1651v270h250v-270h-250zM776 1651v270h252v-270h-252z" />
<glyph unicode="&#xdd;" horiz-adv-x="1384" d="M12 1161v314h693v-314h-101l166 -278l160 278h-96v314h505v-314h-90l-340 -553v-284h158v-324h-764v324h156v284l-357 553h-90zM518 1602l193 370h286l-325 -370h-154z" />
<glyph unicode="&#xde;" horiz-adv-x="1359" d="M63 0v324h121v835h-121v316h699v-301h-123v-105h166q245 0 373.5 -85.5t128.5 -240.5q0 -165 -138.5 -251t-408.5 -86h-121v-97h123v-309h-699zM639 621h33q194 0 194 120q0 107 -192 107h-35v-227z" />
<glyph unicode="&#xdf;" horiz-adv-x="1386" d="M86 0v252h86v788q0 217 123 321.5t379 104.5q234 0 364.5 -96t130.5 -262q0 -99 -48 -173t-138 -112v-16q311 -102 311 -420q0 -184 -116 -301t-299 -117q-80 0 -195 31v227q5 0 15.5 -1t15.5 -1q95 0 136.5 50t41.5 161q0 132 -48 200.5t-140 68.5h-21v202q63 4 96 45 t33 115q0 57 -34.5 94t-88.5 37q-50 0 -78 -33.5t-28 -93.5v-1071h-498z" />
<glyph unicode="&#xe0;" horiz-adv-x="1075" d="M18 309q0 164 98 257t269 93q128 0 221 -69q0 4 1 13t1 13q0 78 -46.5 115t-143.5 37q-131 0 -275 -66l-65 232q192 76 409 76q259 0 374.5 -102t115.5 -322v-332h78v-254h-453v80q-94 -107 -262 -107q-152 0 -237 89t-85 247zM258 1475h287l192 -371h-153zM403 332 q0 -62 27.5 -94.5t79.5 -32.5q106 0 106 129q0 62 -26.5 95.5t-75.5 33.5q-53 0 -82 -34t-29 -97z" />
<glyph unicode="&#xe1;" horiz-adv-x="1075" d="M18 309q0 164 98 257t269 93q128 0 221 -69q0 4 1 13t1 13q0 78 -46.5 115t-143.5 37q-131 0 -275 -66l-65 232q192 76 409 76q259 0 374.5 -102t115.5 -322v-332h78v-254h-453v80q-94 -107 -262 -107q-152 0 -237 89t-85 247zM389 1104l192 371h287l-325 -371h-154z M403 332q0 -62 27.5 -94.5t79.5 -32.5q106 0 106 129q0 62 -26.5 95.5t-75.5 33.5q-53 0 -82 -34t-29 -97z" />
<glyph unicode="&#xe2;" horiz-adv-x="1075" d="M18 309q0 164 98 257t269 93q128 0 221 -69q0 4 1 13t1 13q0 78 -46.5 115t-143.5 37q-131 0 -275 -66l-65 232q192 76 409 76q259 0 374.5 -102t115.5 -322v-332h78v-254h-453v80q-94 -107 -262 -107q-152 0 -237 89t-85 247zM242 1104l192 371h256l193 -371h-154 l-166 199l-168 -199h-153zM403 332q0 -62 27.5 -94.5t79.5 -32.5q106 0 106 129q0 62 -26.5 95.5t-75.5 33.5q-53 0 -82 -34t-29 -97z" />
<glyph unicode="&#xe3;" horiz-adv-x="1075" d="M18 309q0 164 98 257t269 93q128 0 221 -69q0 4 1 13t1 13q0 78 -46.5 115t-143.5 37q-131 0 -275 -66l-65 232q192 76 409 76q259 0 374.5 -102t115.5 -322v-332h78v-254h-453v80q-94 -107 -262 -107q-152 0 -237 89t-85 247zM231 1149q28 125 80 185.5t135 60.5 q34 0 90 -15l95 -28q27 -9 57 -9q67 0 88 87h119q-30 -131 -82 -192.5t-137 -61.5q-36 0 -76 12l-92 26q-50 13 -68 13q-64 0 -90 -78h-119zM403 332q0 -62 27.5 -94.5t79.5 -32.5q106 0 106 129q0 62 -26.5 95.5t-75.5 33.5q-53 0 -82 -34t-29 -97z" />
<glyph unicode="&#xe4;" horiz-adv-x="1075" d="M18 309q0 164 98 257t269 93q128 0 221 -69q0 4 1 13t1 13q0 78 -46.5 115t-143.5 37q-131 0 -275 -66l-65 232q192 76 409 76q259 0 374.5 -102t115.5 -322v-332h78v-254h-453v80q-94 -107 -262 -107q-152 0 -237 89t-85 247zM256 1153v270h250v-270h-250zM403 332 q0 -62 27.5 -94.5t79.5 -32.5q106 0 106 129q0 62 -26.5 95.5t-75.5 33.5q-53 0 -82 -34t-29 -97zM618 1153v270h252v-270h-252z" />
<glyph unicode="&#xe5;" horiz-adv-x="1124" d="M55 309q0 164 98 257t269 93q128 0 221 -69q0 4 1 13t1 13q0 78 -46.5 115t-143.5 37q-131 0 -275 -66l-65 232q192 76 409 76q259 0 374.5 -102t115.5 -322v-332h78v-254h-453v80q-94 -107 -262 -107q-152 0 -237 89t-85 247zM313 1315q0 100 69.5 169.5t170.5 69.5 q103 0 171.5 -69t68.5 -170t-69.5 -171.5t-170.5 -70.5t-170.5 70.5t-69.5 171.5zM440 332q0 -62 27.5 -94.5t79.5 -32.5q106 0 106 129q0 62 -26.5 95.5t-75.5 33.5q-53 0 -82 -34t-29 -97zM457 1315q0 -39 28.5 -67.5t67.5 -28.5q40 0 68 28t28 68t-28 68t-68 28t-68 -28 t-28 -68z" />
<glyph unicode="&#xe6;" horiz-adv-x="1607" d="M45 307q0 160 100 253t271 93q125 0 219 -69q0 4 1 12t1 12q0 154 -188 154q-121 0 -277 -68l-66 236q216 82 429 82q116 0 187.5 -24.5t111.5 -82.5q120 105 280 105q213 0 334 -137.5t121 -385.5q0 -44 -2 -67h-566v-27q0 -182 119 -182q45 0 76 32.5t41 92.5h317 q-15 -165 -137.5 -264t-312.5 -99q-220 0 -350 133q-116 -137 -351 -137q-171 0 -264.5 89t-93.5 249zM432 328q0 -61 28 -93t79 -32q52 0 80 32.5t28 94.5q0 129 -110 129q-48 0 -76.5 -35t-28.5 -96zM1001 602h222v25q0 166 -107 166q-112 0 -115 -191z" />
<glyph unicode="&#xe7;" horiz-adv-x="927" d="M12 483q0 242 121.5 384.5t319.5 142.5q157 0 243 -99v74h166v-410h-164v7q0 82 -35.5 126t-99.5 44q-76 0 -110.5 -62.5t-34.5 -191.5q0 -246 137 -246q51 0 83.5 31.5t41.5 89.5h219q-12 -195 -121 -298.5t-303 -103.5q-214 0 -338.5 137.5t-124.5 374.5zM205 -301 q162 -45 270 -45q86 0 86 72q0 63 -119 63q-35 0 -55 -2v213h115v-84h18q112 0 172 -50t60 -142q0 -99 -67 -154t-189 -55q-117 0 -291 47v137z" />
<glyph unicode="&#xe8;" horiz-adv-x="970" d="M12 492q0 242 128 380t349 138q222 0 345.5 -137t123.5 -388q0 -44 -2 -67h-563v-27q0 -182 119 -182q45 0 76 32.5t41 92.5h317q-15 -164 -137 -263.5t-311 -99.5q-228 0 -357 138t-129 383zM156 1475h286l193 -371h-154zM387 600h225v27q0 168 -106 168 q-56 0 -87 -49.5t-32 -145.5z" />
<glyph unicode="&#xe9;" horiz-adv-x="970" d="M12 492q0 242 128 380t349 138q222 0 345.5 -137t123.5 -388q0 -44 -2 -67h-563v-27q0 -182 119 -182q45 0 76 32.5t41 92.5h317q-15 -164 -137 -263.5t-311 -99.5q-228 0 -357 138t-129 383zM287 1104l192 371h287l-325 -371h-154zM387 600h225v27q0 168 -106 168 q-56 0 -87 -49.5t-32 -145.5z" />
<glyph unicode="&#xea;" horiz-adv-x="970" d="M12 492q0 242 128 380t349 138q222 0 345.5 -137t123.5 -388q0 -44 -2 -67h-563v-27q0 -182 119 -182q45 0 76 32.5t41 92.5h317q-15 -164 -137 -263.5t-311 -99.5q-228 0 -357 138t-129 383zM139 1104l193 371h256l192 -371h-153l-166 199l-168 -199h-154zM387 600h225 v27q0 168 -106 168q-56 0 -87 -49.5t-32 -145.5z" />
<glyph unicode="&#xeb;" horiz-adv-x="970" d="M12 492q0 242 128 380t349 138q222 0 345.5 -137t123.5 -388q0 -44 -2 -67h-563v-27q0 -182 119 -182q45 0 76 32.5t41 92.5h317q-15 -164 -137 -263.5t-311 -99.5q-228 0 -357 138t-129 383zM154 1153v270h250v-270h-250zM387 600h225v27q0 168 -106 168 q-56 0 -87 -49.5t-32 -145.5zM516 1153v270h252v-270h-252z" />
<glyph unicode="&#xec;" horiz-adv-x="675" d="M31 1475h286l193 -371h-154zM33 739v246h518v-731h86v-254h-586v254h99v485h-117z" />
<glyph unicode="&#xed;" horiz-adv-x="675" d="M33 739v246h518v-731h86v-254h-586v254h99v485h-117zM162 1104l192 371h287l-325 -371h-154z" />
<glyph unicode="&#xee;" horiz-adv-x="675" d="M14 1104l193 371h256l192 -371h-153l-166 199l-168 -199h-154zM33 739v246h518v-731h86v-254h-586v254h99v485h-117z" />
<glyph unicode="&#xef;" horiz-adv-x="675" d="M29 1153v270h250v-270h-250zM33 739v246h518v-731h86v-254h-586v254h99v485h-117zM391 1153v270h252v-270h-252z" />
<glyph unicode="&#xf0;" horiz-adv-x="1128" d="M49 492q0 239 154 387q61 59 143 93t160 34q24 0 88 -11q-49 83 -94 150l-299 -109l-54 142l265 94q-110 117 -156 166l160 78q103 -64 219 -160l235 88l52 -144l-170 -61q327 -348 327 -731q0 -245 -141.5 -391t-376.5 -146q-234 0 -373 142t-139 379zM451 506 q0 -76 4.5 -125t16 -87t33.5 -54.5t56 -16.5q60 0 85.5 59t25.5 187q0 158 -22 224.5t-89 66.5q-62 0 -86 -60t-24 -194z" />
<glyph unicode="&#xf1;" horiz-adv-x="1187" d="M20 0v254h91v485h-91v246h490v-133q126 156 303 156q133 0 205 -74.5t72 -214.5v-465h79v-254h-479v590q0 56 -24 87.5t-66 31.5q-40 0 -65 -32t-25 -87v-336h86v-254h-576zM252 1149q28 125 80 185.5t135 60.5q35 0 90 -15l95 -28q27 -9 57 -9q67 0 88 87h119 q-30 -131 -82 -192.5t-137 -61.5q-35 0 -76 12l-92 26q-50 13 -68 13q-64 0 -90 -78h-119z" />
<glyph unicode="&#xf2;" horiz-adv-x="1052" d="M12 492q0 234 141 376t373 142q234 0 374 -141t140 -377t-141 -378.5t-373 -142.5q-234 0 -374 142t-140 379zM242 1475h286l193 -371h-154zM416 506q0 -154 22 -218.5t88 -64.5q59 0 85 57.5t26 182.5q0 162 -21.5 229.5t-89.5 67.5q-62 0 -86 -60t-24 -194z" />
<glyph unicode="&#xf3;" horiz-adv-x="1052" d="M12 492q0 234 141 376t373 142q234 0 374 -141t140 -377t-141 -378.5t-373 -142.5q-234 0 -374 142t-140 379zM373 1104l192 371h287l-325 -371h-154zM416 506q0 -154 22 -218.5t88 -64.5q59 0 85 57.5t26 182.5q0 162 -21.5 229.5t-89.5 67.5q-62 0 -86 -60t-24 -194z " />
<glyph unicode="&#xf4;" horiz-adv-x="1052" d="M12 492q0 234 141 376t373 142q234 0 374 -141t140 -377t-141 -378.5t-373 -142.5q-234 0 -374 142t-140 379zM225 1104l193 371h256l192 -371h-153l-166 199l-168 -199h-154zM416 506q0 -154 22 -218.5t88 -64.5q59 0 85 57.5t26 182.5q0 162 -21.5 229.5t-89.5 67.5 q-62 0 -86 -60t-24 -194z" />
<glyph unicode="&#xf5;" horiz-adv-x="1052" d="M12 492q0 234 141 376t373 142q234 0 374 -141t140 -377t-141 -378.5t-373 -142.5q-234 0 -374 142t-140 379zM215 1149q28 125 80 185.5t135 60.5q34 0 90 -15l95 -28q27 -9 57 -9q67 0 88 87h119q-30 -131 -82 -192.5t-137 -61.5q-36 0 -76 12l-92 26q-50 13 -68 13 q-64 0 -90 -78h-119zM416 506q0 -154 22 -218.5t88 -64.5q59 0 85 57.5t26 182.5q0 162 -21.5 229.5t-89.5 67.5q-62 0 -86 -60t-24 -194z" />
<glyph unicode="&#xf6;" horiz-adv-x="1052" d="M12 492q0 234 141 376t373 142q234 0 374 -141t140 -377t-141 -378.5t-373 -142.5q-234 0 -374 142t-140 379zM240 1153v270h250v-270h-250zM416 506q0 -154 22 -218.5t88 -64.5q59 0 85 57.5t26 182.5q0 162 -21.5 229.5t-89.5 67.5q-62 0 -86 -60t-24 -194zM602 1153 v270h252v-270h-252z" />
<glyph unicode="&#xf7;" horiz-adv-x="1705" d="M254 475v273h1198v-273h-1198zM670 188q0 77 54 130t130 53q74 0 128 -54t54 -129q0 -73 -53.5 -127.5t-130.5 -54.5q-76 0 -129 53.5t-53 128.5zM670 1032q0 77 54 131t130 54q74 0 128 -55t54 -130q0 -73 -53.5 -127.5t-130.5 -54.5q-76 0 -129 53.5t-53 128.5z" />
<glyph unicode="&#xf8;" horiz-adv-x="1122" d="M-37 -117l201 258q-117 135 -117 351q0 235 141.5 377.5t376.5 142.5q116 0 232 -49l92 118h270l-192 -250q108 -131 108 -342q0 -234 -140.5 -376t-371.5 -142q-108 0 -229 41l-103 -129h-268zM449 506q0 -156 22 -222.5t88 -66.5q64 0 90.5 58t26.5 188q0 83 -4.5 135 t-16.5 93t-35 59t-59 18q-62 0 -87 -62.5t-25 -199.5z" />
<glyph unicode="&#xf9;" horiz-adv-x="1187" d="M20 739v246h480v-590q0 -56 24 -86t66 -30q41 0 65.5 31t24.5 85v344h-86v246h487v-731h88v-254h-489v135q-131 -158 -303 -158q-132 0 -203.5 75t-71.5 216v471h-82zM283 1475h286l193 -371h-154z" />
<glyph unicode="&#xfa;" horiz-adv-x="1187" d="M20 739v246h480v-590q0 -56 24 -86t66 -30q41 0 65.5 31t24.5 85v344h-86v246h487v-731h88v-254h-489v135q-131 -158 -303 -158q-132 0 -203.5 75t-71.5 216v471h-82zM414 1104l192 371h287l-325 -371h-154z" />
<glyph unicode="&#xfb;" horiz-adv-x="1187" d="M20 739v246h480v-590q0 -56 24 -86t66 -30q41 0 65.5 31t24.5 85v344h-86v246h487v-731h88v-254h-489v135q-131 -158 -303 -158q-132 0 -203.5 75t-71.5 216v471h-82zM266 1104l193 371h256l192 -371h-153l-166 199l-168 -199h-154z" />
<glyph unicode="&#xfc;" horiz-adv-x="1187" d="M20 739v246h480v-590q0 -56 24 -86t66 -30q41 0 65.5 31t24.5 85v344h-86v246h487v-731h88v-254h-489v135q-131 -158 -303 -158q-132 0 -203.5 75t-71.5 216v471h-82zM281 1153v270h250v-270h-250zM643 1153v270h252v-270h-252z" />
<glyph unicode="&#xfd;" horiz-adv-x="1099" d="M0 739v246h565v-246h-82l101 -241q30 -72 41 -144q12 91 32 146l91 239h-76v246h428v-246h-76l-383 -882h186v-250h-628v250h186l49 131l-358 751h-76zM375 1104l192 371h287l-325 -371h-154z" />
<glyph unicode="&#xfe;" horiz-adv-x="1200" d="M20 -143h105v1362h-105v245h494v-563q103 109 256 109q172 0 271.5 -135.5t99.5 -380.5q0 -248 -103 -385.5t-276 -137.5q-126 0 -230 84v-198h105v-250h-617v250zM514 504q0 -138 25 -201t86 -63q114 0 114 247q0 139 -26 204t-86 65q-58 0 -85.5 -62t-27.5 -190z" />
<glyph unicode="&#xff;" horiz-adv-x="1099" d="M0 739v246h565v-246h-82l101 -241q30 -72 41 -144q12 91 32 146l91 239h-76v246h428v-246h-76l-383 -882h186v-250h-628v250h186l49 131l-358 751h-76zM242 1153v270h250v-270h-250zM604 1153v270h252v-270h-252z" />
<glyph unicode="&#x152;" horiz-adv-x="1980" d="M45 719q0 163 43.5 305t114.5 233q195 250 532 250q112 0 262 -32h899v-564h-280v236h-270v-229h182v-353h-182v-237h270v260h280v-588h-899q-162 -33 -270 -33q-223 0 -379 111q-147 103 -225 267.5t-78 373.5zM543 735q0 -248 42.5 -354.5t159.5 -106.5q77 0 185 54 v819q-105 51 -178 51q-123 0 -166 -106t-43 -357z" />
<glyph unicode="&#x153;" horiz-adv-x="1685" d="M53 483q0 233 140 379t360 146q202 0 328 -97q125 99 282 99q214 0 339.5 -139.5t125.5 -385.5q0 -44 -2 -67h-565v-31q0 -87 29.5 -132.5t85.5 -45.5q99 0 120 123h318q-15 -160 -136.5 -260.5t-299.5 -100.5q-166 0 -320 95q-105 -91 -319 -91t-350 139t-136 369z M457 506q0 -153 23 -218t89 -65q59 0 84 57.5t25 182.5q0 162 -21.5 229.5t-89.5 67.5q-62 0 -86 -60t-24 -194zM1061 596h219v27q0 165 -104 165q-112 0 -115 -192z" />
<glyph unicode="&#x178;" horiz-adv-x="1384" d="M12 1161v314h693v-314h-101l166 -278l160 278h-96v314h505v-314h-90l-340 -553v-284h158v-324h-764v324h156v284l-357 553h-90zM385 1651v270h250v-270h-250zM748 1651v270h251v-270h-251z" />
<glyph unicode="&#x2c6;" horiz-adv-x="1024" d="M190 1104l193 371h256l192 -371h-153l-166 199l-168 -199h-154z" />
<glyph unicode="&#x2dc;" horiz-adv-x="1024" d="M180 1149q28 125 80 185.5t135 60.5q35 0 90 -15l95 -28q27 -9 57 -9q67 0 88 87h119q-30 -131 -82 -192.5t-137 -61.5q-35 0 -76 12l-92 26q-50 13 -68 13q-64 0 -90 -78h-119z" />
<glyph unicode="&#x2000;" horiz-adv-x="986" />
<glyph unicode="&#x2001;" horiz-adv-x="1973" />
<glyph unicode="&#x2002;" horiz-adv-x="986" />
<glyph unicode="&#x2003;" horiz-adv-x="1973" />
<glyph unicode="&#x2004;" horiz-adv-x="657" />
<glyph unicode="&#x2005;" horiz-adv-x="493" />
<glyph unicode="&#x2006;" horiz-adv-x="328" />
<glyph unicode="&#x2007;" horiz-adv-x="328" />
<glyph unicode="&#x2008;" horiz-adv-x="246" />
<glyph unicode="&#x2009;" horiz-adv-x="394" />
<glyph unicode="&#x200a;" horiz-adv-x="109" />
<glyph unicode="&#x2010;" horiz-adv-x="860" d="M139 303v375h582v-375h-582z" />
<glyph unicode="&#x2011;" horiz-adv-x="860" d="M139 303v375h582v-375h-582z" />
<glyph unicode="&#x2012;" horiz-adv-x="860" d="M139 303v375h582v-375h-582z" />
<glyph unicode="&#x2013;" horiz-adv-x="1024" d="M0 340v303h1024v-303h-1024z" />
<glyph unicode="&#x2014;" horiz-adv-x="2048" d="M0 340v303h2048v-303h-2048z" />
<glyph unicode="&#x2018;" horiz-adv-x="653" d="M41 860l272 615h246l-137 -615h-381z" />
<glyph unicode="&#x2019;" horiz-adv-x="653" d="M43 860l137 615h381l-272 -615h-246z" />
<glyph unicode="&#x201a;" horiz-adv-x="653" d="M23 -201l137 617h381l-273 -617h-245z" />
<glyph unicode="&#x201c;" horiz-adv-x="1093" d="M6 860l273 615h245l-137 -615h-381zM500 860l272 615h246l-137 -615h-381z" />
<glyph unicode="&#x201d;" horiz-adv-x="1093" d="M6 860l137 615h381l-272 -615h-246zM498 860l137 615h381l-273 -615h-245z" />
<glyph unicode="&#x201e;" horiz-adv-x="1093" d="M6 -201l137 617h381l-272 -617h-246zM498 -201l137 617h381l-273 -617h-245z" />
<glyph unicode="&#x2022;" horiz-adv-x="1208" d="M307 762q0 123 87 209t210 86q122 0 208.5 -86t86.5 -209q0 -122 -87 -209.5t-210 -87.5t-209 87t-86 210z" />
<glyph unicode="&#x2026;" horiz-adv-x="2048" d="M160 0v412h370v-412h-370zM842 0v412h370v-412h-370zM1526 0v412h370v-412h-370z" />
<glyph unicode="&#x202f;" horiz-adv-x="394" />
<glyph unicode="&#x2039;" horiz-adv-x="485" d="M76 487l205 435l174 -84l-156 -351l156 -346l-174 -84z" />
<glyph unicode="&#x203a;" horiz-adv-x="485" d="M41 143l158 351l-158 344l176 84l205 -428l-205 -437z" />
<glyph unicode="&#x205f;" horiz-adv-x="493" />
<glyph unicode="&#x20ac;" d="M2 545l37 129h125v22q0 59 2 88h-146l39 129h121q42 266 182.5 416t354.5 150q91 0 160.5 -30.5t130.5 -94.5v94h254v-492h-273q-6 120 -52.5 181t-121.5 61q-80 0 -129.5 -72.5t-62.5 -212.5h374l-39 -129h-344v-110h314l-39 -129h-268q19 -291 192 -291q90 0 132 56 t54 155h297q-8 -104 -41.5 -189.5t-96 -154.5t-164.5 -107.5t-236 -38.5q-245 0 -397.5 149.5t-186.5 420.5h-172z" />
<glyph unicode="&#x2122;" horiz-adv-x="1705" d="M164 1317v151h526v-151h-162v-408h-202v408h-162zM788 909v559h256l99 -266l98 266h256v-559h-182v367l-137 -367h-70l-137 367v-367h-183z" />
<glyph unicode="&#x25fc;" horiz-adv-x="983" d="M0 0v983h983v-983h-983z" />
<glyph unicode="&#xfb01;" horiz-adv-x="1292" d="M20 0v254h91v485h-91v246h86v111q0 187 97.5 287t279.5 100q69 0 150 -19v-311h-8q-68 0 -94.5 -30.5t-26.5 -106.5v-31h98v-246h-88v-485h88v-254h-582zM688 0v254h98v485h-98v246h500v-731h88v-254h-588zM791 1075v361h397v-361h-397z" />
<glyph unicode="&#xfb02;" horiz-adv-x="1298" d="M20 0v254h91v485h-91v246h86v111q0 187 99.5 287t281.5 100q69 0 150 -19v-311h-8q-69 0 -97 -31t-28 -106v-31h98v-246h-88v-485h88v-254h-582zM692 0v254h99v965h-99v245h500v-1210h88v-254h-588z" />
</font>
</defs>
</svg>
