<?xml version="1.0" standalone="no"?>
<!DOCTYPE svg PUBLIC "-//W3C//DTD SVG 1.1//EN" "http://www.w3.org/Graphics/SVG/1.1/DTD/svg11.dtd" >
<svg xmlns="http://www.w3.org/2000/svg">
<metadata></metadata>
<defs>
<font id="gstymiemedium_italic" horiz-adv-x="1124" >
<font-face units-per-em="2048" ascent="1638" descent="-410" />
<missing-glyph horiz-adv-x="561" />
<glyph horiz-adv-x="2048" />
<glyph horiz-adv-x="2048" />
<glyph unicode="&#xd;" horiz-adv-x="2048" />
<glyph unicode=" "  horiz-adv-x="561" />
<glyph unicode="&#x09;" horiz-adv-x="561" />
<glyph unicode="&#xa0;" horiz-adv-x="561" />
<glyph unicode="!" horiz-adv-x="632" d="M51 0l51 229h209l-49 -229h-211zM154 379l208 1096h226l-266 -1096h-168z" />
<glyph unicode="&#x22;" horiz-adv-x="589" d="M94 881v553h117v-553h-117zM377 881v553h119v-553h-119z" />
<glyph unicode="#" horiz-adv-x="1574" d="M104 467l43 123h320l96 272h-342l43 123h344l168 471h146l-166 -471h260l168 471h143l-164 -471h307l-43 -123h-311l-94 -272h330l-43 -123h-332l-166 -469h-145l168 469h-265l-168 -469h-143l166 469h-320zM614 590h263l96 272h-264z" />
<glyph unicode="$" d="M25 233l118 111q81 -129 244 -164l109 506q-162 55 -239 137.5t-77 208.5q0 181 128.5 295t346.5 115l33 149h113l-35 -157q177 -37 289 -183l-115 -98q-90 112 -203 135l-102 -465q176 -53 259 -144t83 -235q0 -189 -134.5 -304t-361.5 -115h-16l-35 -164h-111l37 172 q-236 47 -331 200zM365 1059q0 -68 43 -119.5t124 -77.5l97 438q-120 -1 -192 -69t-72 -172zM498 170h10q134 0 211.5 68t77.5 184q0 166 -197 231z" />
<glyph unicode="%" horiz-adv-x="1667" d="M74 1139q0 141 98 239q101 101 242 101q140 0 241 -101t101 -239q0 -141 -101 -242q-100 -100 -241 -100q-142 0 -242 100q-98 98 -98 242zM223 1139q0 -79 55.5 -135t135.5 -56q79 0 134.5 56.5t55.5 134.5t-56 133t-134 55q-80 0 -135.5 -54.5t-55.5 -133.5zM305 -25 l905 1495h138l-908 -1495h-135zM905 315q0 139 101 240q102 102 241 102q138 0 240 -102q100 -100 100 -240q0 -141 -100 -241q-101 -101 -240 -101q-140 0 -241 101t-101 241zM1057 315q0 -79 55.5 -134.5t134.5 -55.5q80 0 135.5 55.5t55.5 134.5t-56.5 135t-134.5 56 q-79 0 -134.5 -55.5t-55.5 -135.5z" />
<glyph unicode="&#x26;" horiz-adv-x="1245" d="M8 305q0 82 27.5 156t86.5 146.5t138 141.5t195 152l-43 103q-52 124 -52 208q0 134 84.5 215.5t223.5 81.5q123 0 196.5 -62.5t73.5 -162.5q0 -50 -18 -96t-59.5 -96t-88 -93.5t-125.5 -109.5l195 -445q101 162 164 334h149q-92 -254 -252 -477l133 -301h-182l-74 162 q-201 -195 -411 -195q-165 0 -263 93.5t-98 244.5zM182 330q0 -97 57 -152t158 -55q177 0 324 176l-207 465q-118 -86 -185 -148t-107 -134t-40 -152zM522 1235q0 -60 35 -135l37 -80q103 78 148.5 133.5t45.5 116.5q0 51 -33.5 82.5t-86.5 31.5q-68 0 -107 -40t-39 -109z " />
<glyph unicode="'" horiz-adv-x="305" d="M94 881v553h117v-553h-117z" />
<glyph unicode="(" horiz-adv-x="583" d="M63 330q0 625 500 1177h150q-490 -582 -490 -1231q0 -282 94 -530h-131q-123 296 -123 584z" />
<glyph unicode=")" horiz-adv-x="583" d="M-170 -254q487 578 487 1231q0 282 -94 530h131q123 -291 123 -596q0 -613 -497 -1165h-150z" />
<glyph unicode="*" horiz-adv-x="933" d="M160 1149l49 147l262 -96l-4 287h141l-4 -287l262 94l49 -147l-274 -78l186 -242l-120 -90l-170 252l-168 -250l-121 88l186 242z" />
<glyph unicode="+" horiz-adv-x="1705" d="M254 553v117h541v551h118v-551h539v-117h-539v-553h-118v553h-541z" />
<glyph unicode="," horiz-adv-x="561" d="M-94 -156l207 387h213l-242 -387h-178z" />
<glyph unicode="-" horiz-adv-x="690" d="M10 385l35 166h520l-35 -166h-520z" />
<glyph unicode="." horiz-adv-x="561" d="M16 0l52 231h208l-51 -231h-209z" />
<glyph unicode="/" horiz-adv-x="698" d="M-53 -190l645 1677h125l-654 -1677h-116z" />
<glyph unicode="0" d="M29 459q0 193 50 382t142 349q82 139 199 214t252 75q197 0 307.5 -124t110.5 -349q0 -203 -49.5 -394.5t-141.5 -349.5q-165 -285 -448 -285q-206 0 -314 122.5t-108 359.5zM211 455q0 -153 65 -235.5t181 -82.5q82 0 156.5 50t129.5 145q73 124 119.5 305.5t46.5 361.5 q0 155 -65 235.5t-187 80.5q-80 0 -152 -47t-124 -135q-76 -129 -123 -312.5t-47 -365.5z" />
<glyph unicode="1" d="M137 0l33 154h182l248 1149h-182l33 153h372l-280 -1302h178l-35 -154h-549z" />
<glyph unicode="2" d="M-80 0q12 65 36 123.5t65.5 114.5t85 102.5t113.5 103t128.5 100t151.5 109.5q97 69 155.5 116t111.5 103.5t76 112t23 119.5q0 98 -62.5 157.5t-166.5 59.5q-124 0 -208 -80.5t-114 -232.5l-161 30q32 206 164 325.5t327 119.5q180 0 295 -106.5t115 -270.5 q0 -78 -23 -145.5t-73 -130.5t-112.5 -118t-156.5 -124q-52 -37 -135.5 -95t-128.5 -90.5t-99 -76.5t-87.5 -84t-53.5 -82h531l51 235h172l-86 -395h-934z" />
<glyph unicode="3" d="M-6 369v18l182 19v-19q0 -119 73 -183.5t206 -64.5q145 0 234 88t89 224q0 123 -83.5 179t-262.5 56h-51l33 148q9 0 26.5 -1.5t26.5 -1.5q202 0 311 75t109 208q0 93 -63.5 150t-168.5 57q-108 0 -186 -58.5t-115 -166.5l-164 30q46 170 171.5 262.5t308.5 92.5 q181 0 291 -94.5t110 -247.5q0 -138 -87.5 -234t-252.5 -137q227 -82 227 -332q0 -195 -140.5 -327t-364.5 -132q-220 0 -339.5 103t-119.5 289z" />
<glyph unicode="4" d="M-31 371l35 153l879 955h141l-205 -957h193l-33 -151h-193l-47 -217h150l-35 -154h-483l32 154h166l45 217h-645zM184 522h463l148 670z" />
<glyph unicode="5" d="M12 311l162 62q23 -110 93 -169t179 -59q154 0 252.5 107t98.5 276q0 123 -65 190.5t-181 67.5q-145 0 -299 -127l-115 82l187 715h784l-72 -328h-172l37 170h-444l-105 -413q118 59 258 59q170 0 267.5 -109t97.5 -303q0 -156 -69.5 -283.5t-192 -199.5t-271.5 -72 q-182 0 -295 89t-135 245z" />
<glyph unicode="6" d="M55 473q0 230 68 444t184 361q76 96 181 148.5t221 52.5q160 0 264.5 -84.5t132.5 -235.5l-164 -47q-20 107 -85 163t-167 56q-139 0 -240.5 -132.5t-170.5 -401.5q149 143 350 143q169 0 278 -117t109 -301q0 -239 -143 -392t-365 -153q-219 0 -336 127.5t-117 368.5z M244 432q0 -133 77 -214t201 -81q139 0 229.5 99.5t90.5 257.5q0 139 -72.5 215.5t-200.5 76.5q-146 0 -235.5 -97t-89.5 -257z" />
<glyph unicode="7" d="M49 0l35 158h164l678 1134h-549l-49 -229h-170l84 393h927l-30 -145l-684 -1153h176l-33 -158h-549z" />
<glyph unicode="8" d="M4 373q0 160 92.5 270t261.5 148q-86 38 -133 112t-47 174q0 176 124 288t325 112q199 0 317.5 -98t118.5 -255q0 -137 -75.5 -232.5t-211.5 -129.5q221 -105 221 -340q0 -204 -135.5 -325.5t-367.5 -121.5q-224 0 -357 109.5t-133 288.5zM180 395q0 -120 89.5 -191 t248.5 -71q133 0 217 83.5t84 221.5q0 111 -88 180.5t-242 69.5q-138 0 -223.5 -80.5t-85.5 -212.5zM350 1075q0 -101 76 -161t211 -60q111 0 183.5 70t72.5 180q0 99 -73.5 161t-198.5 62q-121 0 -196 -69.5t-75 -182.5z" />
<glyph unicode="9" d="M14 295l164 49q20 -107 85.5 -164t166.5 -57q139 0 241 132.5t171 401.5q-147 -141 -353 -141q-167 0 -276 116.5t-109 299.5q0 239 143 392t365 153q215 0 334 -127t119 -359q0 -238 -68 -452.5t-184 -362.5q-76 -97 -180.5 -149t-220.5 -52q-160 0 -265 84.5 t-133 235.5zM279 961q0 -139 72 -216t200 -77q146 0 236 98t90 258q0 132 -77.5 212.5t-201.5 80.5q-139 0 -229 -99t-90 -257z" />
<glyph unicode=":" horiz-adv-x="600" d="M37 0l49 231h209l-49 -231h-209zM178 655l49 232h211l-51 -232h-209z" />
<glyph unicode=";" horiz-adv-x="600" d="M-111 -156l209 387h211l-241 -387h-179zM190 655l50 232h209l-50 -232h-209z" />
<glyph unicode="&#x3c;" horiz-adv-x="1705" d="M264 559v103l1178 483v-127l-1000 -408l1000 -405v-129z" />
<glyph unicode="=" horiz-adv-x="1705" d="M254 360v117h1198v-117h-1198zM254 743v117h1198v-117h-1198z" />
<glyph unicode="&#x3e;" horiz-adv-x="1705" d="M264 76v129l1000 405l-1000 408v127l1178 -483v-103z" />
<glyph unicode="?" horiz-adv-x="1007" d="M150 1063q25 213 148 329.5t320 116.5q177 0 285.5 -106.5t108.5 -276.5q0 -193 -124.5 -314t-344.5 -134l-66 -303h-174l94 442h37q189 0 295.5 82t106.5 221q0 102 -67 165t-175 63t-183 -75.5t-98 -209.5h-163zM203 0l49 229h211l-49 -229h-211z" />
<glyph unicode="@" horiz-adv-x="2048" d="M113 522q0 331 200 578q145 176 348.5 267t454.5 91q167 0 312.5 -44.5t246.5 -123.5q129 -99 195.5 -230t66.5 -282q0 -171 -63 -310t-182 -235q-139 -112 -312 -112q-198 0 -198 155q0 3 1 11t1 12q-103 -178 -297 -178q-153 0 -233.5 85t-80.5 247q0 232 137.5 390 t331.5 158q182 0 250 -157l58 121h110l-141 -568q-12 -49 -12 -80q0 -90 110 -90q42 0 97.5 23t105.5 65q87 74 138.5 194.5t51.5 256.5q0 173 -86.5 306.5t-249 208.5t-378.5 75q-338 0 -572 -205q-282 -246 -282 -637q0 -173 60 -304t187 -230q100 -79 239 -123.5 t296 -44.5q171 0 334 48t297 140l45 -66q-296 -221 -660 -221q-383 0 -624 185q-303 233 -303 624zM713 446q0 -110 51 -169.5t145 -59.5q101 0 182.5 70t110.5 186l60 242q-17 90 -72 140t-135 50q-147 0 -244.5 -132t-97.5 -327z" />
<glyph unicode="A" horiz-adv-x="1372" d="M-147 0l34 156h138l634 1165h-145l33 154h635l-33 -154h-150l127 -1165h148l-33 -156h-520l33 156h184l-37 344h-500l-184 -344h182l-32 -156h-514zM483 651h404l-64 637z" />
<glyph unicode="B" horiz-adv-x="1312" d="M-90 0l35 156h143l252 1165h-145l34 154h555q426 0 426 -328q0 -131 -77.5 -219t-221.5 -117q113 -31 175.5 -117.5t62.5 -210.5q0 -225 -166.5 -354t-474.5 -129h-598zM281 156h251q205 0 313.5 86.5t108.5 246.5q0 122 -74.5 181t-228.5 59h-248zM436 883h264 q154 0 237 64.5t83 182.5q0 191 -248 191h-240z" />
<glyph unicode="C" horiz-adv-x="1464" d="M61 623q0 195 70 370t195 299q218 215 518 215q259 0 432 -164l22 115h166l-100 -463h-160l31 162q-146 184 -379 184q-115 0 -206.5 -38t-172.5 -121q-98 -99 -154.5 -246t-56.5 -309q0 -222 121.5 -354t321.5 -132q258 0 460 228l119 -121q-122 -143 -266.5 -212 t-323.5 -69q-291 0 -464 178t-173 478z" />
<glyph unicode="D" horiz-adv-x="1458" d="M-90 0l35 156h143l252 1165h-145l34 154h504q310 0 477.5 -155.5t167.5 -438.5q0 -192 -70.5 -364t-199.5 -298q-124 -121 -289.5 -170t-406.5 -49h-502zM285 156h164q183 0 308 38.5t218 133.5q99 99 154 241.5t55 304.5q0 447 -486 447h-163z" />
<glyph unicode="E" horiz-adv-x="1206" d="M-90 0l35 156h143l252 1165h-145l34 154h1041l-74 -340h-168l41 186h-537l-98 -459h264l33 144h152l-101 -467h-151l33 153h-267l-114 -536h553l53 247h168l-86 -403h-1061z" />
<glyph unicode="F" horiz-adv-x="1142" d="M-90 0l35 156h143l252 1165h-145l34 154h1051l-74 -340h-168l41 186h-544l-99 -459h262l33 144h152l-101 -467h-151l33 153h-265l-114 -536h168l-33 -156h-510z" />
<glyph unicode="G" horiz-adv-x="1658" d="M66 633q0 204 77 382.5t217 303.5q209 188 512 188q297 0 469 -184l29 135h164l-100 -463h-160l29 138q-169 208 -414 208q-236 0 -389 -147q-108 -103 -167 -252t-59 -321q0 -222 125 -350t338 -128q200 0 343 104t171 271h-452l35 160h786l-35 -160h-168l-110 -518 h-164l41 168q-159 -199 -469 -199q-296 0 -472.5 181t-176.5 483z" />
<glyph unicode="H" horiz-adv-x="1456" d="M-90 0l35 156h143l252 1165h-145l34 154h496l-33 -154h-157l-99 -457h637l101 457h-158l33 154h497l-35 -154h-143l-250 -1165h144l-35 -156h-496l35 156h156l118 551h-637l-118 -551h155l-32 -156h-498z" />
<glyph unicode="I" horiz-adv-x="630" d="M-100 0l34 156h156l252 1165h-158l35 154h508l-33 -154h-157l-250 -1165h155l-32 -156h-510z" />
<glyph unicode="J" horiz-adv-x="620" d="M-215 -180l49 186q59 -16 94 -16q65 0 104 41.5t58 128.5l250 1161h-154l33 154h508l-33 -154h-159l-254 -1188q-37 -174 -119 -257t-225 -83q-56 0 -152 27z" />
<glyph unicode="K" horiz-adv-x="1277" d="M-90 0l35 156h143l252 1165h-145l34 154h498l-35 -154h-157l-115 -528l598 538h-170l31 144h501l-34 -154h-113l-617 -561l400 -604h137l-33 -156h-512l35 156h145l-378 585l-125 -585h147l-33 -156h-489z" />
<glyph unicode="L" horiz-adv-x="1130" d="M-90 0l35 156h143l252 1165h-145l34 154h508l-35 -154h-167l-252 -1165h497l54 250h170l-89 -406h-1005z" />
<glyph unicode="M" horiz-adv-x="1779" d="M-82 0l35 156h143l252 1165h-143l33 154h387l202 -981l623 981h408l-33 -154h-146l-249 -1165h145l-35 -156h-483l33 156h161l242 1091l-670 -1061h-104l-213 1061l-230 -1091h162l-35 -156h-485z" />
<glyph unicode="N" horiz-adv-x="1437" d="M-90 0l35 156h143l252 1165h-145l34 154h349l407 -1123l205 969h-160l33 154h477l-33 -154h-143l-291 -1348h-135l-453 1258l-221 -1075h156l-35 -156h-475z" />
<glyph unicode="O" horiz-adv-x="1648" d="M84 649q0 163 54.5 314.5t158.5 275.5q108 130 261.5 199t332.5 69q305 0 490.5 -185.5t185.5 -487.5q0 -168 -54 -321t-155 -275q-111 -132 -264 -202.5t-334 -70.5q-307 0 -491.5 187t-184.5 497zM287 645q0 -232 132.5 -371t352.5 -139q210 0 358 133q108 96 170 243 t62 314q0 232 -129 373t-336 141q-221 0 -373 -131q-113 -95 -175 -242.5t-62 -320.5z" />
<glyph unicode="P" horiz-adv-x="1232" d="M-90 0l35 156h143l252 1165h-145l34 154h514q500 0 500 -400q0 -252 -169 -380t-503 -128h-198l-88 -411h153l-32 -156h-496zM406 719h196q218 0 331.5 90t113.5 260q0 128 -77.5 190t-236.5 62h-198z" />
<glyph unicode="Q" horiz-adv-x="1648" d="M84 653q0 326 205 576q111 135 266.5 207.5t339.5 72.5q300 0 486 -186.5t186 -484.5q0 -216 -86 -401.5t-242 -307.5q-199 -156 -494 -156q-24 0 -96 7q69 -18 162.5 -54t163 -58t127.5 -22q60 0 153 27l-10 -160q-103 -32 -188 -32q-47 0 -99 10.5t-87 22t-91 32.5 q-8 3 -39.5 15.5t-45 17t-43.5 15t-51 15t-51 10.5t-60 8.5t-62 2.5q-79 0 -188 -25l22 162q139 29 240 29q28 0 82 -4q-232 51 -366 227.5t-134 433.5zM287 629q0 -219 134 -356.5t351 -137.5q210 0 358 133q109 96 170.5 242.5t61.5 314.5q0 231 -129.5 372.5 t-335.5 141.5q-268 0 -439 -197t-171 -513z" />
<glyph unicode="R" horiz-adv-x="1306" d="M-90 0l35 156h143l252 1165h-145l34 154h584q204 0 313 -87.5t109 -244.5q0 -136 -83.5 -235t-240.5 -144q71 -26 103.5 -72t32.5 -121q0 -27 -15 -100l-67 -315h155l-33 -156h-348l90 416q17 77 17 129q0 77 -55 112t-170 35h-222l-114 -536h155l-34 -156h-496zM432 846 h225q180 0 279.5 74.5t99.5 195.5q0 106 -66.5 155.5t-205.5 49.5h-229z" />
<glyph unicode="S" horiz-adv-x="1198" d="M-57 0l104 475h160l-39 -178q51 -82 140.5 -127t203.5 -45q143 0 228 73t85 189q0 53 -15 92t-62 76t-77 54.5t-115 60.5q-10 5 -15.5 8t-14.5 7.5t-16 8.5q-162 83 -234.5 167.5t-72.5 217.5q0 183 134.5 305.5t340.5 122.5q213 0 338 -125l20 93h154l-92 -422h-152 l31 147q-44 69 -122.5 107.5t-176.5 38.5q-123 0 -200 -61.5t-77 -154.5q0 -38 14 -70t35 -56t62 -51.5t78 -48t99 -52.5q37 -19 56 -29q153 -79 225 -172.5t72 -220.5q0 -201 -146.5 -332t-385.5 -131q-235 0 -385 135l-23 -102h-159z" />
<glyph unicode="T" horiz-adv-x="1181" d="M139 1100l82 375h1057l-82 -375h-174l49 221h-258l-250 -1165h160l-33 -156h-512l35 156h154l251 1165h-258l-47 -221h-174z" />
<glyph unicode="U" horiz-adv-x="1431" d="M145 367q0 63 23 178l168 776h-146l33 154h498l-33 -154h-158l-163 -756q-17 -87 -17 -153q0 -130 71.5 -198.5t205.5 -68.5q156 0 232.5 92t121.5 300l170 784h-160l35 154h498l-33 -154h-145l-172 -801q-35 -166 -78.5 -267t-128.5 -173q-134 -115 -359 -115 q-220 0 -341.5 107.5t-121.5 294.5z" />
<glyph unicode="V" horiz-adv-x="1277" d="M98 1321l35 154h492l-35 -154h-156l109 -1002l510 1002h-168l35 154h501l-32 -154h-138l-721 -1356h-124l-162 1356h-146z" />
<glyph unicode="W" horiz-adv-x="1931" d="M115 1321l35 154h485l-33 -154h-162l66 -956l563 1122h88l78 -1133l487 967h-159l32 154h465l-32 -154h-125l-691 -1354h-114l-84 1082l-541 -1082h-108l-111 1354h-139z" />
<glyph unicode="X" horiz-adv-x="1290" d="M-150 0l33 156h164l500 600l-236 565h-151l33 154h493l-33 -154h-141l164 -414l340 414h-148l33 154h510l-33 -154h-143l-481 -578l245 -587h158l-35 -156h-504l33 156h144l-174 436l-355 -436h150l-33 -156h-533z" />
<glyph unicode="Y" horiz-adv-x="1208" d="M115 1321l32 154h480l-33 -154h-148l175 -471l374 471h-143l33 154h479l-35 -154h-121l-524 -645l-113 -520h168l-32 -156h-535l35 156h172l113 524l-250 641h-127z" />
<glyph unicode="Z" horiz-adv-x="1116" d="M-104 0l30 150l992 1179h-537l-47 -221h-178l77 367h969l-26 -127l-1002 -1194h561l58 266h180l-90 -420h-987z" />
<glyph unicode="[" horiz-adv-x="583" d="M-39 -223l365 1698h381l-29 -136h-223l-310 -1425h226l-29 -137h-381z" />
<glyph unicode="\" horiz-adv-x="698" d="M223 1487h115l162 -1677h-117z" />
<glyph unicode="]" horiz-adv-x="583" d="M-166 -223l29 135h225l309 1425h-227l31 138h381l-367 -1698h-381z" />
<glyph unicode="^" horiz-adv-x="2048" d="M422 901l520 557h162l520 -557h-158l-442 438l-442 -438h-160z" />
<glyph unicode="_" horiz-adv-x="1024" d="M0 -365h1024v-118h-1024v118z" />
<glyph unicode="`" horiz-adv-x="1024" d="M399 1415h187l135 -348h-111z" />
<glyph unicode="a" horiz-adv-x="1208" d="M-2 399q0 243 146.5 400t367.5 157q227 0 356 -176l31 148h164l-168 -776h139l-33 -152h-286l28 133q-154 -160 -360 -160q-168 0 -276.5 119t-108.5 307zM178 397q0 -122 72.5 -199t187.5 -77q149 0 259 123.5t110 298.5q0 119 -75.5 195.5t-190.5 76.5 q-164 0 -263.5 -114.5t-99.5 -303.5z" />
<glyph unicode="b" horiz-adv-x="1216" d="M-102 0l32 152h142l250 1163h-142l33 149h317l-133 -643q137 131 312 131q168 0 279.5 -118.5t111.5 -303.5q0 -245 -145 -402t-369 -157q-120 0 -211 55t-135 154l-41 -180h-301zM295 391q0 -126 75 -202t193 -76q157 0 257 112t100 289q0 135 -70 214t-184 79 q-154 0 -262.5 -120t-108.5 -296z" />
<glyph unicode="c" horiz-adv-x="1044" d="M4 401q0 245 147.5 400t378.5 155q190 0 308 -106l18 78l129 -6l-70 -330l-131 6l21 98q-96 125 -260 125q-154 0 -256.5 -112t-102.5 -283q0 -142 75 -220.5t212 -78.5q181 0 324 152l84 -109q-186 -201 -430 -201q-200 0 -323.5 122t-123.5 310z" />
<glyph unicode="d" horiz-adv-x="1208" d="M4 399q0 243 147.5 400t368.5 157q217 0 340 -163l113 522h-158l33 149h334l-283 -1312h139l-32 -152h-299l26 131q-67 -76 -154 -117t-180 -41q-175 0 -285 118t-110 308zM186 408q0 -131 69.5 -209t184.5 -78q153 0 262 122.5t109 301.5q0 120 -76.5 195t-199.5 75 q-148 0 -248.5 -114.5t-100.5 -292.5z" />
<glyph unicode="e" horiz-adv-x="1112" d="M4 406q0 152 72.5 278.5t198.5 199t278 72.5q198 0 314 -107.5t116 -287.5q0 -51 -12 -125h-783q0 -6 -1 -17.5t-1 -17.5q0 -128 73.5 -200t203.5 -72q191 0 311 137l90 -110q-170 -185 -403 -185q-206 0 -331.5 120t-125.5 315zM211 555h606q-1 125 -70.5 197.5 t-185.5 72.5q-125 0 -216 -70t-134 -200z" />
<glyph unicode="f" horiz-adv-x="602" d="M-96 0l33 152h145l135 628h-145l30 148h148l47 225q34 161 102.5 236t188.5 75q77 0 139 -22l-33 -142q-41 15 -76 15q-63 0 -94.5 -37.5t-50.5 -126.5l-47 -223h172l-31 -148h-172l-135 -628h164l-33 -152h-487z" />
<glyph unicode="g" horiz-adv-x="1208" d="M-20 -313l57 151q157 -74 299 -74q167 0 259 83t118 257q-143 -131 -320 -131q-167 0 -279 119t-112 305q0 121 39.5 226t107.5 177.5t162 114t201 41.5q225 0 358 -176l37 148h301l-32 -148h-144l-143 -667q-21 -96 -32.5 -142.5t-41 -111t-70.5 -109.5 q-133 -145 -403 -145q-188 0 -362 82zM182 397q0 -123 71.5 -199.5t188.5 -76.5q150 0 258.5 123.5t108.5 304.5q0 117 -75.5 191.5t-192.5 74.5q-160 0 -259.5 -114t-99.5 -304z" />
<glyph unicode="h" horiz-adv-x="1196" d="M-102 0l32 152h142l250 1165h-140l31 147h317l-147 -684q199 166 379 166q112 0 173.5 -58.5t61.5 -164.5q0 -55 -20 -150l-92 -421h137l-33 -152h-457l33 152h144l88 413q14 65 14 97q0 60 -33 92t-94 32q-155 0 -338 -180l-98 -454h147l-33 -152h-464z" />
<glyph unicode="i" horiz-adv-x="577" d="M-94 0l33 152h141l135 628h-141l32 148h318l-166 -776h145l-32 -152h-465zM242 1102l45 209h198l-45 -209h-198z" />
<glyph unicode="j" horiz-adv-x="540" d="M-233 -377l36 146q40 -5 47 -5q75 0 115 48t64 155l176 813h-148l33 148h324l-209 -971q-39 -183 -112 -263.5t-210 -80.5q-44 0 -116 10zM236 1102l45 209h198l-45 -209h-198z" />
<glyph unicode="k" horiz-adv-x="1048" d="M-102 0l32 152h140l249 1163h-139l33 149h317l-208 -962l380 289h-124l30 137h434l-30 -148h-99l-397 -301l275 -327h98l-33 -152h-424l33 152h115l-265 321l-69 -321h119l-33 -152h-434z" />
<glyph unicode="l" horiz-adv-x="575" d="M-100 0l32 154h142l250 1161h-142l33 149h317l-280 -1310h147l-34 -154h-465z" />
<glyph unicode="m" horiz-adv-x="1771" d="M-96 0l33 152h137l135 628h-139l32 148h314l-29 -137q197 157 358 157q91 0 148 -43.5t76 -126.5q213 168 379 168q105 0 164 -57.5t59 -159.5q0 -38 -21 -145l-92 -432h135l-32 -152h-451l31 152h139l92 426q12 61 12 92q0 116 -116 116q-145 0 -312 -161l-102 -473h141 l-34 -152h-455l33 152h139l92 430q12 58 12 90q0 54 -30 84t-84 30q-147 0 -314 -161l-102 -473h139l-33 -152h-454z" />
<glyph unicode="n" horiz-adv-x="1200" d="M-98 0l32 152h142l135 628h-141l32 148h314l-33 -150q195 168 387 168q108 0 169.5 -59t61.5 -164q0 -45 -22 -150l-90 -421h137l-33 -152h-456l32 152h142l90 413q12 49 12 105t-32.5 86t-92.5 30q-155 0 -338 -180l-98 -454h147l-32 -152h-465z" />
<glyph unicode="o" d="M2 418q0 153 69.5 276t191.5 191.5t274 68.5q209 0 339 -127.5t130 -326.5q0 -228 -154 -379.5t-385 -151.5q-207 0 -336 126.5t-129 322.5zM184 440q0 -141 83 -228t218 -87q142 0 240 102.5t98 245.5q0 146 -81.5 237t-206.5 91q-153 0 -252 -102t-99 -259z" />
<glyph unicode="p" horiz-adv-x="1216" d="M-186 -393l32 151h142l219 1022h-141l32 148h301l-30 -140q144 162 340 162q170 0 276.5 -116.5t106.5 -305.5q0 -155 -68 -282.5t-182.5 -199t-249.5 -71.5q-118 0 -207.5 45t-136.5 127l-84 -389h153l-32 -151h-471zM295 389q0 -125 75.5 -200.5t198.5 -75.5 q152 0 250.5 113.5t98.5 295.5q0 128 -70.5 206.5t-181.5 78.5q-155 0 -263 -121t-108 -297z" />
<glyph unicode="q" horiz-adv-x="1208" d="M0 399q0 160 67 288t183 198.5t258 70.5q114 0 202 -42.5t158 -133.5l35 148h301l-33 -148h-143l-219 -1022h141l-32 -151h-472l33 151h154l76 346q-132 -129 -322 -129q-168 0 -277.5 118t-109.5 306zM178 399q0 -123 71 -200.5t183 -77.5q153 0 263 122t110 300 q0 123 -75.5 197.5t-197.5 74.5q-157 0 -255.5 -116t-98.5 -300z" />
<glyph unicode="r" horiz-adv-x="759" d="M-98 0l32 152h142l135 628h-141l32 148h312l-33 -148q159 172 340 172q9 0 29.5 -3t25.5 -3l-35 -160q-25 2 -57 2q-180 0 -336 -188l-96 -448h149l-32 -152h-467z" />
<glyph unicode="s" horiz-adv-x="931" d="M-55 0l71 332h142l-23 -109q43 -57 109.5 -88t148.5 -31q74 0 117 35t43 94q0 17 -3.5 32t-8.5 26t-15.5 22t-19 17.5t-25.5 16t-27.5 14.5t-32.5 15.5t-34 16.5q-149 70 -189 97q-87 57 -106 137q-6 28 -6 61q0 119 89 194.5t231 75.5q154 0 272 -98l14 68h135l-65 -301 h-135l20 94q-83 106 -221 106q-68 0 -109 -32t-41 -84q0 -45 32.5 -76.5t105.5 -61.5q55 -23 83 -35.5t69.5 -33t61.5 -35.5t45.5 -38t36.5 -46t19 -54t8 -67q0 -137 -92 -215t-254 -78q-170 0 -289 101l-14 -72h-143z" />
<glyph unicode="t" horiz-adv-x="598" d="M14 0l168 780h-151l32 148h152l74 340h176l-74 -340h176l-32 -148h-175l-135 -628h174l-32 -152h-353z" />
<glyph unicode="u" horiz-adv-x="1189" d="M57 780l33 148h313l-122 -568q-13 -63 -13 -94q0 -62 33 -94.5t94 -32.5q144 0 336 180l100 461h-147l33 148h323l-168 -776h142l-33 -152h-315l32 147q-216 -165 -387 -165q-109 0 -169 58.5t-60 162.5q0 59 20 149l93 428h-138z" />
<glyph unicode="v" horiz-adv-x="954" d="M-47 780l33 148h413l-32 -148h-125l96 -563l326 563h-125l30 148h422l-33 -148h-110l-510 -805h-121l-151 805h-113z" />
<glyph unicode="w" horiz-adv-x="1478" d="M-47 780l31 148h401l-33 -148h-129l80 -565l422 713h51l111 -713l327 565h-143l33 148h407l-32 -148h-101l-487 -805h-125l-90 617l-369 -617h-117l-131 805h-106z" />
<glyph unicode="x" horiz-adv-x="1067" d="M-127 0l33 152h135l332 321l-180 307h-132l33 148h406l-27 -127h-92l117 -203l207 203h-93l27 127h422l-33 -148h-135l-318 -309l189 -319h137l-33 -152h-424l31 139h92l-116 207l-215 -207h90l-29 -139h-424z" />
<glyph unicode="y" horiz-adv-x="1048" d="M-117 -393l31 145h154l198 301l-170 727h-110l32 148h437l-33 -148h-150l123 -544l350 544h-155l33 148h444l-33 -148h-100l-678 -1028h164l-31 -145h-506z" />
<glyph unicode="z" horiz-adv-x="905" d="M-106 0l28 141l680 658h-344l-37 -174h-162l66 303h719l-27 -123l-686 -664h393l51 224h162l-78 -365h-765z" />
<glyph unicode="{" horiz-adv-x="1024" d="M172 467v127q8 0 23 -1t22 -1q136 0 190 62t54 214v244q0 134 18 203t82 110q80 52 262 52h35v-127q-8 0 -23 1t-22 1q-67 0 -107 -12t-62.5 -42.5t-30 -73.5t-7.5 -116v-242q0 -156 -39.5 -230t-158.5 -106q119 -32 158.5 -105.5t39.5 -229.5v-242q0 -73 8 -116 t31.5 -73.5t64.5 -41.5t109 -11h39v-125h-35q-182 0 -262 52q-63 41 -81.5 111t-18.5 202v244q0 150 -54 212t-190 62q-7 0 -22 -1t-23 -1z" />
<glyph unicode="|" horiz-adv-x="1024" d="M449 -483v2048h126v-2048h-126z" />
<glyph unicode="}" horiz-adv-x="1024" d="M166 -289q8 0 23 -1t22 -1q66 0 106.5 12t63 43.5t30 74.5t7.5 116v240q0 156 39.5 229.5t158.5 105.5q-119 32 -158.5 106t-39.5 230v242q0 73 -8 116.5t-31.5 74t-64.5 42t-109 11.5h-39v125h35q184 0 264 -52q62 -41 80 -110t18 -203v-244q0 -151 55 -213.5t191 -62.5 q7 0 22 1t23 1v-127q-8 0 -23 1t-22 1q-136 0 -191 -62.5t-55 -213.5v-242q0 -134 -18 -204.5t-80 -111.5q-43 -29 -103.5 -39t-154.5 -10h-41v125z" />
<glyph unicode="~" horiz-adv-x="1705" d="M178 461v133q210 145 387 145q50 0 104.5 -10.5t91 -22t95.5 -32.5q13 -5 47 -17.5t49.5 -18t45.5 -14.5t49.5 -13t46 -7.5t51.5 -3.5q88 0 179.5 39t205.5 119v-131q-202 -144 -387 -144q-88 0 -191 35q-29 10 -99 35t-104.5 35.5t-87.5 21.5t-98 11q-87 0 -178.5 -39.5 t-206.5 -120.5z" />
<glyph unicode="&#xa1;" horiz-adv-x="632" d="M55 0l264 1096h168l-206 -1096h-226zM332 1245l49 230h209l-49 -230h-209z" />
<glyph unicode="&#xa2;" d="M104 678q0 239 145 393.5t374 157.5l30 160h129l-34 -168q111 -23 186 -101l18 80l131 -8l-71 -330l-129 8l20 99q-93 125 -258 125q-155 0 -258.5 -113t-103.5 -289q0 -140 73.5 -218.5t202.5 -78.5q185 0 336 154l82 -109q-179 -200 -436 -200h-9l-32 -168h-129l39 184 q-142 38 -224 151t-82 271z" />
<glyph unicode="&#xa3;" d="M-106 -25l40 185q157 13 232.5 136t83.5 368h-209l31 137h180q-2 84 -2 188q0 232 118.5 362t325.5 130q178 0 279 -93t110 -262l-159 -39q-21 242 -222 242q-148 0 -207 -94t-59 -305q0 -72 2 -129h285l-31 -137h-256q-13 -292 -121 -428q136 -89 258 -89 q101 0 177 58.5t116 165.5l156 -54q-133 -340 -465 -340q-181 0 -346 125q-136 -121 -317 -127z" />
<glyph unicode="&#xa4;" horiz-adv-x="1241" d="M86 424l207 205q-88 117 -88 256t88 256l-207 205l72 73l207 -207q120 91 256 91q140 0 260 -91l204 207l72 -73l-205 -205q86 -115 86 -256t-86 -256l205 -205l-72 -74l-204 207q-113 -88 -260 -88q-143 0 -256 88l-207 -207zM309 887q0 -131 92 -223.5t222 -92.5 t221.5 93t91.5 223q0 129 -91.5 221t-221.5 92t-222 -92t-92 -221z" />
<glyph unicode="&#xa5;" horiz-adv-x="1255" d="M35 657l22 111h430l-63 162h-332l25 110h262l-96 265h-129l30 151h453l-33 -151h-139l180 -504l383 504h-151l32 151h453l-33 -151h-121l-207 -265h261l-25 -110h-330l-133 -162h428l-24 -111h-490l-106 -503h159l-34 -154h-494l35 154h168l108 503h-489z" />
<glyph unicode="&#xa6;" horiz-adv-x="1024" d="M449 -350v758h126v-758h-126zM449 674v758h126v-758h-126z" />
<glyph unicode="&#xa7;" horiz-adv-x="1024" d="M-2 -219l70 330h153l-39 -179h101q188 0 188 129q0 63 -55 136l-215 282q-41 53 -58.5 79.5t-35 75t-17.5 101.5q0 119 84 204t223 97q-51 66 -51 144q0 295 447 295h204l-69 -328h-156l39 178h-90q-92 0 -139 -35.5t-47 -101.5q0 -70 65 -156l182 -239 q109 -146 109 -261t-78 -199t-207 -104q51 -91 51 -172q0 -130 -101.5 -203t-291.5 -73h-266zM258 764q0 -57 45 -117l123 -170q43 -58 78 -84t80 -26q58 0 98.5 38.5t40.5 90.5q0 69 -55 143l-131 172q-36 47 -66.5 68.5t-69.5 21.5q-63 0 -103 -38.5t-40 -98.5z" />
<glyph unicode="&#xa8;" horiz-adv-x="1024" d="M342 1128l41 197h176l-43 -197h-174zM678 1128l41 197h176l-43 -197h-174z" />
<glyph unicode="&#xa9;" horiz-adv-x="1705" d="M119 725q0 146 56.5 280t162.5 242q102 103 233.5 158t280.5 55q150 0 284.5 -55t239.5 -160q103 -103 157 -236.5t54 -283.5q0 -308 -211 -516q-109 -106 -244 -162.5t-280 -56.5q-299 0 -516 217q-106 106 -161.5 239t-55.5 279zM207 725q0 -127 49 -244t141 -211 q92 -92 209 -141t246 -49q128 0 248 49.5t215 142.5q186 183 186 453q0 131 -48.5 249.5t-139.5 209.5q-188 188 -461 188q-270 0 -453 -186q-93 -95 -142.5 -214t-49.5 -247zM465 721q0 210 108 333.5t287 123.5q137 0 230 -75t104 -192h-129q-15 77 -71 120.5t-138 43.5 q-117 0 -182.5 -91.5t-65.5 -260.5q0 -162 67 -253t181 -91q87 0 145.5 48t73.5 134h129q-11 -128 -108.5 -207.5t-245.5 -79.5q-174 0 -279.5 120.5t-105.5 326.5z" />
<glyph unicode="&#xaa;" horiz-adv-x="907" d="M-2 1104q0 171 110 281t277 110q169 0 266 -123l23 103h123l-125 -543h104l-24 -107h-215l20 93q-114 -111 -270 -111q-125 0 -207 83t-82 214zM133 1104q0 -86 54.5 -140.5t142.5 -54.5q111 0 193.5 86.5t82.5 208.5q0 84 -56.5 138.5t-143.5 54.5q-123 0 -198 -80.5 t-75 -212.5z" />
<glyph unicode="&#xab;" horiz-adv-x="755" d="M-6 467l276 395l117 -76l-246 -333l92 -334l-133 -45zM313 467l277 395l117 -76l-246 -333l90 -334l-131 -45z" />
<glyph unicode="&#xac;" horiz-adv-x="1705" d="M254 741v117h1198v-502h-115v385h-1083z" />
<glyph unicode="&#xad;" horiz-adv-x="690" d="M10 385l35 166h520l-35 -166h-520z" />
<glyph unicode="&#xae;" horiz-adv-x="1705" d="M119 725q0 146 57 281.5t164 242.5q208 211 512 211q307 0 524 -217q102 -102 156.5 -236t54.5 -282q0 -309 -213 -516q-109 -106 -243.5 -162.5t-278.5 -56.5q-146 0 -279 56.5t-239 162.5q-104 104 -159.5 237t-55.5 279zM207 725q0 -127 49 -244t141 -211 q91 -93 208.5 -141.5t244.5 -48.5q270 0 463 190q188 185 188 451q0 133 -48 252t-138 209q-190 190 -463 190q-270 0 -451 -184q-95 -95 -144.5 -214t-49.5 -249zM561 317v840h311q351 0 351 -231q0 -88 -52.5 -148.5t-144.5 -75.5l188 -385h-157l-176 365h-179v-365h-141z M702 774h148q120 0 173.5 31.5t53.5 109.5q0 81 -55.5 115.5t-175.5 34.5h-144v-291z" />
<glyph unicode="&#xaf;" horiz-adv-x="1024" d="M340 1161l27 129h528l-29 -129h-526z" />
<glyph unicode="&#xb0;" horiz-adv-x="673" d="M55 1171q0 119 82.5 201t200.5 82q117 0 200 -83t83 -200q0 -116 -83 -199t-202 -83q-118 0 -199.5 81.5t-81.5 200.5zM135 1171q0 -85 59.5 -143.5t143.5 -58.5q85 0 143 59t58 143t-58.5 142.5t-142.5 58.5t-143.5 -58.5t-59.5 -142.5z" />
<glyph unicode="&#xb1;" horiz-adv-x="1705" d="M254 41v117h1198v-117h-1198zM254 719v117h541v344h118v-344h539v-117h-539v-344h-118v344h-541z" />
<glyph unicode="&#xb2;" horiz-adv-x="741" d="M-53 582q9 46 33 89t53.5 77t81 75t96 71.5t119.5 78.5q129 83 185 140.5t56 129.5q0 60 -41 95.5t-110 35.5q-82 0 -136.5 -48t-74.5 -140l-107 18q20 124 107 195t217 71q120 0 195 -63t75 -162q0 -62 -29 -115.5t-78.5 -97t-133.5 -98.5q-34 -22 -89 -57t-84.5 -54 t-65 -45.5t-57.5 -50.5t-36 -49h350l35 141h113l-58 -237h-616z" />
<glyph unicode="&#xb3;" horiz-adv-x="741" d="M-4 803v10l121 12v-12q0 -71 47.5 -109t136.5 -38q95 0 154 52t59 134q0 74 -55.5 107.5t-173.5 33.5h-33l20 88h35q134 0 206.5 44.5t72.5 123.5q0 56 -42 90.5t-112 34.5q-71 0 -122.5 -34.5t-76.5 -100.5l-108 18q31 103 113 158t204 55q119 0 192 -56.5t73 -147.5 q0 -83 -57.5 -141t-166.5 -83q150 -51 150 -198q0 -118 -93 -197.5t-241 -79.5q-145 0 -224 62.5t-79 173.5z" />
<glyph unicode="&#xb4;" horiz-adv-x="1024" d="M446 1067l283 348h186l-358 -348h-111z" />
<glyph unicode="&#xb5;" horiz-adv-x="1128" d="M-111 -426l316 1495h157l-126 -596q-15 -68 -15 -137q0 -108 56.5 -167.5t160.5 -59.5q126 0 209 101.5t127 307.5l121 551h156l-162 -754q-23 -103 -23 -135q0 -65 72 -65q17 0 35 2l-27 -125q-44 -10 -92 -10q-70 0 -104.5 35t-40.5 112q-40 -69 -116 -108t-173 -39 q-174 0 -262 137l-113 -545h-156z" />
<glyph unicode="&#xb6;" horiz-adv-x="1024" d="M76 1130q0 156 106.5 252.5t286.5 96.5h479v-78h-125v-1401h-94v1401h-184v-1401h-94v782q-173 7 -274 102t-101 246z" />
<glyph unicode="&#xb7;" horiz-adv-x="561" d="M152 727q0 54 37.5 91.5t91.5 37.5t91.5 -37.5t37.5 -91.5t-37.5 -91.5t-91.5 -37.5t-91.5 37.5t-37.5 91.5z" />
<glyph unicode="&#xb8;" horiz-adv-x="1024" d="M25 -426l24 107q115 -50 221 -50q74 0 114 26t40 71q0 44 -30 61.5t-99 17.5q-7 0 -23 -1t-24 -1l43 195h78l-23 -102h14q93 0 142 -39t49 -113q0 -98 -71 -155.5t-197 -57.5q-124 0 -258 41z" />
<glyph unicode="&#xb9;" horiz-adv-x="741" d="M90 582l21 92h120l164 690h-121l23 92h246l-187 -782h119l-22 -92h-363z" />
<glyph unicode="&#xba;" horiz-adv-x="843" d="M2 1118q0 163 114 269t287 106q156 0 253.5 -89t97.5 -228q0 -161 -115 -266t-289 -105q-155 0 -251.5 88.5t-96.5 224.5zM139 1133q0 -98 62.5 -159t163.5 -61q106 0 179.5 71.5t73.5 172.5t-62 165t-155 64q-115 0 -188.5 -71t-73.5 -182z" />
<glyph unicode="&#xbb;" horiz-adv-x="755" d="M-53 135l231 346l-106 328l131 49l121 -387l-258 -405zM266 135l232 346l-107 328l131 49l121 -387l-258 -405z" />
<glyph unicode="&#xbc;" horiz-adv-x="1757" d="M86 639l20 86h117l156 643h-115l21 86h233l-176 -729h113l-23 -86h-346zM367 -27l895 1497h131l-897 -1497h-129zM1032 207l21 86l555 534h88l-129 -534h121l-21 -86h-121l-30 -121h94l-21 -86h-305l21 86h104l29 121h-406zM1167 293h291l92 375z" />
<glyph unicode="&#xbd;" horiz-adv-x="1757" d="M86 639l20 86h117l156 643h-115l21 86h233l-176 -729h113l-23 -86h-346zM367 -27l895 1497h131l-897 -1497h-129zM999 0q11 54 39.5 100t81.5 92.5t105.5 83t140.5 91.5q123 77 176 130t53 121q0 56 -38.5 88.5t-104.5 32.5q-77 0 -130 -44.5t-73 -129.5l-102 17 q20 115 103 181t206 66q115 0 186.5 -59t71.5 -152q0 -84 -54.5 -147.5t-174.5 -140.5q-34 -22 -103 -65t-99 -63t-65 -51.5t-51 -60.5h334l33 131h108l-53 -221h-590z" />
<glyph unicode="&#xbe;" horiz-adv-x="1759" d="M-4 846v10l115 10v-10q0 -66 46 -102.5t130 -36.5q91 0 146.5 49t55.5 125q0 70 -53 101.5t-164 31.5h-32l20 82q6 0 17.5 -1t17.5 -1q127 0 195.5 42t68.5 118q0 51 -39.5 82.5t-105.5 31.5q-69 0 -118.5 -32.5t-72.5 -92.5l-102 17q28 95 106.5 146.5t194.5 51.5 q114 0 183 -53t69 -139q0 -77 -54.5 -130.5t-158.5 -76.5q143 -46 143 -186q0 -109 -89.5 -182.5t-229.5 -73.5q-137 0 -213 58t-76 161zM367 -27l895 1497h131l-897 -1497h-129zM1032 207l21 86l555 534h88l-129 -534h121l-21 -86h-121l-30 -121h94l-21 -86h-305l21 86h104 l29 121h-406zM1167 293h291l92 375z" />
<glyph unicode="&#xbf;" horiz-adv-x="1007" d="M2 346q0 193 124.5 314.5t344.5 134.5l66 303h174l-95 -441h-36q-190 0 -296 -82.5t-106 -222.5q0 -100 67 -162.5t175 -62.5t182.5 74.5t97.5 208.5h164q-26 -214 -148.5 -329.5t-320.5 -115.5q-177 0 -285 105.5t-108 275.5zM551 1245l49 228h211l-49 -228h-211z" />
<glyph unicode="&#xc0;" horiz-adv-x="1372" d="M-147 0l34 156h138l634 1165h-145l33 154h635l-33 -154h-150l127 -1165h148l-33 -156h-520l33 156h184l-37 344h-500l-184 -344h182l-32 -156h-514zM483 651h404l-64 637zM690 1966h187l135 -348h-111z" />
<glyph unicode="&#xc1;" horiz-adv-x="1372" d="M-147 0l34 156h138l634 1165h-145l33 154h635l-33 -154h-150l127 -1165h148l-33 -156h-520l33 156h184l-37 344h-500l-184 -344h182l-32 -156h-514zM483 651h404l-64 637zM737 1618l283 348h186l-358 -348h-111z" />
<glyph unicode="&#xc2;" horiz-adv-x="1372" d="M-147 0l34 156h138l634 1165h-145l33 154h635l-33 -154h-150l127 -1165h148l-33 -156h-520l33 156h184l-37 344h-500l-184 -344h182l-32 -156h-514zM483 651h404l-64 637zM586 1616l272 350h183l120 -350h-110l-127 238l-227 -238h-111z" />
<glyph unicode="&#xc3;" horiz-adv-x="1372" d="M-147 0l34 156h138l634 1165h-145l33 154h635l-33 -154h-150l127 -1165h148l-33 -156h-520l33 156h184l-37 344h-500l-184 -344h182l-32 -156h-514zM483 651h404l-64 637zM590 1665q85 199 231 199q35 0 76 -13l82 -26q21 -8 47 -8q71 0 111 73h90q-90 -202 -238 -202 q-29 0 -67 10l-80 24q-34 11 -54 11q-66 0 -110 -68h-88z" />
<glyph unicode="&#xc4;" horiz-adv-x="1372" d="M-147 0l34 156h138l634 1165h-145l33 154h635l-33 -154h-150l127 -1165h148l-33 -156h-520l33 156h184l-37 344h-500l-184 -344h182l-32 -156h-514zM483 651h404l-64 637zM633 1679l41 197h176l-43 -197h-174zM969 1679l41 197h176l-43 -197h-174z" />
<glyph unicode="&#xc5;" horiz-adv-x="1372" d="M-147 0l34 156h138l634 1165h-145l33 154h635l-33 -154h-150l127 -1165h148l-33 -156h-520l33 156h184l-37 344h-500l-184 -344h182l-32 -156h-514zM483 651h404l-64 637zM653 1790q0 104 72 176t176 72t176 -72.5t72 -175.5q0 -104 -72 -177t-176 -73t-176 73t-72 177z M762 1788q0 -58 40 -97.5t99 -39.5q58 0 97.5 40t39.5 97q0 59 -39.5 99t-97.5 40q-59 0 -99 -40.5t-40 -98.5z" />
<glyph unicode="&#xc6;" horiz-adv-x="1941" d="M-225 0l32 156h125l887 1165h-145l35 154h1296l-74 -340h-168l39 186h-534l-99 -459h265l30 144h154l-100 -467h-154l35 153h-266l-115 -536h553l53 247h168l-88 -403h-1077l35 156h165l74 340h-502l-260 -340h174l-34 -156h-504zM504 649h430l147 688h-55z" />
<glyph unicode="&#xc7;" horiz-adv-x="1464" d="M61 623q0 195 70 370t195 299q218 215 518 215q259 0 432 -164l22 115h166l-100 -463h-160l31 162q-146 184 -379 184q-115 0 -206.5 -38t-172.5 -121q-98 -99 -154.5 -246t-56.5 -309q0 -222 121.5 -354t321.5 -132q258 0 460 228l119 -121q-122 -143 -266.5 -212 t-323.5 -69q-291 0 -464 178t-173 478zM338 -426l24 107q115 -50 221 -50q74 0 114 26t40 71q0 44 -30 61.5t-99 17.5q-7 0 -23 -1t-24 -1l43 195h78l-23 -102h14q93 0 142 -39t49 -113q0 -98 -71 -155.5t-197 -57.5q-124 0 -258 41z" />
<glyph unicode="&#xc8;" horiz-adv-x="1206" d="M-90 0l35 156h143l252 1165h-145l34 154h1041l-74 -340h-168l41 186h-537l-98 -459h264l33 144h152l-101 -467h-151l33 153h-267l-114 -536h553l53 247h168l-86 -403h-1061zM632 1966h187l135 -348h-111z" />
<glyph unicode="&#xc9;" horiz-adv-x="1206" d="M-90 0l35 156h143l252 1165h-145l34 154h1041l-74 -340h-168l41 186h-537l-98 -459h264l33 144h152l-101 -467h-151l33 153h-267l-114 -536h553l53 247h168l-86 -403h-1061zM680 1618l283 348h186l-358 -348h-111z" />
<glyph unicode="&#xca;" horiz-adv-x="1206" d="M-90 0l35 156h143l252 1165h-145l34 154h1041l-74 -340h-168l41 186h-537l-98 -459h264l33 144h152l-101 -467h-151l33 153h-267l-114 -536h553l53 247h168l-86 -403h-1061zM528 1616l272 350h183l120 -350h-110l-127 238l-227 -238h-111z" />
<glyph unicode="&#xcb;" horiz-adv-x="1206" d="M-90 0l35 156h143l252 1165h-145l34 154h1041l-74 -340h-168l41 186h-537l-98 -459h264l33 144h152l-101 -467h-151l33 153h-267l-114 -536h553l53 247h168l-86 -403h-1061zM575 1679l41 197h177l-43 -197h-175zM911 1679l41 197h176l-43 -197h-174z" />
<glyph unicode="&#xcc;" horiz-adv-x="630" d="M-100 0l34 156h156l252 1165h-158l35 154h508l-33 -154h-157l-250 -1165h155l-32 -156h-510zM319 1966h187l135 -348h-111z" />
<glyph unicode="&#xcd;" horiz-adv-x="630" d="M-100 0l34 156h156l252 1165h-158l35 154h508l-33 -154h-157l-250 -1165h155l-32 -156h-510zM367 1618l282 348h187l-359 -348h-110z" />
<glyph unicode="&#xce;" horiz-adv-x="630" d="M-100 0l34 156h156l252 1165h-158l35 154h508l-33 -154h-157l-250 -1165h155l-32 -156h-510zM215 1616l272 350h183l120 -350h-110l-127 238l-227 -238h-111z" />
<glyph unicode="&#xcf;" horiz-adv-x="630" d="M-100 0l34 156h156l252 1165h-158l35 154h508l-33 -154h-157l-250 -1165h155l-32 -156h-510zM262 1679l41 197h176l-43 -197h-174zM598 1679l41 197h176l-43 -197h-174z" />
<glyph unicode="&#xd0;" horiz-adv-x="1458" d="M-90 0l35 156h143l121 563h-213l29 133h213l102 469h-145l34 154h504q310 0 477.5 -155.5t167.5 -438.5q0 -192 -70.5 -364t-199.5 -298q-124 -121 -289.5 -170t-406.5 -49h-502zM285 156h164q183 0 308 38.5t218 133.5q99 99 154 241.5t55 304.5q0 447 -486 447h-163 l-101 -469h379l-29 -133h-378z" />
<glyph unicode="&#xd1;" horiz-adv-x="1437" d="M-90 0l35 156h143l252 1165h-145l34 154h349l407 -1123l205 969h-160l33 154h477l-33 -154h-143l-291 -1348h-135l-453 1258l-221 -1075h156l-35 -156h-475zM621 1665q85 199 231 199q35 0 76 -13l82 -26q21 -8 47 -8q71 0 111 73h90q-90 -202 -238 -202q-29 0 -67 10 l-80 24q-34 11 -53 11q-67 0 -111 -68h-88z" />
<glyph unicode="&#xd2;" horiz-adv-x="1648" d="M84 649q0 163 54.5 314.5t158.5 275.5q108 130 261.5 199t332.5 69q305 0 490.5 -185.5t185.5 -487.5q0 -168 -54 -321t-155 -275q-111 -132 -264 -202.5t-334 -70.5q-307 0 -491.5 187t-184.5 497zM287 645q0 -232 132.5 -371t352.5 -139q210 0 358 133q108 96 170 243 t62 314q0 232 -129 373t-336 141q-221 0 -373 -131q-113 -95 -175 -242.5t-62 -320.5zM733 1966h187l135 -348h-111z" />
<glyph unicode="&#xd3;" horiz-adv-x="1648" d="M84 649q0 163 54.5 314.5t158.5 275.5q108 130 261.5 199t332.5 69q305 0 490.5 -185.5t185.5 -487.5q0 -168 -54 -321t-155 -275q-111 -132 -264 -202.5t-334 -70.5q-307 0 -491.5 187t-184.5 497zM287 645q0 -232 132.5 -371t352.5 -139q210 0 358 133q108 96 170 243 t62 314q0 232 -129 373t-336 141q-221 0 -373 -131q-113 -95 -175 -242.5t-62 -320.5zM780 1618l283 348h186l-358 -348h-111z" />
<glyph unicode="&#xd4;" horiz-adv-x="1648" d="M84 649q0 163 54.5 314.5t158.5 275.5q108 130 261.5 199t332.5 69q305 0 490.5 -185.5t185.5 -487.5q0 -168 -54 -321t-155 -275q-111 -132 -264 -202.5t-334 -70.5q-307 0 -491.5 187t-184.5 497zM287 645q0 -232 132.5 -371t352.5 -139q210 0 358 133q108 96 170 243 t62 314q0 232 -129 373t-336 141q-221 0 -373 -131q-113 -95 -175 -242.5t-62 -320.5zM629 1616l272 350h183l120 -350h-110l-127 238l-227 -238h-111z" />
<glyph unicode="&#xd5;" horiz-adv-x="1648" d="M84 649q0 163 54.5 314.5t158.5 275.5q108 130 261.5 199t332.5 69q305 0 490.5 -185.5t185.5 -487.5q0 -168 -54 -321t-155 -275q-111 -132 -264 -202.5t-334 -70.5q-307 0 -491.5 187t-184.5 497zM287 645q0 -232 132.5 -371t352.5 -139q210 0 358 133q108 96 170 243 t62 314q0 232 -129 373t-336 141q-221 0 -373 -131q-113 -95 -175 -242.5t-62 -320.5zM633 1665q85 199 231 199q35 0 76 -13l82 -26q21 -8 47 -8q71 0 111 73h90q-90 -202 -238 -202q-29 0 -67 10l-80 24q-34 11 -54 11q-66 0 -110 -68h-88z" />
<glyph unicode="&#xd6;" horiz-adv-x="1648" d="M84 649q0 163 54.5 314.5t158.5 275.5q108 130 261.5 199t332.5 69q305 0 490.5 -185.5t185.5 -487.5q0 -168 -54 -321t-155 -275q-111 -132 -264 -202.5t-334 -70.5q-307 0 -491.5 187t-184.5 497zM287 645q0 -232 132.5 -371t352.5 -139q210 0 358 133q108 96 170 243 t62 314q0 232 -129 373t-336 141q-221 0 -373 -131q-113 -95 -175 -242.5t-62 -320.5zM676 1679l41 197h176l-43 -197h-174zM1012 1679l41 197h176l-43 -197h-174z" />
<glyph unicode="&#xd7;" horiz-adv-x="1705" d="M301 135l475 475l-475 477l80 82l477 -477l475 477l82 -82l-475 -477l475 -475l-82 -82l-475 475l-477 -475z" />
<glyph unicode="&#xd8;" horiz-adv-x="1648" d="M-23 -45l248 254q-137 173 -137 428q0 368 215 612q109 124 257.5 190t320.5 66q276 0 450 -145l160 162h168l-244 -252q144 -167 144 -449q0 -360 -209 -598q-225 -254 -584 -254q-265 0 -463 152l-156 -166h-170zM291 651q0 -151 80 -293l825 856q-128 125 -332 125 q-164 0 -293.5 -84t-204.5 -241.5t-75 -362.5zM444 268q52 -60 144.5 -95.5t204.5 -35.5q160 0 290 83t204.5 232.5t74.5 335.5q0 203 -86 336z" />
<glyph unicode="&#xd9;" horiz-adv-x="1431" d="M145 367q0 63 23 178l168 776h-146l33 154h498l-33 -154h-158l-163 -756q-17 -87 -17 -153q0 -130 71.5 -198.5t205.5 -68.5q156 0 232.5 92t121.5 300l170 784h-160l35 154h498l-33 -154h-145l-172 -801q-35 -166 -78.5 -267t-128.5 -173q-134 -115 -359 -115 q-220 0 -341.5 107.5t-121.5 294.5zM696 1966h187l135 -348h-111z" />
<glyph unicode="&#xda;" horiz-adv-x="1431" d="M145 367q0 63 23 178l168 776h-146l33 154h498l-33 -154h-158l-163 -756q-17 -87 -17 -153q0 -130 71.5 -198.5t205.5 -68.5q156 0 232.5 92t121.5 300l170 784h-160l35 154h498l-33 -154h-145l-172 -801q-35 -166 -78.5 -267t-128.5 -173q-134 -115 -359 -115 q-220 0 -341.5 107.5t-121.5 294.5zM743 1618l283 348h186l-358 -348h-111z" />
<glyph unicode="&#xdb;" horiz-adv-x="1431" d="M145 367q0 63 23 178l168 776h-146l33 154h498l-33 -154h-158l-163 -756q-17 -87 -17 -153q0 -130 71.5 -198.5t205.5 -68.5q156 0 232.5 92t121.5 300l170 784h-160l35 154h498l-33 -154h-145l-172 -801q-35 -166 -78.5 -267t-128.5 -173q-134 -115 -359 -115 q-220 0 -341.5 107.5t-121.5 294.5zM592 1616l272 350h183l120 -350h-110l-127 238l-227 -238h-111z" />
<glyph unicode="&#xdc;" horiz-adv-x="1431" d="M145 367q0 63 23 178l168 776h-146l33 154h498l-33 -154h-158l-163 -756q-17 -87 -17 -153q0 -130 71.5 -198.5t205.5 -68.5q156 0 232.5 92t121.5 300l170 784h-160l35 154h498l-33 -154h-145l-172 -801q-35 -166 -78.5 -267t-128.5 -173q-134 -115 -359 -115 q-220 0 -341.5 107.5t-121.5 294.5zM639 1679l41 197h176l-43 -197h-174zM975 1679l41 197h176l-43 -197h-174z" />
<glyph unicode="&#xdd;" horiz-adv-x="1208" d="M115 1321l32 154h480l-33 -154h-148l175 -471l374 471h-143l33 154h479l-35 -154h-121l-524 -645l-113 -520h168l-32 -156h-535l35 156h172l113 524l-250 641h-127zM655 1618l283 348h186l-358 -348h-111z" />
<glyph unicode="&#xde;" horiz-adv-x="1251" d="M-90 0l35 156h143l252 1165h-145l34 154h484l-35 -154h-143l-31 -156h188q247 0 372.5 -93.5t125.5 -278.5q0 -228 -170 -348.5t-500 -120.5h-198l-37 -168h153l-32 -156h-496zM352 473h199q444 0 444 311q0 232 -313 232h-209z" />
<glyph unicode="&#xdf;" horiz-adv-x="1175" d="M-106 0l32 150h137l193 894q46 214 157.5 318t297.5 104q162 0 257 -84t95 -223q0 -123 -72 -209.5t-211 -130.5q121 -31 185.5 -116t64.5 -216q0 -234 -137 -374t-373 -140q-38 0 -162 15l33 147q92 -10 125 -10q163 0 252.5 99t89.5 278q0 233 -299 233h-8l31 144 q149 6 231 78t82 190q0 86 -53 136t-144 50q-206 0 -264 -264l-229 -1069h-311z" />
<glyph unicode="&#xe0;" horiz-adv-x="1208" d="M-2 399q0 243 146.5 400t367.5 157q227 0 356 -176l31 148h164l-168 -776h139l-33 -152h-286l28 133q-154 -160 -360 -160q-168 0 -276.5 119t-108.5 307zM178 397q0 -122 72.5 -199t187.5 -77q149 0 259 123.5t110 298.5q0 119 -75.5 195.5t-190.5 76.5 q-164 0 -263.5 -114.5t-99.5 -303.5zM479 1415h187l135 -348h-111z" />
<glyph unicode="&#xe1;" horiz-adv-x="1208" d="M-2 399q0 243 146.5 400t367.5 157q227 0 356 -176l31 148h164l-168 -776h139l-33 -152h-286l28 133q-154 -160 -360 -160q-168 0 -276.5 119t-108.5 307zM178 397q0 -122 72.5 -199t187.5 -77q149 0 259 123.5t110 298.5q0 119 -75.5 195.5t-190.5 76.5 q-164 0 -263.5 -114.5t-99.5 -303.5zM526 1067l283 348h186l-358 -348h-111z" />
<glyph unicode="&#xe2;" horiz-adv-x="1208" d="M-2 399q0 243 146.5 400t367.5 157q227 0 356 -176l31 148h164l-168 -776h139l-33 -152h-286l28 133q-154 -160 -360 -160q-168 0 -276.5 119t-108.5 307zM178 397q0 -122 72.5 -199t187.5 -77q149 0 259 123.5t110 298.5q0 119 -75.5 195.5t-190.5 76.5 q-164 0 -263.5 -114.5t-99.5 -303.5zM375 1065l272 350h183l120 -350h-110l-127 238l-227 -238h-111z" />
<glyph unicode="&#xe3;" horiz-adv-x="1208" d="M-2 399q0 243 146.5 400t367.5 157q227 0 356 -176l31 148h164l-168 -776h139l-33 -152h-286l28 133q-154 -160 -360 -160q-168 0 -276.5 119t-108.5 307zM178 397q0 -122 72.5 -199t187.5 -77q149 0 259 123.5t110 298.5q0 119 -75.5 195.5t-190.5 76.5 q-164 0 -263.5 -114.5t-99.5 -303.5zM379 1114q85 199 231 199q35 0 76 -13l82 -26q21 -8 47 -8q71 0 111 73h90q-90 -202 -238 -202q-29 0 -67 10l-80 24q-34 11 -53 11q-67 0 -111 -68h-88z" />
<glyph unicode="&#xe4;" horiz-adv-x="1208" d="M-2 399q0 243 146.5 400t367.5 157q227 0 356 -176l31 148h164l-168 -776h139l-33 -152h-286l28 133q-154 -160 -360 -160q-168 0 -276.5 119t-108.5 307zM178 397q0 -122 72.5 -199t187.5 -77q149 0 259 123.5t110 298.5q0 119 -75.5 195.5t-190.5 76.5 q-164 0 -263.5 -114.5t-99.5 -303.5zM422 1128l41 197h176l-43 -197h-174zM758 1128l41 197h176l-43 -197h-174z" />
<glyph unicode="&#xe5;" horiz-adv-x="1208" d="M-2 399q0 243 146.5 400t367.5 157q227 0 356 -176l31 148h164l-168 -776h139l-33 -152h-286l28 133q-154 -160 -360 -160q-168 0 -276.5 119t-108.5 307zM178 397q0 -122 72.5 -199t187.5 -77q149 0 259 123.5t110 298.5q0 119 -75.5 195.5t-190.5 76.5 q-164 0 -263.5 -114.5t-99.5 -303.5zM387 1278q0 101 70.5 170.5t171.5 69.5t171 -69.5t70 -170.5t-70 -171.5t-171 -70.5q-103 0 -172.5 69.5t-69.5 172.5zM498 1276q0 -56 38 -93.5t93 -37.5t93 38.5t38 92.5q0 56 -38 93.5t-93 37.5q-56 0 -93.5 -37t-37.5 -94z" />
<glyph unicode="&#xe6;" horiz-adv-x="1890" d="M12 399q0 241 145.5 399t360.5 158q218 0 336 -155l29 127h151l-26 -121q142 151 344 151q190 0 306 -109t116 -288q0 -39 -13 -125h-770q-4 -36 -4 -53q0 -123 69 -188.5t197 -65.5q192 0 314 137l88 -110q-163 -187 -420 -187q-224 0 -340 168l-27 -137h-151l26 127 q-150 -156 -340 -156q-171 0 -281 120t-110 308zM193 406q0 -131 71.5 -208t186.5 -77q148 0 252 122t104 300q0 123 -74 197.5t-194 74.5q-147 0 -246.5 -115t-99.5 -294zM1014 555h594q-3 127 -72.5 198.5t-189.5 71.5q-119 0 -205 -69.5t-127 -200.5z" />
<glyph unicode="&#xe7;" horiz-adv-x="1044" d="M4 401q0 245 147.5 400t378.5 155q190 0 308 -106l18 78l129 -6l-70 -330l-131 6l21 98q-96 125 -260 125q-154 0 -256.5 -112t-102.5 -283q0 -142 75 -220.5t212 -78.5q181 0 324 152l84 -109q-186 -201 -430 -201q-200 0 -323.5 122t-123.5 310zM62 -426l24 107 q115 -50 221 -50q74 0 114 26t40 71q0 44 -30 61.5t-99 17.5q-7 0 -23 -1t-24 -1l43 195h78l-23 -102h14q93 0 142 -39t49 -113q0 -98 -71 -155.5t-197 -57.5q-124 0 -258 41z" />
<glyph unicode="&#xe8;" horiz-adv-x="1112" d="M4 406q0 152 72.5 278.5t198.5 199t278 72.5q198 0 314 -107.5t116 -287.5q0 -51 -12 -125h-783q0 -6 -1 -17.5t-1 -17.5q0 -128 73.5 -200t203.5 -72q191 0 311 137l90 -110q-170 -185 -403 -185q-206 0 -331.5 120t-125.5 315zM211 555h606q-1 125 -70.5 197.5 t-185.5 72.5q-125 0 -216 -70t-134 -200zM446 1415h187l135 -348h-111z" />
<glyph unicode="&#xe9;" horiz-adv-x="1112" d="M4 406q0 152 72.5 278.5t198.5 199t278 72.5q198 0 314 -107.5t116 -287.5q0 -51 -12 -125h-783q0 -6 -1 -17.5t-1 -17.5q0 -128 73.5 -200t203.5 -72q191 0 311 137l90 -110q-170 -185 -403 -185q-206 0 -331.5 120t-125.5 315zM211 555h606q-1 125 -70.5 197.5 t-185.5 72.5q-125 0 -216 -70t-134 -200zM494 1067l282 348h187l-359 -348h-110z" />
<glyph unicode="&#xea;" horiz-adv-x="1112" d="M4 406q0 152 72.5 278.5t198.5 199t278 72.5q198 0 314 -107.5t116 -287.5q0 -51 -12 -125h-783q0 -6 -1 -17.5t-1 -17.5q0 -128 73.5 -200t203.5 -72q191 0 311 137l90 -110q-170 -185 -403 -185q-206 0 -331.5 120t-125.5 315zM211 555h606q-1 125 -70.5 197.5 t-185.5 72.5q-125 0 -216 -70t-134 -200zM342 1065l272 350h183l120 -350h-110l-127 238l-227 -238h-111z" />
<glyph unicode="&#xeb;" horiz-adv-x="1112" d="M4 406q0 152 72.5 278.5t198.5 199t278 72.5q198 0 314 -107.5t116 -287.5q0 -51 -12 -125h-783q0 -6 -1 -17.5t-1 -17.5q0 -128 73.5 -200t203.5 -72q191 0 311 137l90 -110q-170 -185 -403 -185q-206 0 -331.5 120t-125.5 315zM211 555h606q-1 125 -70.5 197.5 t-185.5 72.5q-125 0 -216 -70t-134 -200zM389 1128l41 197h176l-43 -197h-174zM725 1128l41 197h176l-43 -197h-174z" />
<glyph unicode="&#xec;" horiz-adv-x="577" d="M-94 0l33 152h141l135 628h-141l32 148h318l-166 -776h145l-32 -152h-465zM176 1415h187l135 -348h-111z" />
<glyph unicode="&#xed;" horiz-adv-x="577" d="M-94 0l33 152h141l135 628h-141l32 148h318l-166 -776h145l-32 -152h-465zM223 1067l283 348h186l-358 -348h-111z" />
<glyph unicode="&#xee;" horiz-adv-x="577" d="M-94 0l33 152h141l135 628h-141l32 148h318l-166 -776h145l-32 -152h-465zM72 1065l272 350h183l120 -350h-110l-127 238l-227 -238h-111z" />
<glyph unicode="&#xef;" horiz-adv-x="577" d="M-94 0l33 152h141l135 628h-141l32 148h318l-166 -776h145l-32 -152h-465zM119 1128l41 197h176l-43 -197h-174zM455 1128l41 197h176l-43 -197h-174z" />
<glyph unicode="&#xf0;" d="M12 428q0 173 111 315q77 98 182 151.5t223 53.5t240 -67l-106 288l-326 -67l-27 112l314 62l-45 117h-185l29 110h270l82 -198l275 51l22 -105l-254 -51l113 -289q69 -181 69 -362q0 -260 -148.5 -416t-385.5 -156q-196 0 -324.5 128.5t-128.5 322.5zM184 440 q0 -141 83 -228t218 -87q142 0 240 102.5t98 245.5q0 146 -81.5 237t-206.5 91q-153 0 -252 -102t-99 -259z" />
<glyph unicode="&#xf1;" horiz-adv-x="1200" d="M-98 0l32 152h142l135 628h-141l32 148h314l-33 -150q195 168 387 168q108 0 169.5 -59t61.5 -164q0 -45 -22 -150l-90 -421h137l-33 -152h-456l32 152h142l90 413q12 49 12 105t-32.5 86t-92.5 30q-155 0 -338 -180l-98 -454h147l-32 -152h-465zM387 1114 q85 199 231 199q35 0 76 -13l82 -26q21 -8 47 -8q71 0 111 73h90q-90 -202 -238 -202q-29 0 -67 10l-80 24q-34 11 -53 11q-67 0 -111 -68h-88z" />
<glyph unicode="&#xf2;" d="M2 418q0 153 69.5 276t191.5 191.5t274 68.5q209 0 339 -127.5t130 -326.5q0 -228 -154 -379.5t-385 -151.5q-207 0 -336 126.5t-129 322.5zM184 440q0 -141 83 -228t218 -87q142 0 240 102.5t98 245.5q0 146 -81.5 237t-206.5 91q-153 0 -252 -102t-99 -259zM391 1415 h187l135 -348h-111z" />
<glyph unicode="&#xf3;" d="M2 418q0 153 69.5 276t191.5 191.5t274 68.5q209 0 339 -127.5t130 -326.5q0 -228 -154 -379.5t-385 -151.5q-207 0 -336 126.5t-129 322.5zM184 440q0 -141 83 -228t218 -87q142 0 240 102.5t98 245.5q0 146 -81.5 237t-206.5 91q-153 0 -252 -102t-99 -259zM438 1067 l283 348h186l-358 -348h-111z" />
<glyph unicode="&#xf4;" d="M2 418q0 153 69.5 276t191.5 191.5t274 68.5q209 0 339 -127.5t130 -326.5q0 -228 -154 -379.5t-385 -151.5q-207 0 -336 126.5t-129 322.5zM184 440q0 -141 83 -228t218 -87q142 0 240 102.5t98 245.5q0 146 -81.5 237t-206.5 91q-153 0 -252 -102t-99 -259zM287 1065 l272 350h183l120 -350h-110l-127 238l-227 -238h-111z" />
<glyph unicode="&#xf5;" d="M2 418q0 153 69.5 276t191.5 191.5t274 68.5q209 0 339 -127.5t130 -326.5q0 -228 -154 -379.5t-385 -151.5q-207 0 -336 126.5t-129 322.5zM184 440q0 -141 83 -228t218 -87q142 0 240 102.5t98 245.5q0 146 -81.5 237t-206.5 91q-153 0 -252 -102t-99 -259zM291 1114 q85 199 231 199q35 0 76 -13l82 -26q21 -8 47 -8q71 0 111 73h90q-90 -202 -238 -202q-29 0 -67 10l-80 24q-34 11 -54 11q-66 0 -110 -68h-88z" />
<glyph unicode="&#xf6;" d="M2 418q0 153 69.5 276t191.5 191.5t274 68.5q209 0 339 -127.5t130 -326.5q0 -228 -154 -379.5t-385 -151.5q-207 0 -336 126.5t-129 322.5zM184 440q0 -141 83 -228t218 -87q142 0 240 102.5t98 245.5q0 146 -81.5 237t-206.5 91q-153 0 -252 -102t-99 -259zM334 1128 l41 197h176l-43 -197h-174zM670 1128l41 197h176l-43 -197h-174z" />
<glyph unicode="&#xf7;" horiz-adv-x="1705" d="M254 553v117h1198v-117h-1198zM739 250q0 49 34 82t81 33q46 0 80.5 -34t34.5 -81t-33 -81t-82 -34q-47 0 -81 34t-34 81zM739 971q0 47 34.5 80.5t80.5 33.5q47 0 81 -33.5t34 -80.5t-33 -81t-82 -34t-82 33.5t-33 81.5z" />
<glyph unicode="&#xf8;" d="M-84 -53l184 182q-98 112 -98 291q0 233 153.5 384.5t385.5 151.5q164 0 288 -90l111 113h147l-184 -184q103 -124 103 -303q0 -145 -69.5 -264.5t-192.5 -189t-273 -69.5q-176 0 -297 88l-111 -110h-147zM182 438q0 -103 43 -182l484 489q-71 58 -177 58 q-154 0 -252 -102t-98 -263zM295 182q76 -55 199 -55q142 0 237.5 99.5t95.5 252.5q0 101 -51 189z" />
<glyph unicode="&#xf9;" horiz-adv-x="1189" d="M57 780l33 148h313l-122 -568q-13 -63 -13 -94q0 -62 33 -94.5t94 -32.5q144 0 336 180l100 461h-147l33 148h323l-168 -776h142l-33 -152h-315l32 147q-216 -165 -387 -165q-109 0 -169 58.5t-60 162.5q0 59 20 149l93 428h-138zM471 1415h187l135 -348h-111z" />
<glyph unicode="&#xfa;" horiz-adv-x="1189" d="M57 780l33 148h313l-122 -568q-13 -63 -13 -94q0 -62 33 -94.5t94 -32.5q144 0 336 180l100 461h-147l33 148h323l-168 -776h142l-33 -152h-315l32 147q-216 -165 -387 -165q-109 0 -169 58.5t-60 162.5q0 59 20 149l93 428h-138zM518 1067l283 348h186l-358 -348h-111z " />
<glyph unicode="&#xfb;" horiz-adv-x="1189" d="M57 780l33 148h313l-122 -568q-13 -63 -13 -94q0 -62 33 -94.5t94 -32.5q144 0 336 180l100 461h-147l33 148h323l-168 -776h142l-33 -152h-315l32 147q-216 -165 -387 -165q-109 0 -169 58.5t-60 162.5q0 59 20 149l93 428h-138zM367 1065l272 350h183l120 -350h-110 l-127 238l-227 -238h-111z" />
<glyph unicode="&#xfc;" horiz-adv-x="1189" d="M57 780l33 148h313l-122 -568q-13 -63 -13 -94q0 -62 33 -94.5t94 -32.5q144 0 336 180l100 461h-147l33 148h323l-168 -776h142l-33 -152h-315l32 147q-216 -165 -387 -165q-109 0 -169 58.5t-60 162.5q0 59 20 149l93 428h-138zM414 1128l41 197h176l-43 -197h-174z M750 1128l41 197h176l-43 -197h-174z" />
<glyph unicode="&#xfd;" horiz-adv-x="1048" d="M-117 -393l31 145h154l198 301l-170 727h-110l32 148h437l-33 -148h-150l123 -544l350 544h-155l33 148h444l-33 -148h-100l-678 -1028h164l-31 -145h-506zM458 1067l283 348h186l-358 -348h-111z" />
<glyph unicode="&#xfe;" horiz-adv-x="1216" d="M-186 -393l32 151h142l336 1557h-142l33 149h317l-141 -655q139 145 322 145q167 0 277 -120.5t110 -305.5q0 -244 -146 -400.5t-366 -156.5q-110 0 -198.5 46t-141.5 130l-84 -389h153l-32 -151h-471zM295 391q0 -126 75 -202t193 -76q157 0 257 112t100 289 q0 135 -70 214t-184 79q-154 0 -262.5 -120t-108.5 -296z" />
<glyph unicode="&#xff;" horiz-adv-x="1048" d="M-117 -393l31 145h154l198 301l-170 727h-110l32 148h437l-33 -148h-150l123 -544l350 544h-155l33 148h444l-33 -148h-100l-678 -1028h164l-31 -145h-506zM354 1128l41 197h176l-43 -197h-174zM690 1128l41 197h176l-43 -197h-174z" />
<glyph unicode="&#x152;" horiz-adv-x="2086" d="M84 610q0 217 85 402t239 309q115 93 258 132.5t335 39.5q69 0 222 -9t235 -9h690l-73 -340h-168l39 186h-535l-98 -459h264l31 144h153l-100 -467h-152l33 153h-266l-117 -536h555l51 247h170l-88 -403h-719q-73 0 -205 -10t-190 -10q-303 0 -476 170t-173 460zM283 629 q0 -228 129.5 -357t361.5 -129q69 0 199 13l250 1165q-167 10 -267 10q-146 0 -250.5 -33.5t-193.5 -115.5q-105 -95 -167 -242.5t-62 -310.5z" />
<glyph unicode="&#x153;" horiz-adv-x="1916" d="M2 426q0 108 42 205.5t114.5 168.5t174.5 112.5t216 41.5q124 0 223 -55t162 -158q86 104 197 159.5t233 55.5q196 0 313 -108t117 -287q0 -49 -12 -125h-783q0 -6 -1 -17.5t-1 -17.5q0 -128 73.5 -200t203.5 -72q188 0 313 137l88 -110q-86 -95 -186.5 -140t-226.5 -45 q-123 0 -224 53t-157 146q-163 -201 -426 -201q-196 0 -324.5 129t-128.5 328zM182 430q0 -139 81 -222t216 -83q145 0 244.5 108t99.5 263q0 137 -82 221t-215 84q-142 0 -243 -107.5t-101 -263.5zM1022 555h606q-3 126 -71.5 198t-184.5 72q-125 0 -215.5 -69.5 t-134.5 -200.5z" />
<glyph unicode="&#x178;" horiz-adv-x="1208" d="M115 1321l32 154h480l-33 -154h-148l175 -471l374 471h-143l33 154h479l-35 -154h-121l-524 -645l-113 -520h168l-32 -156h-535l35 156h172l113 524l-250 641h-127zM551 1679l41 197h176l-43 -197h-174zM887 1679l41 197h176l-43 -197h-174z" />
<glyph unicode="&#x2c6;" horiz-adv-x="1024" d="M295 1065l272 350h183l120 -350h-110l-127 238l-227 -238h-111z" />
<glyph unicode="&#x2dc;" horiz-adv-x="1024" d="M299 1114q85 199 231 199q35 0 76 -13l82 -26q21 -8 47 -8q71 0 111 73h90q-90 -202 -238 -202q-29 0 -67 10l-80 24q-34 11 -53 11q-67 0 -111 -68h-88z" />
<glyph unicode="&#x2000;" horiz-adv-x="1019" />
<glyph unicode="&#x2001;" horiz-adv-x="2038" />
<glyph unicode="&#x2002;" horiz-adv-x="1019" />
<glyph unicode="&#x2003;" horiz-adv-x="2038" />
<glyph unicode="&#x2004;" horiz-adv-x="679" />
<glyph unicode="&#x2005;" horiz-adv-x="509" />
<glyph unicode="&#x2006;" horiz-adv-x="339" />
<glyph unicode="&#x2007;" horiz-adv-x="339" />
<glyph unicode="&#x2008;" horiz-adv-x="254" />
<glyph unicode="&#x2009;" horiz-adv-x="407" />
<glyph unicode="&#x200a;" horiz-adv-x="113" />
<glyph unicode="&#x2010;" horiz-adv-x="690" d="M10 385l35 166h520l-35 -166h-520z" />
<glyph unicode="&#x2011;" horiz-adv-x="690" d="M10 385l35 166h520l-35 -166h-520z" />
<glyph unicode="&#x2012;" horiz-adv-x="690" d="M10 385l35 166h520l-35 -166h-520z" />
<glyph unicode="&#x2013;" horiz-adv-x="1024" d="M-72 408l27 122h1024l-27 -122h-1024z" />
<glyph unicode="&#x2014;" horiz-adv-x="2048" d="M-72 408l27 122h2048l-27 -122h-2048z" />
<glyph unicode="&#x2018;" horiz-adv-x="530" d="M172 1087l244 388h178l-209 -388h-213z" />
<glyph unicode="&#x2019;" horiz-adv-x="530" d="M164 1087l209 388h213l-244 -388h-178z" />
<glyph unicode="&#x201a;" horiz-adv-x="530" d="M-102 -156l206 387h213l-243 -387h-176z" />
<glyph unicode="&#x201c;" horiz-adv-x="890" d="M180 1087l242 388h178l-207 -388h-213zM528 1087l242 388h178l-207 -388h-213z" />
<glyph unicode="&#x201d;" horiz-adv-x="890" d="M172 1087l207 388h213l-244 -388h-176zM520 1087l207 388h213l-242 -388h-178z" />
<glyph unicode="&#x201e;" horiz-adv-x="890" d="M-96 -156l207 387h213l-242 -387h-178zM252 -156l209 387h211l-242 -387h-178z" />
<glyph unicode="&#x2022;" horiz-adv-x="1208" d="M307 762q0 123 87 209t210 86q122 0 208.5 -86t86.5 -209q0 -122 -87 -209.5t-210 -87.5t-209 87t-86 210z" />
<glyph unicode="&#x2026;" horiz-adv-x="2048" d="M78 0l51 231h209l-51 -231h-209zM760 0l51 231h209l-51 -231h-209zM1444 0l51 231h209l-51 -231h-209z" />
<glyph unicode="&#x202f;" horiz-adv-x="407" />
<glyph unicode="&#x2039;" horiz-adv-x="436" d="M-6 467l276 395l117 -76l-246 -333l92 -334l-133 -45z" />
<glyph unicode="&#x203a;" horiz-adv-x="436" d="M-53 135l231 346l-106 328l131 49l121 -387l-258 -405z" />
<glyph unicode="&#x205f;" horiz-adv-x="509" />
<glyph unicode="&#x2122;" horiz-adv-x="1705" d="M254 1389v67h440v-67h-172v-467h-94v467h-174zM819 922v534h129l160 -405l149 405h132v-534h-82v458l-172 -458h-54l-180 458v-458h-82z" />
<glyph unicode="&#x25fc;" horiz-adv-x="931" d="M0 0v932h932v-932h-932z" />
<glyph unicode="&#xfb01;" horiz-adv-x="1173" d="M-96 0l33 152h145l135 628h-145l30 148h148l47 225q34 161 102.5 236t188.5 75q77 0 139 -22l-33 -142q-41 15 -76 15q-63 0 -94.5 -37.5t-50.5 -126.5l-47 -223h172l-31 -148h-172l-135 -628h164l-33 -152h-487zM504 0l33 152h141l135 628h-141l33 148h317l-168 -776 h147l-32 -152h-465zM838 1102l45 209h198l-45 -209h-198z" />
<glyph unicode="&#xfb02;" horiz-adv-x="1179" d="M-96 0l33 152h145l135 628h-145l30 148h148l47 225q34 161 102.5 236t188.5 75q77 0 139 -22l-33 -142q-41 15 -76 15q-63 0 -94.5 -37.5t-50.5 -126.5l-47 -223h172l-31 -148h-172l-135 -628h164l-33 -152h-487zM504 0l33 154h141l250 1161h-142l33 149h320l-283 -1310 h148l-33 -154h-467z" />
</font>
</defs>
</svg>
