<?xml version="1.0" standalone="no"?>
<!DOCTYPE svg PUBLIC "-//W3C//DTD SVG 1.1//EN" "http://www.w3.org/Graphics/SVG/1.1/DTD/svg11.dtd" >
<svg xmlns="http://www.w3.org/2000/svg">
<metadata></metadata>
<defs>
<font id="stymietruextboldregular" horiz-adv-x="1308" >
<font-face units-per-em="2048" ascent="1638" descent="-410" />
<missing-glyph horiz-adv-x="614" />
<glyph horiz-adv-x="2048" />
<glyph horiz-adv-x="2048" />
<glyph unicode="&#xd;" horiz-adv-x="614" />
<glyph unicode=" "  horiz-adv-x="614" />
<glyph unicode="&#x09;" horiz-adv-x="614" />
<glyph unicode="&#xa0;" horiz-adv-x="614" />
<glyph unicode="!" horiz-adv-x="749" d="M166 1012v463h418v-463l-105 -482h-229zM188 0v412h371v-412h-371z" />
<glyph unicode="&#x22;" horiz-adv-x="757" d="M68 877v563h258v-563h-258zM430 877v563h260v-563h-260z" />
<glyph unicode="#" horiz-adv-x="1574" d="M-6 350l100 271h254l74 213h-258l98 270h258l129 366h289l-129 -366h227l129 366h289l-129 -366h256l-100 -270h-252l-76 -213h258l-100 -271h-254l-131 -366h-289l131 366h-227l-131 -366h-289l131 366h-258zM629 621h239l78 213h-239z" />
<glyph unicode="$" d="M57 340l275 139q51 -86 107.5 -132t133.5 -56v239q-240 29 -361.5 143.5t-121.5 307.5q0 100 33 183t95.5 144.5t152.5 98.5t202 43v129h148v-131q160 -8 278.5 -91t190.5 -239l-260 -123q-104 158 -209 179v-254q498 -66 498 -455q0 -211 -128 -332t-370 -129v-162h-148 v162q-379 29 -516 336zM453 1065q0 -41 30.5 -72.5t89.5 -42.5v226q-55 -4 -87.5 -37t-32.5 -74zM721 287q127 25 127 114q0 45 -32 76t-95 39v-229z" />
<glyph unicode="%" horiz-adv-x="1918" d="M66 1098q0 76 29.5 145.5t82.5 122.5q113 113 271 113t270 -113q113 -113 112 -268q0 -158 -112 -271q-113 -113 -270 -112q-158 0 -271 112q-112 113 -112 271zM295 1098q0 -66 44 -111t110 -45t110.5 45t44.5 111q0 63 -45 108t-110 45q-66 0 -110 -43.5t-44 -109.5z M451 -25l800 1504h217l-800 -1504h-217zM1087 360q0 76 30 144.5t83 122.5q115 115 270 114q78 0 147 -29.5t124 -84.5q113 -113 112 -267q0 -78 -28.5 -147.5t-83.5 -124.5q-113 -113 -271 -113t-270 113q-113 112 -113 272zM1317 358q0 -66 44 -110.5t109 -44.5 q66 0 111 45t45 110q0 63 -45 108.5t-111 45.5t-109.5 -44t-43.5 -110z" />
<glyph unicode="&#x26;" horiz-adv-x="1527" d="M33 369q0 276 334 426l-35 45q-55 72 -88 137t-33 145q0 84 34 155t97.5 122t154.5 79.5t203 28.5q102 0 184.5 -27.5t138.5 -74.5t87 -112.5t31 -139.5q0 -117 -63.5 -200t-194.5 -148l153 -201q68 88 107 201h317q-49 -139 -107.5 -249t-129.5 -194l278 -362h-526 l-94 123q-154 -160 -406 -160q-102 0 -183 31t-139.5 84t-89 128t-30.5 163zM442 446q0 -68 44 -112.5t108 -44.5q72 0 123 51l-201 260q-74 -72 -74 -154zM641 1161q0 -72 94 -172q98 100 99 176q0 41 -27 66.5t-68 25.5q-43 0 -70.5 -27.5t-27.5 -68.5z" />
<glyph unicode="'" horiz-adv-x="393" d="M68 877v563h258v-563h-258z" />
<glyph unicode="(" horiz-adv-x="708" d="M137 596q0 453 264 911h238q-117 -223 -173 -440t-56 -451q0 -432 223 -897h-230q-266 438 -266 877z" />
<glyph unicode=")" horiz-adv-x="708" d="M70 -281q117 223 173 440.5t56 450.5q0 432 -223 897h229q266 -438 266 -876q0 -225 -65.5 -453.5t-198.5 -458.5h-237z" />
<glyph unicode="*" horiz-adv-x="1024" d="M55 1085l78 240l260 -92v274h238v-274l260 90l78 -238l-273 -73l191 -240l-205 -143l-170 248l-172 -250l-205 147l191 236z" />
<glyph unicode="+" horiz-adv-x="1705" d="M254 475v273h459v473h280v-473h459v-273h-459v-475h-280v475h-459z" />
<glyph unicode="," horiz-adv-x="591" d="M25 -262l143 678h379l-273 -678h-249z" />
<glyph unicode="-" horiz-adv-x="860" d="M139 303v375h582v-375h-582z" />
<glyph unicode="." horiz-adv-x="591" d="M111 0v412h370v-412h-370z" />
<glyph unicode="/" horiz-adv-x="778" d="M-78 -190l750 1697h237l-745 -1697h-242z" />
<glyph unicode="0" d="M57 727q0 365 157 558.5t439 193.5q283 0 440.5 -193.5t157.5 -558.5t-157.5 -558.5t-440.5 -193.5t-439.5 193.5t-156.5 558.5zM508 727q0 -240 27.5 -356.5t117.5 -116.5t119 116.5t29 356.5t-29 355.5t-119 115.5t-117.5 -115.5t-27.5 -355.5z" />
<glyph unicode="1" d="M317 0v281h142v903h-142v272h545v-1175h142v-281h-687z" />
<glyph unicode="2" d="M57 0v29q0 156 78 294t230 289q92 92 161.5 151.5t110.5 98.5q47 45 74.5 84t27.5 92q0 66 -40 107t-105 41q-168 0 -168 -254v-8l-336 18q16 260 163.5 398.5t408.5 138.5q117 0 212 -32t160.5 -91.5t101 -143.5t35.5 -188q0 -74 -20.5 -134.5t-59 -112.5t-97 -101 t-134.5 -101q-43 -29 -89 -57.5t-93 -60t-94 -68.5t-90 -82h407v199h270v-506h-1114z" />
<glyph unicode="3" d="M76 440l323 56q27 -221 213 -222q78 0 122 42t44 110q0 78 -62.5 122t-180.5 44h-24.5t-25.5 -2v291h33q240 0 240 163q0 61 -41 99.5t-107 38.5q-80 0 -130 -56.5t-68 -154.5l-312 67q61 213 206 325t356 112q117 0 211 -32t160.5 -87.5t101 -131t34.5 -163.5 q0 -131 -68.5 -209t-193.5 -92q145 -8 226 -100.5t81 -251.5q0 -98 -37.5 -178t-110.5 -136.5t-176.5 -88.5t-232.5 -32q-264 0 -410.5 118t-170.5 349z" />
<glyph unicode="4" d="M37 416v295l647 743h365v-743h225v-295h-225v-135h141v-281h-688v281h143v135h-608zM340 711h305v350z" />
<glyph unicode="5" d="M72 399l331 107q43 -215 191 -215q72 0 118 48t46 126q0 100 -70 164.5t-176 64.5q-104 0 -211 -82l-145 105l77 739h902v-389h-273v96h-368l-25 -241q63 35 130 51t140 16q104 0 193.5 -35.5t154 -100.5t100.5 -154t36 -195q0 -121 -41 -218.5t-118 -167t-187.5 -107.5 t-247.5 -38q-459 0 -557 426z" />
<glyph unicode="6" d="M63 688q0 174 51.5 320.5t140.5 251t211 163t263 58.5q164 0 281.5 -80t171.5 -223l-299 -140q-68 137 -164 138q-181 0 -195 -336q123 115 285 114q94 0 174 -32.5t138.5 -92t91 -142.5t32.5 -181q0 -123 -39 -221.5t-112.5 -167t-179 -105.5t-238.5 -37 q-135 0 -247 51.5t-193.5 145.5t-127 225t-45.5 291zM522 455q0 -88 38 -136.5t108 -48.5q66 0 105.5 50.5t39.5 138.5t-40 137t-103 49q-68 0 -108 -51t-40 -139z" />
<glyph unicode="7" d="M129 891v565h1094v-295l-406 -880h141v-281h-673v281h141l405 880h-399v-270h-303z" />
<glyph unicode="8" d="M53 397q0 135 90 228.5t260 124.5q-143 35 -220 123t-77 206q0 182 140.5 290t400.5 108q276 0 420.5 -107.5t144.5 -300.5q0 -117 -75.5 -202t-223.5 -122q78 -10 140.5 -39.5t105.5 -74.5t66.5 -102.5t23.5 -120.5q0 -203 -155.5 -318t-454.5 -115q-139 0 -248.5 30 t-184.5 85t-114 133t-39 174zM498 414q0 -66 44 -111t109 -45q66 0 110 45t44 111q0 63 -44 108t-110 45t-109.5 -45t-43.5 -108zM522 1055q0 -57 39 -96t96 -39t96.5 38.5t39.5 96.5q0 55 -39 95t-97 40q-57 0 -96 -40t-39 -95z" />
<glyph unicode="9" d="M70 971q0 111 40 204t113.5 160.5t175 105.5t224.5 38q133 0 244.5 -51.5t191.5 -144.5t124 -223t44 -290q0 -176 -50.5 -321.5t-139.5 -250t-210.5 -163t-263.5 -58.5q-168 0 -284.5 77t-169.5 225l297 139q68 -137 163 -137q181 -1 195 335q-117 -84 -254 -84 q-94 0 -175 33t-139.5 91.5t-92 138t-33.5 176.5zM489 1006q0 -84 40 -131.5t106 -47.5q68 0 107.5 49.5t39.5 135.5q0 82 -37.5 130t-97.5 48q-74 0 -116 -49t-42 -135z" />
<glyph unicode=":" horiz-adv-x="591" d="M111 0v412h370v-412h-370zM111 573v412h370v-412h-370z" />
<glyph unicode=";" horiz-adv-x="591" d="M20 -262l144 678h379l-273 -678h-250zM164 573v412h371v-412h-371z" />
<glyph unicode="&#x3c;" horiz-adv-x="1705" d="M264 471v281l1178 487v-301l-801 -328l801 -327v-299z" />
<glyph unicode="=" horiz-adv-x="1705" d="M254 240v272h1198v-272h-1198zM254 711v272h1198v-272h-1198z" />
<glyph unicode="&#x3e;" horiz-adv-x="1705" d="M264 -16v299l801 327l-801 328v301l1178 -487v-281z" />
<glyph unicode="?" horiz-adv-x="1048" d="M61 1050.5v32.5q0 205 114 314.5t331 109.5q100 0 186 -33.5t147.5 -94t96.5 -145.5t35 -187q0 -193 -101.5 -303.5t-275.5 -114.5v-99h-262v275q123 29 176 98.5t53 192.5q0 152 -102 151q-66 0 -83.5 -53t-17.5 -176h-295q-2 16 -2 32.5zM274 0v412h371v-412h-371z" />
<glyph unicode="@" horiz-adv-x="2048" d="M70 520q0 178 55 333t164 284q150 178 360.5 272t462.5 94q195 0 354.5 -54t273 -152.5t176 -234.5t62.5 -298q0 -174 -67.5 -316.5t-196.5 -240.5q-72 -57 -155.5 -85t-172.5 -28q-215 0 -233 154q-59 -78 -127 -115t-162 -37q-344 0 -344 350q0 125 39 230.5 t106.5 182.5t158.5 120t196 43q152 0 221 -111l49 82h242l-156 -626q-4 -20 -4 -31q0 -49 47 -49q59 0 118.5 36.5t108 100t78 149.5t29.5 187q0 117 -44 213t-127 165.5t-200.5 108.5t-265.5 39q-145 0 -268 -36t-223 -105q-154 -109 -238 -268.5t-84 -350.5 q0 -147 51.5 -266t147.5 -203t231 -129t305 -45q322 0 586 187l115 -160q-164 -123 -341 -181.5t-382 -58.5q-193 0 -357.5 54.5t-291.5 156.5q-297 238 -297 639zM801 440q0 -74 31.5 -112.5t85.5 -38.5q72 0 129 53t79 152l48 194q-8 70 -43 106.5t-91 36.5 q-47 0 -91 -31.5t-76.5 -84.5t-52 -124t-19.5 -151z" />
<glyph unicode="A" horiz-adv-x="1521" d="M88 0v319h107l254 840h-113v316h878v-316h-112l223 -840h109v-319h-656v319h137l-30 130h-357l-36 -130h131v-319h-535zM618 750h203l-67 284q-10 37 -25 135q-12 -72 -31 -135z" />
<glyph unicode="B" horiz-adv-x="1380" d="M88 0v324h121v835h-121v316h719q233 0 361 -102.5t128 -268.5q0 -256 -295 -348q160 -18 243 -106.5t83 -235.5q0 -414 -549 -414h-690zM633 324h100q170 0 170 145q0 66 -44 102.5t-128 36.5h-98v-284zM633 901h86q174 0 174 131q0 127 -168 127h-92v-258z" />
<glyph unicode="C" horiz-adv-x="1280" d="M45 711q0 180 44 326.5t121 251t180.5 160.5t223.5 56q186 0 306 -125v95h254v-576h-273v8q0 133 -44 200t-128 67q-104 0 -145 -106.5t-41 -330.5q0 -211 42 -310t146 -99q72 0 119 55t61 166h297q-4 -285 -146 -434.5t-409 -149.5q-139 0 -251.5 53.5t-191.5 150.5 t-122 234.5t-43 307.5z" />
<glyph unicode="D" horiz-adv-x="1433" d="M88 0v324h121v835h-121v316h643q319 0 488.5 -186.5t169.5 -547.5q0 -178 -46.5 -315t-131.5 -232.5t-206.5 -144.5t-273.5 -49h-643zM664 324h20q78 0 126 25.5t74.5 78.5t36 135t9.5 197q0 104 -12.5 180t-42 125t-78.5 71.5t-123 22.5h-10v-835z" />
<glyph unicode="E" horiz-adv-x="1333" d="M88 0v324h121v835h-121v316h1155v-564h-289v236h-295v-229h205v-353h-205v-237h295v260h289v-588h-1155z" />
<glyph unicode="F" horiz-adv-x="1312" d="M88 0v324h121v835h-121v316h1155v-566h-289v238h-295v-217h222v-369h-222v-233h123v-328h-694z" />
<glyph unicode="G" horiz-adv-x="1415" d="M45 711q0 180 45 326.5t124 250t186.5 159.5t230.5 56q195 0 315 -123v95h262v-576h-280v23q0 123 -48.5 186t-138.5 63q-66 0 -105.5 -33.5t-62 -103t-30.5 -174t-8 -248.5q0 -182 40.5 -268t145.5 -86q150 0 149 201h-131v297h627v-299h-96v-457h-262v109 q-143 -143 -351 -144q-135 0 -247.5 53.5t-193.5 151.5t-126 235.5t-45 305.5z" />
<glyph unicode="H" horiz-adv-x="1634" d="M88 0v324h121v835h-121v316h678v-316h-121v-248h344v248h-121v316h678v-316h-121v-835h121v-324h-678v324h121v262h-344v-262h121v-324h-678z" />
<glyph unicode="I" horiz-adv-x="854" d="M88 0v324h121v835h-121v316h678v-316h-121v-835h121v-324h-678z" />
<glyph unicode="J" horiz-adv-x="917" d="M37 14l29 322q27 -10 50 -17.5t48 -7.5q59 0 78.5 39t19.5 115v694h-141v316h715v-316h-140v-749q0 -227 -93 -337t-316 -110q-123 0 -250 51z" />
<glyph unicode="K" horiz-adv-x="1638" d="M88 0v324h121v835h-121v316h682v-316h-125v-366h19l352 366h-152v316h678v-316h-106l-353 -358l398 -477h96v-324h-717v324h103l-297 407h-21v-407h125v-324h-682z" />
<glyph unicode="L" horiz-adv-x="1312" d="M88 0v324h121v835h-121v316h688v-316h-108v-835h229v258h330v-582h-1139z" />
<glyph unicode="M" horiz-adv-x="1728" d="M88 0v324h121v835h-121v316h629l135 -433q10 -33 17.5 -65.5t13.5 -67.5q4 39 11 71t17 60l148 435h581v-316h-118v-837h118v-322h-632v324h120v471q0 80 2.5 142t8.5 107q-23 -80 -37.5 -128t-20.5 -68l-270 -762l-266 766q-10 29 -23.5 77t-32.5 115q6 -57 8.5 -121.5 t2.5 -136.5v-462h121v-324h-533z" />
<glyph unicode="N" horiz-adv-x="1492" d="M88 0v324h121v835h-121v316h541l350 -676q35 -70 63 -162q-4 53 -7 107.5t-3 111.5v303h-119v316h498v-316h-119v-1159h-368l-357 686q-23 45 -42 92t-33 96q6 -78 8 -136t2 -95v-319h119v-324h-533z" />
<glyph unicode="O" horiz-adv-x="1478" d="M45 721q0 180 49 325.5t139.5 248t217.5 157.5t280 55q162 0 292 -54t221 -155.5t140.5 -246t49.5 -324.5q0 -160 -48.5 -297t-138.5 -242q-100 -115 -225 -168t-289 -53q-158 0 -277.5 50.5t-219.5 160.5q-191 209 -191 543zM549 737q0 -233 37 -345.5t153 -112.5 q117 0 153 112.5t36 345.5t-36 346t-153 113t-153.5 -112.5t-36.5 -346.5z" />
<glyph unicode="P" horiz-adv-x="1363" d="M88 0v324h121v835h-121v316h741q248 0 375 -120t127 -345q0 -238 -137 -361t-410 -123h-120v-202h122v-324h-698zM664 834h26q201 0 201 174q0 151 -192 151h-3h-32v-325z" />
<glyph unicode="Q" horiz-adv-x="1478" d="M45 723q0 180 49 324.5t139.5 247t217.5 157.5t280 55q162 0 292 -54t221 -154.5t140.5 -245t49.5 -324.5q0 -152 -40 -278.5t-114 -222t-178.5 -153t-231.5 -71.5v-12q59 -10 102.5 -14.5t71.5 -4.5q70 0 135.5 14.5t135.5 39.5l119 -312q-98 -39 -184.5 -58t-166.5 -19 q-70 0 -133 14t-123.5 30.5t-118 31t-112.5 14.5q-109 0 -227 -56l-93 238q131 76 316 82v10q-264 53 -405.5 239.5t-141.5 481.5zM549 737q0 -233 37 -345.5t153 -112.5q117 0 153 112.5t36 345.5t-36 346t-153 113t-153.5 -112.5t-36.5 -346.5z" />
<glyph unicode="R" horiz-adv-x="1501" d="M88 0v324h121v835h-121v316h682q305 0 452.5 -93.5t147.5 -304.5q0 -268 -266 -352q80 -14 125 -38.5t68.5 -61.5t29.5 -90.5t6 -126.5v-84h107v-324h-543v358q0 63 -9 108.5t-31.5 73t-63.5 40t-105 12.5q-10 0 -20.5 -1t-22.5 -1v-266h125v-324h-682zM645 870 q14 -2 27.5 -2h25.5q113 0 166.5 34t53.5 112t-57.5 111.5t-180.5 33.5h-35v-289z" />
<glyph unicode="S" horiz-adv-x="1155" d="M68 993q0 117 34.5 211t96 161t148.5 103.5t192 36.5q168 0 260 -98v68h221v-478h-201q-29 201 -233 201q-57 0 -90 -25.5t-33 -64.5q0 -35 24.5 -53.5t71.5 -34.5l154 -55q100 -37 174 -79t122 -98.5t71.5 -129t23.5 -171.5q0 -123 -35 -220t-98.5 -164.5t-153.5 -103.5 t-199 -36q-106 0 -189 34t-138 95v-96h-215v512h194q68 -250 256 -250q72 0 111 30.5t39 84.5q0 82 -109 114l-131 41q-190 59 -279 169t-89 296z" />
<glyph unicode="T" horiz-adv-x="1382" d="M82 854v621h1218v-621h-262v305h-120v-835h137v-324h-736v324h142v835h-121v-305h-258z" />
<glyph unicode="U" horiz-adv-x="1421" d="M66 1159v316h663v-316h-98v-715q0 -80 40 -122.5t115 -42.5q72 0 111 43t39 120v717h-98v316h518v-316h-109v-715q0 -244 -124 -362.5t-382 -118.5q-567 0 -567 506v690h-108z" />
<glyph unicode="V" horiz-adv-x="1284" d="M20 1161v314h609v-314h-80l133 -606q10 -41 17.5 -82t11.5 -86q4 43 9 83t13 79l129 612h-80v314h482v-314h-80l-310 -1161h-468l-304 1161h-82z" />
<glyph unicode="W" horiz-adv-x="1775" d="M20 1161v314h605v-314h-88l61 -422q4 -35 7 -75.5t7 -90.5q12 119 25 168l172 734h317l154 -711q6 -31 12 -74t15 -100q2 37 8 81t14 97l64 393h-93v314h455v-314h-88l-260 -1161h-342l-154 684q-8 31 -13 74t-9 96q-6 -53 -12.5 -93t-14.5 -69l-172 -692h-336l-245 1161 h-89z" />
<glyph unicode="X" horiz-adv-x="1476" d="M53 0v324h97l354 387l-354 450h-97v314h707v-314h-98l147 -184l168 184h-107v314h553v-314h-96l-362 -395l362 -442h96v-324h-714v324h104l-147 186l-170 -186h108v-324h-551z" />
<glyph unicode="Y" horiz-adv-x="1368" d="M20 1161v314h693v-314h-101l166 -278l160 278h-96v314h506v-314h-91l-339 -553v-284h157v-324h-764v324h156v284l-356 553h-91z" />
<glyph unicode="Z" horiz-adv-x="1232" d="M51 0v324l594 837h-278v-227h-283v541h1087v-314l-596 -837h310v262h284v-586h-1118z" />
<glyph unicode="[" horiz-adv-x="591" d="M158 -250v1725h383v-175h-146v-1376h146v-174h-383z" />
<glyph unicode="\" horiz-adv-x="778" d="M-104 1507h237l750 -1697h-244z" />
<glyph unicode="]" horiz-adv-x="591" d="M53 -76h146v1376h-146v175h383v-1725h-383v174z" />
<glyph unicode="^" horiz-adv-x="2048" d="M412 897l442 565h338l442 -565h-303l-307 309l-309 -309h-303z" />
<glyph unicode="_" horiz-adv-x="1024" d="M0 -201h1024v-282h-1024v282z" />
<glyph unicode="`" horiz-adv-x="1024" d="M207 1475h287l192 -371h-154z" />
<glyph unicode="a" horiz-adv-x="1075" d="M18 309q0 166 97.5 258t269.5 92q68 0 124 -19t97 -50q0 6 1 13t1 13q0 152 -190 152q-70 0 -136.5 -16.5t-138.5 -49.5l-65 232q190 76 409 76q262 0 376 -102.5t114 -321.5v-332h78v-254h-453v80q-94 -106 -262 -107q-154 0 -238 88.5t-84 247.5zM403 332 q0 -127 107 -127q106 0 106 129q0 61 -26.5 95t-75.5 34q-53 0 -82 -34t-29 -97z" />
<glyph unicode="b" horiz-adv-x="1155" d="M20 0v254h105v965h-105v245h510v-596q90 141 261 142q160 0 256 -118t96 -335q0 -293 -106.5 -439.5t-311.5 -146.5q-197 0 -303 146v-117h-402zM518 504q0 -139 25.5 -206t87.5 -67q112 0 112 252q0 139 -23.5 205t-86.5 66q-115 0 -115 -250z" />
<glyph unicode="c" horiz-adv-x="927" d="M12 483q0 123 32 220.5t90.5 165t139 104.5t179.5 37q158 0 243 -99v74h166v-410h-164v7q0 84 -35.5 127t-99.5 43q-78 0 -111.5 -62.5t-33.5 -191.5q0 -246 137 -246q106 0 125 121h219q-12 -197 -120.5 -299.5t-303.5 -102.5q-215 0 -339 136.5t-124 375.5z" />
<glyph unicode="d" horiz-adv-x="1130" d="M12 487q0 252 103.5 387.5t277.5 135.5q121 0 228 -84v293h-105v245h512v-1210h82v-254h-471v80q-102 -109 -256 -109q-172 0 -271.5 134.5t-99.5 381.5zM414 504q0 -139 25.5 -206t86.5 -67q113 0 113 256q0 135 -23.5 200t-87.5 65q-114 0 -114 -248z" />
<glyph unicode="e" horiz-adv-x="970" d="M12 492q0 121 34 217t95.5 162.5t149.5 102.5t198 36q223 0 346 -135.5t123 -389.5v-33.5t-2 -33.5h-563v-27q0 -182 119 -182q94 0 117 125h317q-16 -164 -136 -263.5t-312 -99.5q-229 0 -357.5 136.5t-128.5 384.5zM387 600h225v27q0 168 -106 168q-115 0 -119 -195z " />
<glyph unicode="f" horiz-adv-x="653" d="M20 0v254h91v485h-91v246h86v111q0 188 97.5 287.5t279.5 99.5q72 0 150 -19v-311h-8q-70 0 -95.5 -30.5t-25.5 -106.5v-31h98v-246h-88v-485h88v-254h-582z" />
<glyph unicode="g" horiz-adv-x="1138" d="M12 506q0 115 30 209t82 160.5t125 102.5t159 36q172 0 247 -144v115h463v-242h-84v-694q0 -102 -39 -184t-111.5 -139.5t-177 -88t-235.5 -30.5q-100 0 -174 14t-117 37l39 272q92 -49 201 -49q102 0 159.5 55.5t57.5 153.5v16.5t-2 16.5q-94 -106 -240 -107 q-86 0 -155.5 34t-120.5 96.5t-79 153.5t-28 206zM422 506q0 -125 26.5 -184.5t88.5 -59.5q59 0 84.5 57.5t25.5 174.5q0 123 -24.5 180t-85.5 57q-115 0 -115 -225z" />
<glyph unicode="h" horiz-adv-x="1187" d="M20 0v254h91v965h-91v245h492v-612q66 78 138.5 117t162.5 39q133 0 205 -74t72 -215v-465h79v-254h-479v590q0 119 -88 119q-41 0 -66.5 -32t-25.5 -87v-336h86v-254h-576z" />
<glyph unicode="i" horiz-adv-x="638" d="M18 739v246h519v-731h86v-254h-586v254h98v485h-117zM139 1075v361h398v-361h-398z" />
<glyph unicode="j" horiz-adv-x="612" d="M12 -53h11q66 0 91 40t25 128v624h-108v246h506v-975q0 -199 -111 -301t-311 -102q-23 0 -47.5 2t-55.5 6v332zM145 1075v361h398v-361h-398z" />
<glyph unicode="k" horiz-adv-x="1185" d="M20 0v254h91v965h-91v245h486v-889h10l182 164h-88v246h547v-246h-88l-184 -141l200 -344h89v-254h-396l-258 494h-14v-242h88v-252h-574z" />
<glyph unicode="l" horiz-adv-x="620" d="M20 0v254h91v965h-88v245h493v-1210h86v-254h-582z" />
<glyph unicode="m" horiz-adv-x="1746" d="M20 0v254h89v485h-89v246h486v-133q125 156 299 156q203 0 258 -174q129 174 311 174q133 0 204 -74t71 -215v-465h80v-254h-476v590q0 57 -23.5 88t-64.5 31t-65.5 -32t-24.5 -87v-336h86v-254h-479v590q0 119 -88 119q-41 0 -64.5 -32t-23.5 -87v-336h84v-254h-570z " />
<glyph unicode="n" horiz-adv-x="1187" d="M20 0v254h91v485h-91v246h490v-133q57 72 132 114t171 42q133 0 205 -74t72 -215v-465h79v-254h-479v590q0 57 -24.5 88t-65.5 31t-65.5 -32t-24.5 -87v-336h86v-254h-576z" />
<glyph unicode="o" horiz-adv-x="1052" d="M12 492q0 117 37 213t104.5 163.5t162 104.5t210.5 37q117 0 212.5 -37t162 -104.5t103 -163t36.5 -213.5q0 -119 -36.5 -215.5t-104.5 -164t-162 -104.5t-211 -37t-212 37t-162.5 104.5t-103.5 164t-36 215.5zM416 506q0 -145 20 -214t90 -69q59 0 85 58.5t26 181.5 q0 150 -19.5 223.5t-91.5 73.5q-66 0 -88 -62.5t-22 -191.5z" />
<glyph unicode="p" horiz-adv-x="1153" d="M20 -143h105v882h-105v246h494v-84q102 109 256 109q172 0 271.5 -134.5t99.5 -381.5q0 -254 -103.5 -388.5t-275.5 -134.5q-127 0 -230 84v-198h105v-250h-617v250zM514 504q0 -135 23.5 -199.5t87.5 -64.5h1q113 0 113 247q0 137 -25.5 203t-86.5 66q-113 0 -113 -252z " />
<glyph unicode="q" horiz-adv-x="1153" d="M12 494q0 250 98.5 383t270.5 133q158 0 258 -107v82h494v-246h-105v-882h105v-250h-617v250h102v198q-102 -84 -229 -84q-172 0 -274.5 135.5t-102.5 387.5zM412 487q0 -247 113 -247h1q63 0 87 64.5t24 199.5q0 129 -25.5 190.5t-85.5 61.5q-61 0 -87.5 -66t-26.5 -203 z" />
<glyph unicode="r" horiz-adv-x="796" d="M20 0v254h91v485h-88v246h466v-199q29 117 91.5 170.5t158.5 53.5q12 0 25.5 -1t28.5 -3v-379q-47 10 -80 10q-201 0 -201 -223v-160h92v-254h-584z" />
<glyph unicode="s" horiz-adv-x="808" d="M25 676q0 70 23.5 130t65.5 104t100 70t128 26q127 0 227 -76v55h158v-317h-158q-62 118 -168 118h-2q-35 0 -54 -16t-19 -43q0 -53 86 -74q90 -23 158.5 -47t115.5 -61t70.5 -92.5t23.5 -139.5q0 -162 -87 -252t-247 -90q-152 0 -251 86v-57h-158v324h158 q61 -135 172 -136q41 0 65.5 19.5t24.5 48.5q0 23 -12.5 37t-34 24.5t-53 20.5t-70.5 27q-68 27 -117 53t-82 62t-48 83t-15 113z" />
<glyph unicode="t" horiz-adv-x="618" d="M20 739v246h86v307h404v-307h88v-246h-88v-485h88v-254h-492v739h-86z" />
<glyph unicode="u" horiz-adv-x="1187" d="M20 739v246h480v-590q0 -57 24.5 -86.5t65.5 -29.5t65.5 30.5t24.5 85.5v344h-86v246h487v-731h88v-254h-489v135q-129 -158 -303 -158q-133 0 -204 75t-71 216v471h-82z" />
<glyph unicode="v" horiz-adv-x="1099" d="M0 739v248h557v-248h-76l99 -258q27 -72 34 -137q4 35 10.5 67.5t20.5 65.5l107 262h-72v248h420v-248h-72l-326 -739h-325l-305 739h-72z" />
<glyph unicode="w" horiz-adv-x="1456" d="M0 739v246h520v-246h-71l45 -182q6 -29 12 -60.5t8 -68.5q6 45 13.5 74.5t13.5 48.5l153 434h193l135 -416q23 -76 29 -141q4 70 24 133l55 178h-69v246h395v-246h-72l-280 -739h-230l-116 326q-10 25 -16.5 53.5t-10.5 60.5q-8 -47 -14 -74.5t-10 -35.5l-123 -330h-242 l-272 739h-70z" />
<glyph unicode="x" horiz-adv-x="876" d="M20 739v246h381l95 -174l122 174h224v-246h-103l-125 -176l160 -311h84v-252h-362l-115 215l-150 -215h-206v252h84l149 215l-133 272h-105z" />
<glyph unicode="y" horiz-adv-x="1099" d="M0 739v246h565v-246h-82l101 -241q14 -33 24 -68t17 -76q12 90 32 146l91 239h-76v246h428v-246h-76l-383 -882h186v-250h-628v250h186l49 131l-358 751h-76z" />
<glyph unicode="z" horiz-adv-x="931" d="M20 0v252l392 487h-183v-123h-192v369h833v-246l-393 -487h193v127h198v-379h-848z" />
<glyph unicode="{" horiz-adv-x="1024" d="M145 389v283q10 0 18.5 -1t16.5 -1q115 0 160 53t45 178v258q0 102 17.5 169t91.5 104q59 29 140 37t191 8h80v-285q-12 0 -22.5 1t-20.5 1q-47 0 -75.5 -7t-45 -25.5t-21.5 -49.5t-5 -76v-239q0 -61 -9.5 -106.5t-34 -77t-66.5 -51t-107 -32.5q66 -12 107.5 -31.5 t66 -51t34 -75.5t9.5 -106v-241q0 -45 5 -75t21.5 -48.5t44 -25.5t74.5 -7q10 0 21.5 1t23.5 1v-285h-80q-111 0 -192.5 8.5t-138.5 36.5q-74 37 -91.5 102.5t-17.5 168.5v258q0 125 -45 178t-160 53q-8 0 -16 -1t-19 -1z" />
<glyph unicode="|" horiz-adv-x="1024" d="M373 -483v2048h280v-2048h-280z" />
<glyph unicode="}" horiz-adv-x="1024" d="M121 -131h43q47 0 75.5 7t45 25.5t21.5 48.5t5 75v241q0 61 9.5 105.5t34 76t66.5 51t107 31.5q-66 12 -107.5 32t-66 50.5t-34 75.5t-9.5 107v241q0 45 -5 76t-21.5 49.5t-45 25.5t-75.5 7q-10 0 -20.5 -1t-22.5 -1v285h80q111 0 191.5 -8.5t137.5 -36.5 q74 -37 92.5 -102.5t18.5 -170.5v-258q0 -125 45 -178t160 -53q8 0 16 1t19 1v-283q-10 0 -18.5 1t-16.5 1q-115 0 -160 -53t-45 -178v-258q0 -104 -18.5 -170t-92.5 -103q-55 -29 -133 -36t-182 -7h-94v283z" />
<glyph unicode="~" horiz-adv-x="1705" d="M178 379v299q111 70 208 106.5t200 36.5q70 0 138.5 -15t139.5 -38q76 -25 147.5 -50.5t151.5 -25.5q90 0 179.5 38t187.5 112v-299q-98 -66 -188.5 -99.5t-182.5 -33.5q-74 0 -139.5 17t-126.5 40q-78 27 -158 48.5t-174 21.5q-90 0 -182 -40t-201 -118z" />
<glyph unicode="&#xa1;" horiz-adv-x="749" d="M166 0v463l102 481h230l84 -481v-463h-416zM188 1063v412h371v-412h-371z" />
<glyph unicode="&#xa2;" d="M205 717q0 219 95 354t269 166v176h158v-180q96 -20 162 -90v71h166v-411h-164v12q0 80 -37 122t-98 42q-78 0 -112 -61.5t-34 -190.5q0 -246 138 -246q106 0 124 119h220q-27 -365 -363 -395v-174h-158v176q-174 29 -270 161t-96 349z" />
<glyph unicode="&#xa3;" d="M117 -25v314h6q182 0 182 182q0 25 -4 62.5t-10 89.5h-174v182h127q-68 178 -68 289q0 84 35 154.5t99.5 121.5t154.5 80t201 29q397 0 512 -367l-279 -108q-53 184 -168 184q-55 0 -88 -39t-33 -111q0 -39 14.5 -98t49.5 -135h276v-182h-245q4 -18 4 -36v-34 q0 -139 -74 -268q98 -41 149 -41q68 0 112 47t56 139l310 -49q-23 -109 -58 -185.5t-89 -126t-129 -72t-175 -22.5q-174 0 -350 103q-74 -51 -156 -77t-178 -26h-10z" />
<glyph unicode="&#xa4;" horiz-adv-x="1138" d="M12 506q0 115 30 209t82 160.5t125 102.5t159 36q172 0 247 -144v115h463v-242h-84v-694q0 -102 -39 -184t-111.5 -139.5t-177 -88t-235.5 -30.5q-100 0 -174 14t-117 37l39 272q92 -49 201 -49q102 0 159.5 55.5t57.5 153.5v16.5t-2 16.5q-94 -106 -240 -107 q-86 0 -155.5 34t-120.5 96.5t-79 153.5t-28 206zM254 1442h131q12 -139 184 -139q176 0 183 139h131q-12 -160 -87 -233.5t-227 -73.5q-150 0 -227.5 74.5t-87.5 232.5zM422 506q0 -125 26.5 -184.5t88.5 -59.5q59 0 84.5 57.5t25.5 174.5q0 123 -24.5 180t-85.5 57 q-115 0 -115 -225z" />
<glyph unicode="&#xa5;" horiz-adv-x="1384" d="M61 1147v309h613v-309h-99l187 -299l178 299h-94v309h477v-309h-88l-86 -143h149v-166h-251l-62 -99h313v-166h-399v-251h156v-322h-709v322h156v251h-418v166h328l-64 99h-264v166h160l-94 143h-89z" />
<glyph unicode="&#xa6;" horiz-adv-x="1024" d="M373 -350v758h280v-758h-280zM373 674v758h280v-758h-280z" />
<glyph unicode="&#xa7;" horiz-adv-x="1138" d="M66 713q0 209 247 297q-55 76 -55 204q0 57 30.5 111.5t86.5 89.5q63 41 136 50.5t159 9.5h286v-381h-243v159h-51q-61 0 -91 -17t-30 -62q0 -43 35.5 -84t95.5 -101l250 -256q74 -78 111.5 -162t37.5 -163q0 -102 -55 -166t-172 -107q35 -61 54.5 -115.5t19.5 -111.5 q0 -55 -27 -105.5t-74 -85.5q-61 -45 -135 -53t-164 -8h-323v379h239v-152h70q53 0 79.5 10.5t26.5 45.5t-29.5 76.5t-88.5 101.5l-238 245q-90 92 -139 172t-49 179zM346 711q0 -45 55 -103l162 -168q43 -45 76 -68.5t68 -23.5t57 23.5t22 58.5q0 53 -77 131l-174 172 q-29 29 -51.5 44.5t-53.5 15.5q-39 0 -61.5 -21.5t-22.5 -60.5z" />
<glyph unicode="&#xa8;" horiz-adv-x="1024" d="M205 1153v270h250v-270h-250zM567 1153v270h252v-270h-252z" />
<glyph unicode="&#xa9;" horiz-adv-x="1705" d="M102 741q0 150 56.5 288t167.5 249q104 104 238 159.5t288 55.5t291 -55.5t246 -163.5q104 -104 160.5 -241.5t56.5 -291.5q0 -156 -55.5 -289t-161.5 -237q-111 -111 -250.5 -168t-286.5 -57q-150 0 -284 56t-244 167q-109 109 -165.5 244t-56.5 284zM256 743 q0 -119 45 -227t131 -194t193.5 -131.5t228.5 -45.5q119 0 227.5 45.5t198.5 133.5q172 167 172 419q0 123 -45 230.5t-129 191.5q-176 176 -424 176q-123 0 -229.5 -43t-190.5 -129q-86 -88 -132 -197.5t-46 -228.5zM440 737q0 102 30 184.5t83 140.5t127 90t160 32 q180 0 280.5 -80t108.5 -221h-242q-4 63 -38 99t-93 36q-72 0 -114 -68.5t-42 -204.5q0 -262 164 -262q121 0 127 144h248q-6 -150 -108.5 -238t-272.5 -88q-197 0 -307.5 115.5t-110.5 320.5z" />
<glyph unicode="&#xaa;" horiz-adv-x="1292" d="M20 0v254h91v485h-91v246h86v111q0 188 97.5 287.5t279.5 99.5q72 0 150 -19v-311h-8q-70 0 -95.5 -30.5t-25.5 -106.5v-31h98v-246h-88v-485h88v-254h-582zM688 0v254h98v485h-98v246h500v-731h88v-254h-588zM791 1075v361h397v-361h-397z" />
<glyph unicode="&#xab;" horiz-adv-x="827" d="M82 487l205 435l174 -84l-156 -351l156 -346l-174 -84zM414 487l204 435l175 -84l-156 -351l156 -346l-175 -84z" />
<glyph unicode="&#xac;" horiz-adv-x="1990" d="M47 885l205 33q18 -125 133 -125q49 0 76.5 23.5t27.5 60.5q0 43 -38.5 68.5t-114.5 25.5q-20 0 -31 -2v164h21q152 0 151 92q0 35 -25.5 55t-66.5 20q-51 0 -83 -31.5t-42 -86.5l-197 39q39 119 129.5 181t223.5 62q150 0 235.5 -65.5t85.5 -165.5q0 -74 -44 -117 t-122 -51q92 -4 143.5 -56.5t51.5 -142.5q0 -111 -93 -176t-259 -65q-336 0 -367 260zM483 -25l807 1504h217l-805 -1504h-219zM1190 233v164l407 418h232v-418h141v-164h-141v-75h88v-158h-434v158h90v75h-383zM1382 397h191v197z" />
<glyph unicode="&#xad;" horiz-adv-x="860" d="M139 303v375h582v-375h-582z" />
<glyph unicode="&#xae;" horiz-adv-x="1705" d="M102 741q0 150 56.5 288t167.5 249q104 104 238 159.5t288 55.5t291 -55.5t246 -163.5q104 -104 160.5 -241.5t56.5 -291.5q0 -156 -55.5 -289t-161.5 -237q-111 -111 -250.5 -168t-286.5 -57q-150 0 -284 56t-244 167q-109 109 -165.5 244t-56.5 284zM256 743 q0 -119 45 -227t131 -194t193.5 -131.5t228.5 -45.5q119 0 227.5 45.5t198.5 133.5q172 167 172 419q0 123 -45 230.5t-129 191.5q-176 176 -424 176q-123 0 -229.5 -43t-190.5 -129q-86 -88 -132 -197.5t-46 -228.5zM528 352v813h334q178 0 267.5 -61.5t89.5 -177.5 q0 -78 -42 -134.5t-122 -84.5l178 -355h-279l-145 312h-25v-312h-256zM784 813h54q119 0 118 98q0 94 -133 95h-39v-193z" />
<glyph unicode="&#xaf;" horiz-adv-x="1024" d="M205 1204v170h614v-170h-614z" />
<glyph unicode="&#xb0;" horiz-adv-x="673" d="M14 1149q0 68 26 127t70 102t103 69t125 26q68 0 126 -26t101 -69t68.5 -102t25.5 -127q0 -66 -25.5 -124t-68.5 -102t-102.5 -70t-126.5 -26q-68 0 -126 25t-101 69t-69 102t-26 126zM186 1151q0 -63 43 -108.5t109 -45.5q63 0 107 46.5t44 107.5t-45 106.5t-108 45.5 q-61 0 -105.5 -44.5t-44.5 -107.5z" />
<glyph unicode="&#xb1;" horiz-adv-x="1705" d="M254 -41v272h1198v-272h-1198zM254 680v272h459v310h280v-310h459v-272h-459v-309h-280v309h-459z" />
<glyph unicode="&#xb2;" horiz-adv-x="864" d="M37 582v16q0 96 52 177t151 173q59 55 106 92t74 60q33 27 50 49t17 55q0 41 -25.5 64.5t-70.5 23.5q-111 0 -110 -151v-4l-222 10q10 156 107.5 238.5t269.5 82.5q156 0 247 -72.5t91 -199.5q0 -90 -52 -148.5t-155 -119.5q-55 -35 -118.5 -72t-122.5 -90h268v119h180 v-303h-737z" />
<glyph unicode="&#xb3;" horiz-adv-x="864" d="M49 846l215 33q18 -133 139 -134q51 0 81 26t30 67q0 47 -42 72.5t-120 25.5h-33v174h23q158 0 158 98q0 37 -27 59.5t-70 22.5q-53 0 -85.5 -33.5t-45.5 -93.5l-206 41q41 129 136 195.5t234 66.5q156 0 246 -70.5t90 -176.5q0 -78 -45 -125t-129 -56q96 -4 149.5 -60 t53.5 -153q0 -117 -97.5 -188.5t-269.5 -71.5q-350 0 -385 281z" />
<glyph unicode="&#xb4;" horiz-adv-x="1024" d="M338 1104l192 371h287l-325 -371h-154z" />
<glyph unicode="&#xb5;" horiz-adv-x="342" d="M-342 -25l807 1504h217l-805 -1504h-219z" />
<glyph unicode="&#xb6;" horiz-adv-x="1024" d="M10 1130q0 76 26.5 140.5t78 110.5t123 72t161.5 26h615v-142h-101v-1337h-202v1337h-140v-1337h-202v784q-84 4 -149.5 31t-113 73t-72 107.5t-24.5 134.5z" />
<glyph unicode="&#xb7;" horiz-adv-x="653" d="M121 729q0 43 16.5 81t44 65.5t65.5 44t81 16.5t79.5 -16.5t64.5 -45t44 -65.5t16 -80t-16 -81t-44 -65.5t-64.5 -43t-79.5 -15.5t-81 15.5t-65.5 43t-44 65.5t-16.5 81z" />
<glyph unicode="&#xb8;" horiz-adv-x="1024" d="M248 -301q90 -25 157.5 -35t112.5 -10q86 0 86 72q0 63 -119 63h-25.5t-29.5 -2v213h115v-84h18q113 0 172.5 -50t59.5 -142q0 -98 -66.5 -153.5t-189.5 -55.5q-115 0 -291 47v137z" />
<glyph unicode="&#xb9;" horiz-adv-x="864" d="M211 582v168h92v542h-92v164h358v-706h95v-168h-453z" />
<glyph unicode="&#xba;" horiz-adv-x="1298" d="M20 0v254h91v485h-91v246h86v111q0 188 99.5 287.5t281.5 99.5q72 0 150 -19v-311h-8q-70 0 -97.5 -30.5t-27.5 -106.5v-31h98v-246h-88v-485h88v-254h-582zM692 0v254h99v965h-99v245h500v-1210h88v-254h-588z" />
<glyph unicode="&#xbb;" horiz-adv-x="827" d="M55 143l156 351l-156 344l174 84l205 -428l-205 -437zM387 143l156 351l-156 344l176 84l203 -428l-203 -437z" />
<glyph unicode="&#xbc;" horiz-adv-x="1990" d="M201 639v158h88v506h-88v151h344v-657h88v-158h-432zM483 -25l807 1504h217l-805 -1504h-219zM1190 233v164l407 418h232v-418h141v-164h-141v-75h88v-158h-434v158h90v75h-383zM1382 397h191v197z" />
<glyph unicode="&#xbd;" horiz-adv-x="1990" d="M201 639v158h88v506h-88v151h344v-657h88v-158h-432zM483 -25l807 1504h217l-805 -1504h-219zM1204 0v16q0 88 48 164t145 162q57 51 102 85t70 56q29 25 46 46.5t17 52.5q0 37 -24.5 59.5t-65.5 22.5q-106 0 -106 -142v-4l-211 10q10 145 103 222t255 77 q150 0 236 -68.5t86 -185.5q0 -84 -49.5 -138t-145.5 -113q-53 -33 -114.5 -66t-116.5 -84h256v111h170v-283h-701z" />
<glyph unicode="&#xbe;" horiz-adv-x="1990" d="M47 885l205 33q18 -125 133 -125q49 0 76.5 23.5t27.5 60.5q0 43 -38.5 68.5t-114.5 25.5q-20 0 -31 -2v164h21q152 0 151 92q0 35 -25.5 55t-66.5 20q-51 0 -83 -31.5t-42 -86.5l-197 39q39 119 129.5 181t223.5 62q150 0 235.5 -65.5t85.5 -165.5q0 -74 -44 -117 t-122 -51q92 -4 143.5 -56.5t51.5 -142.5q0 -111 -93 -176t-259 -65q-336 0 -367 260zM483 -25l807 1504h217l-805 -1504h-219zM1190 233v164l407 418h232v-418h141v-164h-141v-75h88v-158h-434v158h90v75h-383zM1382 397h191v197z" />
<glyph unicode="&#xbf;" horiz-adv-x="1048" d="M78 428q0 193 101.5 303.5t275.5 114.5v98h262v-274q-123 -29 -176.5 -98.5t-53.5 -192.5q0 -152 103 -152q66 0 83 53.5t17 176.5h295q2 -16 2 -32.5v-33.5q0 -205 -113.5 -314.5t-330.5 -109.5q-102 0 -187.5 34t-147 94.5t-96 145.5t-34.5 187zM403 1063v412h371v-412 h-371z" />
<glyph unicode="&#xc0;" horiz-adv-x="1521" d="M88 0v319h107l254 840h-113v316h878v-316h-112l223 -840h109v-319h-656v319h137l-30 130h-357l-36 -130h131v-319h-535zM420 1972h287l192 -370h-154zM618 750h203l-67 284q-10 37 -25 135q-12 -72 -31 -135z" />
<glyph unicode="&#xc1;" horiz-adv-x="1521" d="M88 0v319h107l254 840h-113v316h878v-316h-112l223 -840h109v-319h-656v319h137l-30 130h-357l-36 -130h131v-319h-535zM551 1602l192 370h287l-325 -370h-154zM618 750h203l-67 284q-10 37 -25 135q-12 -72 -31 -135z" />
<glyph unicode="&#xc2;" horiz-adv-x="1521" d="M88 0v319h107l254 840h-113v316h878v-316h-112l223 -840h109v-319h-656v319h137l-30 130h-357l-36 -130h131v-319h-535zM403 1602l193 370h256l192 -370h-153l-166 198l-168 -198h-154zM618 750h203l-67 284q-10 37 -25 135q-12 -72 -31 -135z" />
<glyph unicode="&#xc3;" horiz-adv-x="1521" d="M88 0v319h107l254 840h-113v316h878v-316h-112l223 -840h109v-319h-656v319h137l-30 130h-357l-36 -130h131v-319h-535zM393 1647q29 125 80 185t135 60q39 0 90 -14l95 -29q25 -8 57 -8q66 0 88 86h119q-29 -129 -81 -191.5t-138 -62.5q-37 0 -76 13l-92 26 q-47 12 -68 12q-63 0 -90 -77h-119zM618 750h203l-67 284q-10 37 -25 135q-12 -72 -31 -135z" />
<glyph unicode="&#xc4;" horiz-adv-x="1521" d="M88 0v319h107l254 840h-113v316h878v-316h-112l223 -840h109v-319h-656v319h137l-30 130h-357l-36 -130h131v-319h-535zM418 1651v270h250v-270h-250zM618 750h203l-67 284q-10 37 -25 135q-12 -72 -31 -135zM780 1651v270h252v-270h-252z" />
<glyph unicode="&#xc5;" horiz-adv-x="1349" d="M2 0v319h107l253 828h-112v280h878v-280h-112l223 -828h109v-319h-656v319h137l-30 130h-357l-36 -130h131v-319h-535zM442 1735q0 49 18.5 93t50.5 75.5t76 50t95 18.5t95 -18.5t77 -50t51.5 -74.5t18.5 -94t-18.5 -95.5t-51.5 -77t-77 -52t-95 -19.5t-95 19.5t-76 52 t-50.5 77t-18.5 95.5zM532 750h203l-67 284q-10 37 -25 135q-12 -72 -31 -135zM588 1733q0 -41 27.5 -68t66.5 -27q41 0 68.5 27t27.5 68t-27.5 68.5t-68.5 27.5t-67.5 -27.5t-26.5 -68.5z" />
<glyph unicode="&#xc6;" horiz-adv-x="1882" d="M16 0v326h111l311 821h-104v328h1468v-564h-276v236h-258v-229h172v-353h-172v-237h258v260h276v-588h-1079v326h117v120h-346l-43 -120h122v-326h-557zM598 752h242v395h-109z" />
<glyph unicode="&#xc7;" horiz-adv-x="1280" d="M45 711q0 180 44 326.5t121 251t180.5 160.5t223.5 56q186 0 306 -125v95h254v-576h-273v8q0 133 -44 200t-128 67q-104 0 -145 -106.5t-41 -330.5q0 -211 42 -310t146 -99q72 0 119 55t61 166h297q-4 -281 -142 -430.5t-396 -153.5v-49h18q113 0 172.5 -50t59.5 -142 q0 -98 -67 -153.5t-189 -55.5q-115 0 -291 47v137q90 -25 157.5 -35t112.5 -10q86 0 86 72q0 63 -119 63h-25.5t-29.5 -2v186q-119 16 -213 76t-160.5 155t-101.5 224t-35 283z" />
<glyph unicode="&#xc8;" d="M78 0v324h121v835h-121v316h1155v-564h-289v236h-295v-229h205v-353h-205v-237h295v260h289v-588h-1155zM354 1972h287l193 -370h-154z" />
<glyph unicode="&#xc9;" d="M78 0v324h121v835h-121v316h1155v-564h-289v236h-295v-229h205v-353h-205v-237h295v260h289v-588h-1155zM485 1602l193 370h287l-326 -370h-154z" />
<glyph unicode="&#xca;" d="M78 0v324h121v835h-121v316h1155v-564h-289v236h-295v-229h205v-353h-205v-237h295v260h289v-588h-1155zM338 1602l192 370h256l193 -370h-154l-166 198l-167 -198h-154z" />
<glyph unicode="&#xcb;" d="M78 0v324h121v835h-121v316h1155v-564h-289v236h-295v-229h205v-353h-205v-237h295v260h289v-588h-1155zM352 1651v270h250v-270h-250zM715 1651v270h252v-270h-252z" />
<glyph unicode="&#xcc;" horiz-adv-x="825" d="M78 0v324h121v835h-121v316h678v-316h-121v-835h121v-324h-678zM109 1972h286l193 -370h-154z" />
<glyph unicode="&#xcd;" horiz-adv-x="825" d="M78 0v324h121v835h-121v316h678v-316h-121v-835h121v-324h-678zM240 1602l192 370h287l-326 -370h-153z" />
<glyph unicode="&#xce;" horiz-adv-x="825" d="M78 0v324h121v835h-121v316h678v-316h-121v-835h121v-324h-678zM92 1602l193 370h256l192 -370h-153l-166 198l-168 -198h-154z" />
<glyph unicode="&#xcf;" horiz-adv-x="825" d="M78 0v324h121v835h-121v316h678v-316h-121v-835h121v-324h-678zM106 1651v270h250v-270h-250zM469 1651v270h252v-270h-252z" />
<glyph unicode="&#xd0;" horiz-adv-x="1435" d="M16 606v285h183v268h-121v316h641q319 0 489 -186.5t170 -547.5q0 -178 -46 -315t-132 -232.5t-208 -144.5t-273 -49h-641v324h121v282h-183zM621 324q12 0 23 -1t22 -1q86 0 139 24.5t83 77.5t40 136t10 200q0 106 -13.5 183t-46 124t-87 69.5t-136.5 22.5h-34v-268h161 v-285h-161v-282z" />
<glyph unicode="&#xd1;" horiz-adv-x="1417" d="M78 0v324h121v835h-121v316h540l351 -676q35 -70 63 -162q-4 53 -7 107.5t-3 111.5v303h-119v316h498v-316h-119v-1159h-369l-356 686q-23 45 -42 92t-34 96q6 -78 8.5 -136t2.5 -95v-319h118v-324h-532zM377 1647q29 125 80 185t135 60q39 0 90 -14l94 -29q25 -8 58 -8 q66 0 88 86h118q-29 -129 -81 -191.5t-138 -62.5q-37 0 -76 13l-92 26q-47 12 -67 12q-63 0 -90 -77h-119z" />
<glyph unicode="&#xd2;" horiz-adv-x="1478" d="M45 721q0 180 49 325.5t139.5 248t217.5 157.5t280 55q162 0 292 -54t221 -155.5t140.5 -246t49.5 -324.5q0 -160 -48.5 -297t-138.5 -242q-100 -115 -225 -168t-289 -53q-158 0 -277.5 50.5t-219.5 160.5q-191 209 -191 543zM434 1972h287l192 -370h-153zM549 737 q0 -233 37 -345.5t153 -112.5q117 0 153 112.5t36 345.5t-36 346t-153 113t-153.5 -112.5t-36.5 -346.5z" />
<glyph unicode="&#xd3;" horiz-adv-x="1478" d="M45 721q0 180 49 325.5t139.5 248t217.5 157.5t280 55q162 0 292 -54t221 -155.5t140.5 -246t49.5 -324.5q0 -160 -48.5 -297t-138.5 -242q-100 -115 -225 -168t-289 -53q-158 0 -277.5 50.5t-219.5 160.5q-191 209 -191 543zM549 737q0 -233 37 -345.5t153 -112.5 q117 0 153 112.5t36 345.5t-36 346t-153 113t-153.5 -112.5t-36.5 -346.5zM565 1602l193 370h286l-325 -370h-154z" />
<glyph unicode="&#xd4;" horiz-adv-x="1478" d="M45 721q0 180 49 325.5t139.5 248t217.5 157.5t280 55q162 0 292 -54t221 -155.5t140.5 -246t49.5 -324.5q0 -160 -48.5 -297t-138.5 -242q-100 -115 -225 -168t-289 -53q-158 0 -277.5 50.5t-219.5 160.5q-191 209 -191 543zM418 1602l192 370h256l193 -370h-154 l-166 198l-168 -198h-153zM549 737q0 -233 37 -345.5t153 -112.5q117 0 153 112.5t36 345.5t-36 346t-153 113t-153.5 -112.5t-36.5 -346.5z" />
<glyph unicode="&#xd5;" horiz-adv-x="1478" d="M45 721q0 180 49 325.5t139.5 248t217.5 157.5t280 55q162 0 292 -54t221 -155.5t140.5 -246t49.5 -324.5q0 -160 -48.5 -297t-138.5 -242q-100 -115 -225 -168t-289 -53q-158 0 -277.5 50.5t-219.5 160.5q-191 209 -191 543zM408 1647q29 125 80 185t135 60q39 0 90 -14 l94 -29q25 -8 57 -8q66 0 88 86h119q-29 -129 -81 -191.5t-138 -62.5q-37 0 -76 13l-92 26q-47 12 -68 12q-63 0 -90 -77h-118zM549 737q0 -233 37 -345.5t153 -112.5q117 0 153 112.5t36 345.5t-36 346t-153 113t-153.5 -112.5t-36.5 -346.5z" />
<glyph unicode="&#xd6;" horiz-adv-x="1478" d="M45 721q0 180 49 325.5t139.5 248t217.5 157.5t280 55q162 0 292 -54t221 -155.5t140.5 -246t49.5 -324.5q0 -160 -48.5 -297t-138.5 -242q-100 -115 -225 -168t-289 -53q-158 0 -277.5 50.5t-219.5 160.5q-191 209 -191 543zM432 1651v270h250v-270h-250zM549 737 q0 -233 37 -345.5t153 -112.5q117 0 153 112.5t36 345.5t-36 346t-153 113t-153.5 -112.5t-36.5 -346.5zM795 1651v270h252v-270h-252z" />
<glyph unicode="&#xd7;" horiz-adv-x="1705" d="M254 184l426 426l-426 426l195 195l425 -426l426 426l195 -195l-426 -426l426 -426l-195 -194l-426 426l-425 -426z" />
<glyph unicode="&#xd8;" horiz-adv-x="1509" d="M61 731q0 176 50.5 319.5t141.5 246t217 157.5t280 55q170 0 346 -86l112 174h293l-215 -327q164 -207 164 -520q0 -180 -51 -325.5t-144.5 -248t-226.5 -158t-299 -55.5q-127 0 -256 49l-127 -198h-280l206 342q-211 205 -211 575zM565 737q0 -233 37 -345.5t154 -112.5 t152.5 112.5t35.5 345.5t-35.5 346t-152.5 113t-154 -112.5t-37 -346.5z" />
<glyph unicode="&#xd9;" horiz-adv-x="1421" d="M74 1159v316h663v-316h-98v-715q0 -80 40 -122.5t116 -42.5q72 0 110.5 43t38.5 120v717h-98v316h518v-316h-109v-715q0 -244 -123.5 -362.5t-381.5 -118.5q-567 0 -568 506v690h-108zM416 1972h286l193 -370h-154z" />
<glyph unicode="&#xda;" horiz-adv-x="1421" d="M74 1159v316h663v-316h-98v-715q0 -80 40 -122.5t116 -42.5q72 0 110.5 43t38.5 120v717h-98v316h518v-316h-109v-715q0 -244 -123.5 -362.5t-381.5 -118.5q-567 0 -568 506v690h-108zM547 1602l192 370h287l-326 -370h-153z" />
<glyph unicode="&#xdb;" horiz-adv-x="1421" d="M74 1159v316h663v-316h-98v-715q0 -80 40 -122.5t116 -42.5q72 0 110.5 43t38.5 120v717h-98v316h518v-316h-109v-715q0 -244 -123.5 -362.5t-381.5 -118.5q-567 0 -568 506v690h-108zM399 1602l193 370h256l192 -370h-153l-166 198l-168 -198h-154z" />
<glyph unicode="&#xdc;" horiz-adv-x="1421" d="M74 1159v316h663v-316h-98v-715q0 -80 40 -122.5t116 -42.5q72 0 110.5 43t38.5 120v717h-98v316h518v-316h-109v-715q0 -244 -123.5 -362.5t-381.5 -118.5q-567 0 -568 506v690h-108zM414 1651v270h250v-270h-250zM776 1651v270h252v-270h-252z" />
<glyph unicode="&#xdd;" horiz-adv-x="1384" d="M12 1161v314h693v-314h-101l166 -278l160 278h-96v314h505v-314h-90l-340 -553v-284h158v-324h-764v324h156v284l-357 553h-90zM518 1602l193 370h286l-325 -370h-154z" />
<glyph unicode="&#xde;" horiz-adv-x="1359" d="M63 0v324h121v835h-121v316h699v-301h-123v-105h166q248 0 375 -86t127 -240q0 -166 -136.5 -251.5t-410.5 -85.5h-121v-97h123v-309h-699zM639 621h33q195 0 194 120q0 106 -192 107h-35v-227z" />
<glyph unicode="&#xdf;" horiz-adv-x="1386" d="M86 0v252h86v788q0 217 122 321.5t380 104.5q238 0 366.5 -96t128.5 -262q0 -100 -48 -173t-138 -112v-16q311 -102 311 -420q0 -92 -30.5 -169t-86 -132t-131 -86t-167.5 -31q-84 0 -195 31v227q8 0 15.5 -1t15.5 -1q96 0 137 50.5t41 160.5q0 268 -188 269h-21v202 q129 10 129 160q0 57 -35 94t-88 37q-49 0 -77.5 -34t-28.5 -93v-1071h-498z" />
<glyph unicode="&#xe0;" horiz-adv-x="1075" d="M18 309q0 166 97.5 258t269.5 92q68 0 124 -19t97 -50q0 6 1 13t1 13q0 152 -190 152q-70 0 -136.5 -16.5t-138.5 -49.5l-65 232q190 76 409 76q262 0 376 -102.5t114 -321.5v-332h78v-254h-453v80q-94 -106 -262 -107q-154 0 -238 88.5t-84 247.5zM258 1475h287 l192 -371h-153zM403 332q0 -127 107 -127q106 0 106 129q0 61 -26.5 95t-75.5 34q-53 0 -82 -34t-29 -97z" />
<glyph unicode="&#xe1;" horiz-adv-x="1075" d="M18 309q0 166 97.5 258t269.5 92q68 0 124 -19t97 -50q0 6 1 13t1 13q0 152 -190 152q-70 0 -136.5 -16.5t-138.5 -49.5l-65 232q190 76 409 76q262 0 376 -102.5t114 -321.5v-332h78v-254h-453v80q-94 -106 -262 -107q-154 0 -238 88.5t-84 247.5zM389 1104l193 371h286 l-325 -371h-154zM403 332q0 -127 107 -127q106 0 106 129q0 61 -26.5 95t-75.5 34q-53 0 -82 -34t-29 -97z" />
<glyph unicode="&#xe2;" horiz-adv-x="1075" d="M18 309q0 166 97.5 258t269.5 92q68 0 124 -19t97 -50q0 6 1 13t1 13q0 152 -190 152q-70 0 -136.5 -16.5t-138.5 -49.5l-65 232q190 76 409 76q262 0 376 -102.5t114 -321.5v-332h78v-254h-453v80q-94 -106 -262 -107q-154 0 -238 88.5t-84 247.5zM242 1104l192 371h256 l193 -371h-154l-166 199l-168 -199h-153zM403 332q0 -127 107 -127q106 0 106 129q0 61 -26.5 95t-75.5 34q-53 0 -82 -34t-29 -97z" />
<glyph unicode="&#xe3;" horiz-adv-x="1075" d="M18 309q0 166 97.5 258t269.5 92q68 0 124 -19t97 -50q0 6 1 13t1 13q0 152 -190 152q-70 0 -136.5 -16.5t-138.5 -49.5l-65 232q190 76 409 76q262 0 376 -102.5t114 -321.5v-332h78v-254h-453v80q-94 -106 -262 -107q-154 0 -238 88.5t-84 247.5zM231 1149 q29 125 80 185.5t135 60.5q39 0 91 -15l94 -28q25 -8 57 -9q66 0 88 87h119q-29 -129 -81 -191.5t-138 -62.5q-37 0 -76 12l-92 26q-47 12 -68 13q-63 0 -90 -78h-119zM403 332q0 -127 107 -127q106 0 106 129q0 61 -26.5 95t-75.5 34q-53 0 -82 -34t-29 -97z" />
<glyph unicode="&#xe4;" horiz-adv-x="1075" d="M18 309q0 166 97.5 258t269.5 92q68 0 124 -19t97 -50q0 6 1 13t1 13q0 152 -190 152q-70 0 -136.5 -16.5t-138.5 -49.5l-65 232q190 76 409 76q262 0 376 -102.5t114 -321.5v-332h78v-254h-453v80q-94 -106 -262 -107q-154 0 -238 88.5t-84 247.5zM256 1153v270h250 v-270h-250zM403 332q0 -127 107 -127q106 0 106 129q0 61 -26.5 95t-75.5 34q-53 0 -82 -34t-29 -97zM618 1153v270h252v-270h-252z" />
<glyph unicode="&#xe5;" horiz-adv-x="1124" d="M55 309q0 166 97.5 258t269.5 92q68 0 124 -19t97 -50q0 6 1 13t1 13q0 152 -190 152q-70 0 -136.5 -16.5t-138.5 -49.5l-65 232q190 76 409 76q262 0 376 -102.5t114 -321.5v-332h78v-254h-453v80q-94 -106 -262 -107q-154 0 -238 88.5t-84 247.5zM313 1315 q0 49 18.5 93t50.5 77t76 51t95 18t95 -18t76 -51t50.5 -76t18.5 -94t-18.5 -95t-51.5 -77t-76 -51.5t-94 -18.5t-95 18.5t-76 51.5t-50.5 77t-18.5 95zM440 332q0 -127 107 -127q106 0 106 129q0 61 -26.5 95t-75.5 34q-53 0 -82 -34t-29 -97zM457 1315q0 -41 28.5 -68.5 t67.5 -27.5q41 0 68.5 27.5t27.5 68.5t-27.5 68.5t-68.5 27.5t-68.5 -27.5t-27.5 -68.5z" />
<glyph unicode="&#xe6;" horiz-adv-x="1607" d="M45 307q0 160 99.5 253t271.5 93q125 0 219 -69q0 6 1 12t1 12q0 154 -188 154q-72 0 -138.5 -18.5t-138.5 -49.5l-66 236q215 82 429 82q113 0 185.5 -23.5t113.5 -83.5q119 104 280 105q213 0 334 -136.5t121 -386.5v-33.5t-2 -33.5h-566v-27q0 -182 119 -182 q94 0 117 125h317q-16 -166 -137 -264.5t-313 -98.5q-221 0 -350 133q-115 -137 -351 -137q-174 0 -266 89t-92 249zM432 328q0 -125 107 -125q109 0 108 127q0 129 -110 129q-47 0 -76 -35t-29 -96zM1001 602h222v25q0 166 -107 166q-113 0 -115 -191z" />
<glyph unicode="&#xe7;" horiz-adv-x="927" d="M12 483q0 123 32 220.5t90.5 165t139 104.5t179.5 37q158 0 243 -99v74h166v-410h-164v7q0 84 -35.5 127t-99.5 43q-78 0 -111.5 -62.5t-33.5 -191.5q0 -246 137 -246q106 0 125 121h219q-12 -190 -113.5 -291.5t-283.5 -110.5v-55h18q113 0 172.5 -50t59.5 -142 q0 -98 -67 -153.5t-189 -55.5q-115 0 -291 47v137q90 -25 157.5 -35t112.5 -10q86 0 86 72q0 63 -119 63h-25.5t-29.5 -2v193q-176 27 -275.5 157.5t-99.5 345.5z" />
<glyph unicode="&#xe8;" horiz-adv-x="970" d="M12 492q0 121 34 217t95.5 162.5t149.5 102.5t198 36q223 0 346 -135.5t123 -389.5v-33.5t-2 -33.5h-563v-27q0 -182 119 -182q94 0 117 125h317q-16 -164 -136 -263.5t-312 -99.5q-229 0 -357.5 136.5t-128.5 384.5zM156 1475h286l193 -371h-154zM387 600h225v27 q0 168 -106 168q-115 0 -119 -195z" />
<glyph unicode="&#xe9;" horiz-adv-x="970" d="M12 492q0 121 34 217t95.5 162.5t149.5 102.5t198 36q223 0 346 -135.5t123 -389.5v-33.5t-2 -33.5h-563v-27q0 -182 119 -182q94 0 117 125h317q-16 -164 -136 -263.5t-312 -99.5q-229 0 -357.5 136.5t-128.5 384.5zM287 1104l192 371h287l-326 -371h-153zM387 600h225 v27q0 168 -106 168q-115 0 -119 -195z" />
<glyph unicode="&#xea;" horiz-adv-x="970" d="M12 492q0 121 34 217t95.5 162.5t149.5 102.5t198 36q223 0 346 -135.5t123 -389.5v-33.5t-2 -33.5h-563v-27q0 -182 119 -182q94 0 117 125h317q-16 -164 -136 -263.5t-312 -99.5q-229 0 -357.5 136.5t-128.5 384.5zM139 1104l193 371h256l192 -371h-153l-166 199 l-168 -199h-154zM387 600h225v27q0 168 -106 168q-115 0 -119 -195z" />
<glyph unicode="&#xeb;" horiz-adv-x="970" d="M12 492q0 121 34 217t95.5 162.5t149.5 102.5t198 36q223 0 346 -135.5t123 -389.5v-33.5t-2 -33.5h-563v-27q0 -182 119 -182q94 0 117 125h317q-16 -164 -136 -263.5t-312 -99.5q-229 0 -357.5 136.5t-128.5 384.5zM154 1153v270h249v-270h-249zM387 600h225v27 q0 168 -106 168q-115 0 -119 -195zM516 1153v270h252v-270h-252z" />
<glyph unicode="&#xec;" horiz-adv-x="675" d="M31 1475h286l193 -371h-154zM33 739v246h518v-731h86v-254h-586v254h99v485h-117z" />
<glyph unicode="&#xed;" horiz-adv-x="675" d="M33 739v246h518v-731h86v-254h-586v254h99v485h-117zM162 1104l192 371h287l-326 -371h-153z" />
<glyph unicode="&#xee;" horiz-adv-x="675" d="M14 1104l193 371h256l192 -371h-153l-166 199l-168 -199h-154zM33 739v246h518v-731h86v-254h-586v254h99v485h-117z" />
<glyph unicode="&#xef;" horiz-adv-x="675" d="M29 1153v270h250v-270h-250zM33 739v246h518v-731h86v-254h-586v254h99v485h-117zM391 1153v270h252v-270h-252z" />
<glyph unicode="&#xf0;" horiz-adv-x="1128" d="M49 492q0 240 154 387q61 59 143 93t160 34q18 0 39.5 -3.5t48.5 -7.5q-37 61 -94 150l-299 -109l-54 142l265 94q-23 23 -61 64.5t-95 101.5l160 78q113 -70 219 -160l235 88l52 -144l-170 -61q328 -348 327 -731q0 -123 -36.5 -222.5t-104.5 -169t-164 -107.5t-213 -38 t-212 37t-161.5 104.5t-102.5 164t-36 215.5zM451 506q0 -143 20.5 -213t89.5 -70q61 0 86 60.5t25 185.5q0 147 -19.5 219t-91.5 72q-66 0 -88 -62.5t-22 -191.5z" />
<glyph unicode="&#xf1;" horiz-adv-x="1187" d="M20 0v254h91v485h-91v246h490v-133q57 72 132 114t171 42q133 0 205 -74t72 -215v-465h79v-254h-479v590q0 57 -24.5 88t-65.5 31t-65.5 -32t-24.5 -87v-336h86v-254h-576zM252 1149q29 125 80 185.5t135 60.5q39 0 90 -15l94 -28q25 -8 58 -9q66 0 88 87h118 q-29 -129 -81 -191.5t-138 -62.5q-37 0 -75 12l-93 26q-47 12 -67 13q-63 0 -90 -78h-119z" />
<glyph unicode="&#xf2;" horiz-adv-x="1052" d="M12 492q0 117 37 213t104.5 163.5t162 104.5t210.5 37q117 0 212.5 -37t162 -104.5t103 -163t36.5 -213.5q0 -119 -36.5 -215.5t-104.5 -164t-162 -104.5t-211 -37t-212 37t-162.5 104.5t-103.5 164t-36 215.5zM242 1475h286l193 -371h-154zM416 506q0 -145 20 -214 t90 -69q59 0 85 58.5t26 181.5q0 150 -19.5 223.5t-91.5 73.5q-66 0 -88 -62.5t-22 -191.5z" />
<glyph unicode="&#xf3;" horiz-adv-x="1052" d="M12 492q0 117 37 213t104.5 163.5t162 104.5t210.5 37q117 0 212.5 -37t162 -104.5t103 -163t36.5 -213.5q0 -119 -36.5 -215.5t-104.5 -164t-162 -104.5t-211 -37t-212 37t-162.5 104.5t-103.5 164t-36 215.5zM373 1104l192 371h287l-326 -371h-153zM416 506 q0 -145 20 -214t90 -69q59 0 85 58.5t26 181.5q0 150 -19.5 223.5t-91.5 73.5q-66 0 -88 -62.5t-22 -191.5z" />
<glyph unicode="&#xf4;" horiz-adv-x="1052" d="M12 492q0 117 37 213t104.5 163.5t162 104.5t210.5 37q117 0 212.5 -37t162 -104.5t103 -163t36.5 -213.5q0 -119 -36.5 -215.5t-104.5 -164t-162 -104.5t-211 -37t-212 37t-162.5 104.5t-103.5 164t-36 215.5zM225 1104l193 371h256l192 -371h-153l-166 199l-168 -199 h-154zM416 506q0 -145 20 -214t90 -69q59 0 85 58.5t26 181.5q0 150 -19.5 223.5t-91.5 73.5q-66 0 -88 -62.5t-22 -191.5z" />
<glyph unicode="&#xf5;" horiz-adv-x="1052" d="M12 492q0 117 37 213t104.5 163.5t162 104.5t210.5 37q117 0 212.5 -37t162 -104.5t103 -163t36.5 -213.5q0 -119 -36.5 -215.5t-104.5 -164t-162 -104.5t-211 -37t-212 37t-162.5 104.5t-103.5 164t-36 215.5zM215 1149q29 125 80 185.5t135 60.5q39 0 90 -15l94 -28 q25 -8 58 -9q66 0 88 87h119q-29 -129 -81.5 -191.5t-138.5 -62.5q-37 0 -75 12l-92 26q-47 12 -68 13q-63 0 -90 -78h-119zM416 506q0 -145 20 -214t90 -69q59 0 85 58.5t26 181.5q0 150 -19.5 223.5t-91.5 73.5q-66 0 -88 -62.5t-22 -191.5z" />
<glyph unicode="&#xf6;" horiz-adv-x="1052" d="M12 492q0 117 37 213t104.5 163.5t162 104.5t210.5 37q117 0 212.5 -37t162 -104.5t103 -163t36.5 -213.5q0 -119 -36.5 -215.5t-104.5 -164t-162 -104.5t-211 -37t-212 37t-162.5 104.5t-103.5 164t-36 215.5zM240 1153v270h249v-270h-249zM416 506q0 -145 20 -214 t90 -69q59 0 85 58.5t26 181.5q0 150 -19.5 223.5t-91.5 73.5q-66 0 -88 -62.5t-22 -191.5zM602 1153v270h252v-270h-252z" />
<glyph unicode="&#xf7;" horiz-adv-x="1705" d="M254 475v273h1198v-273h-1198zM670 188q0 39 14 73t40 58.5t59.5 38t70.5 13.5t69.5 -14.5t58.5 -39t40 -58.5t14 -71t-14 -69.5t-39 -57t-58.5 -40t-72.5 -15.5q-78 0 -130 53.5t-52 128.5zM670 1032q0 39 14 73t40 58.5t59.5 39t70.5 14.5t69.5 -14.5t58.5 -40 t40 -59.5t14 -71t-14 -69.5t-39 -57t-58.5 -40t-72.5 -15.5q-78 0 -130 53t-52 129z" />
<glyph unicode="&#xf8;" horiz-adv-x="1122" d="M-37 -117l201 258q-117 135 -117 351q0 117 37 213t104.5 164.5t164 105.5t212.5 37q115 0 232 -49l92 118h270l-192 -250q109 -133 108 -342q0 -117 -37 -213t-104.5 -163.5t-161.5 -104.5t-209 -37q-106 0 -229 41l-103 -129h-268zM449 506q0 -147 20 -218t90 -71 q66 0 91.5 58.5t25.5 187.5q0 154 -20.5 229.5t-94.5 75.5q-66 0 -89 -64.5t-23 -197.5z" />
<glyph unicode="&#xf9;" horiz-adv-x="1187" d="M20 739v246h480v-590q0 -57 24.5 -86.5t65.5 -29.5t65.5 30.5t24.5 85.5v344h-86v246h487v-731h88v-254h-489v135q-129 -158 -303 -158q-133 0 -204 75t-71 216v471h-82zM283 1475h286l193 -371h-154z" />
<glyph unicode="&#xfa;" horiz-adv-x="1187" d="M20 739v246h480v-590q0 -57 24.5 -86.5t65.5 -29.5t65.5 30.5t24.5 85.5v344h-86v246h487v-731h88v-254h-489v135q-129 -158 -303 -158q-133 0 -204 75t-71 216v471h-82zM414 1104l192 371h287l-326 -371h-153z" />
<glyph unicode="&#xfb;" horiz-adv-x="1187" d="M20 739v246h480v-590q0 -57 24.5 -86.5t65.5 -29.5t65.5 30.5t24.5 85.5v344h-86v246h487v-731h88v-254h-489v135q-129 -158 -303 -158q-133 0 -204 75t-71 216v471h-82zM266 1104l193 371h256l192 -371h-153l-166 199l-168 -199h-154z" />
<glyph unicode="&#xfc;" horiz-adv-x="1187" d="M20 739v246h480v-590q0 -57 24.5 -86.5t65.5 -29.5t65.5 30.5t24.5 85.5v344h-86v246h487v-731h88v-254h-489v135q-129 -158 -303 -158q-133 0 -204 75t-71 216v471h-82zM281 1153v270h249v-270h-249zM643 1153v270h252v-270h-252z" />
<glyph unicode="&#xfd;" horiz-adv-x="1099" d="M0 739v246h565v-246h-82l101 -241q14 -33 24 -68t17 -76q12 90 32 146l91 239h-76v246h428v-246h-76l-383 -882h186v-250h-628v250h186l49 131l-358 751h-76zM375 1104l192 371h287l-326 -371h-153z" />
<glyph unicode="&#xfe;" horiz-adv-x="1200" d="M20 -143h105v1362h-105v245h494v-563q102 109 256 109q172 0 271.5 -134.5t99.5 -381.5q0 -254 -103.5 -388.5t-275.5 -134.5q-127 0 -230 84v-198h105v-250h-617v250zM514 504q0 -135 24 -199.5t87 -64.5q115 0 114 247q0 137 -25.5 203t-86.5 66q-113 0 -113 -252z" />
<glyph unicode="&#xff;" horiz-adv-x="1099" d="M0 739v246h565v-246h-82l101 -241q14 -33 24 -68t17 -76q12 90 32 146l91 239h-76v246h428v-246h-76l-383 -882h186v-250h-628v250h186l49 131l-358 751h-76zM242 1153v270h250v-270h-250zM604 1153v270h252v-270h-252z" />
<glyph unicode="&#x152;" horiz-adv-x="1980" d="M45 719q0 168 44 309t114 229q195 250 532 250q59 0 125 -8t137 -24h899v-564h-280v236h-270v-229h182v-353h-182v-237h270v260h280v-588h-899q-74 -16 -141.5 -24.5t-128.5 -8.5q-223 0 -379 111q-147 104 -225 267t-78 374zM543 735q0 -119 9 -206t31.5 -143t61.5 -84 t100 -28q78 0 185 54v819q-106 51 -178 51q-63 0 -104.5 -27.5t-64 -84t-31.5 -144.5t-9 -207z" />
<glyph unicode="&#x153;" horiz-adv-x="1685" d="M53 483q0 117 37 214.5t103.5 166t158.5 106.5t201 38q100 0 181 -22.5t147 -74.5q125 98 282 99q106 0 192.5 -36t147 -103.5t93 -165t32.5 -220.5v-33.5t-2 -33.5h-565v-31q0 -178 115 -178q98 0 120 123h318q-8 -80 -44 -146.5t-93.5 -113.5t-134 -74t-164.5 -27 q-168 1 -320 95q-57 -49 -136 -70t-183 -21t-193.5 36t-154 101.5t-101.5 160t-37 210.5zM457 506q0 -145 21 -214t91 -69q59 0 84 58.5t25 181.5q0 150 -19.5 223.5t-91.5 73.5q-66 0 -88 -62.5t-22 -191.5zM1061 596h219v27q0 166 -104 165q-111 0 -115 -192z" />
<glyph unicode="&#x178;" horiz-adv-x="1384" d="M12 1161v314h693v-314h-101l166 -278l160 278h-96v314h505v-314h-90l-340 -553v-284h158v-324h-764v324h156v284l-357 553h-90zM385 1651v270h250v-270h-250zM748 1651v270h251v-270h-251z" />
<glyph unicode="&#x2c6;" horiz-adv-x="1024" d="M190 1104l193 371h256l192 -371h-153l-166 199l-168 -199h-154z" />
<glyph unicode="&#x2dc;" horiz-adv-x="1024" d="M180 1149q29 125 80 185.5t135 60.5q39 0 90 -15l95 -28q25 -8 57 -9q66 0 88 87h119q-29 -129 -81 -191.5t-138 -62.5q-37 0 -76 12l-92 26q-47 12 -68 13q-63 0 -90 -78h-119z" />
<glyph unicode="&#x2000;" horiz-adv-x="986" />
<glyph unicode="&#x2001;" horiz-adv-x="1972" />
<glyph unicode="&#x2002;" horiz-adv-x="986" />
<glyph unicode="&#x2003;" horiz-adv-x="1972" />
<glyph unicode="&#x2004;" horiz-adv-x="657" />
<glyph unicode="&#x2005;" horiz-adv-x="493" />
<glyph unicode="&#x2006;" horiz-adv-x="328" />
<glyph unicode="&#x2007;" horiz-adv-x="328" />
<glyph unicode="&#x2008;" horiz-adv-x="246" />
<glyph unicode="&#x2009;" horiz-adv-x="394" />
<glyph unicode="&#x200a;" horiz-adv-x="109" />
<glyph unicode="&#x2010;" horiz-adv-x="860" d="M139 303v375h582v-375h-582z" />
<glyph unicode="&#x2011;" horiz-adv-x="860" d="M139 303v375h582v-375h-582z" />
<glyph unicode="&#x2012;" horiz-adv-x="860" d="M139 303v375h582v-375h-582z" />
<glyph unicode="&#x2013;" horiz-adv-x="1024" d="M0 340v303h1024v-303h-1024z" />
<glyph unicode="&#x2014;" horiz-adv-x="2048" d="M0 340v303h2048v-303h-2048z" />
<glyph unicode="&#x2018;" horiz-adv-x="653" d="M41 860l272 615h246l-137 -615h-381z" />
<glyph unicode="&#x2019;" horiz-adv-x="653" d="M43 860l137 615h381l-272 -615h-246z" />
<glyph unicode="&#x201a;" horiz-adv-x="653" d="M23 -201l137 617h381l-273 -617h-245z" />
<glyph unicode="&#x201c;" horiz-adv-x="1093" d="M6 860l273 615h245l-137 -615h-381zM500 860l272 615h246l-137 -615h-381z" />
<glyph unicode="&#x201d;" horiz-adv-x="1093" d="M6 860l137 615h381l-272 -615h-246zM498 860l137 615h381l-273 -615h-245z" />
<glyph unicode="&#x201e;" horiz-adv-x="1093" d="M6 -201l137 617h381l-272 -617h-246zM498 -201l137 617h381l-273 -617h-245z" />
<glyph unicode="&#x2022;" horiz-adv-x="1208" d="M307 762q0 61 23.5 114.5t63.5 93.5t94.5 63.5t115.5 23.5t114.5 -23.5t93.5 -63.5t63.5 -93.5t23.5 -114.5t-23.5 -114.5t-63.5 -94.5t-94 -64.5t-116 -23.5q-61 0 -115.5 23.5t-94.5 63.5t-62.5 94.5t-22.5 115.5z" />
<glyph unicode="&#x2026;" horiz-adv-x="2048" d="M160 0v412h370v-412h-370zM842 0v412h370v-412h-370zM1526 0v412h370v-412h-370z" />
<glyph unicode="&#x202f;" horiz-adv-x="394" />
<glyph unicode="&#x2039;" horiz-adv-x="854" d="M88 0v324h121v835h-121v316h678v-316h-121v-835h121v-324h-678zM297 1651v280h260v-280h-260z" />
<glyph unicode="&#x203a;" horiz-adv-x="675" d="M33 739v246h518v-731h86v-254h-586v254h99v485h-117z" />
<glyph unicode="&#x205f;" horiz-adv-x="493" />
<glyph unicode="&#x20ac;" horiz-adv-x="1138" d="M12 506q0 115 30 209t82 160.5t125 102.5t159 36q172 0 247 -144v115h463v-242h-84v-694q0 -102 -39 -184t-111.5 -139.5t-177 -88t-235.5 -30.5q-100 0 -174 14t-117 37l39 272q92 -49 201 -49q102 0 159.5 55.5t57.5 153.5v16.5t-2 16.5q-94 -106 -240 -107 q-86 0 -155.5 34t-120.5 96.5t-79 153.5t-28 206zM254 1442h131q12 -139 184 -139q176 0 183 139h131q-12 -160 -87 -233.5t-227 -73.5q-150 0 -227.5 74.5t-87.5 232.5zM422 506q0 -125 26.5 -184.5t88.5 -59.5q59 0 84.5 57.5t25.5 174.5q0 123 -24.5 180t-85.5 57 q-115 0 -115 -225z" />
<glyph unicode="&#x2122;" horiz-adv-x="1705" d="M164 1317v151h526v-151h-162v-408h-202v408h-162zM788 909v559h256l99 -266l98 266h256v-559h-182v367l-137 -367h-70l-137 367v-367h-183z" />
<glyph unicode="&#x25fc;" horiz-adv-x="983" d="M0 0v983h983v-983h-983z" />
<glyph unicode="&#xfb01;" horiz-adv-x="1155" d="M68 993q0 117 34.5 211t96 161t148.5 103.5t192 36.5q168 0 260 -98v68h221v-478h-201q-29 201 -233 201q-57 0 -90 -25.5t-33 -64.5q0 -35 24.5 -53.5t71.5 -34.5l154 -55q100 -37 174 -79t122 -98.5t71.5 -129t23.5 -171.5q0 -123 -35 -220t-98.5 -164.5t-153.5 -103.5 t-199 -36h-18v-47h18q113 0 172.5 -50t59.5 -142q0 -98 -66.5 -153.5t-189.5 -55.5q-115 0 -291 47v137q90 -25 157.5 -35t112.5 -10q86 0 86 72q0 63 -118 63h-25.5t-30.5 -2v193q-123 31 -194 112v-96h-215v512h194q68 -250 256 -250q72 0 111 30.5t39 84.5q0 82 -109 114 l-131 41q-190 59 -279 169t-89 296z" />
<glyph unicode="&#xfb02;" horiz-adv-x="808" d="M25 676q0 70 23.5 130t65.5 104t100 70t128 26q127 0 227 -76v55h158v-317h-158q-63 119 -170 118q-35 0 -54 -16t-19 -43q0 -53 86 -74q90 -23 158.5 -47t115.5 -61t70.5 -92.5t23.5 -139.5q0 -162 -87 -252t-247 -90h-18v-55h18q113 0 172.5 -50t59.5 -142 q0 -98 -66.5 -153.5t-189.5 -55.5q-115 0 -291 47v137q90 -25 157.5 -35t112.5 -10q86 0 86 72q0 63 -118 63h-25.5t-30.5 -2v205q-63 18 -118 65v-57h-158v324h158q61 -135 172 -136q41 0 65.5 19.5t24.5 48.5q0 23 -12.5 37t-34 24.5t-53 20.5t-70.5 27q-68 27 -117 53 t-82 62t-48 83t-15 113z" />
</font>
</defs>
</svg>
